CSLSans-Light.ufo
<glyph name="exclam" format="2">
  <advance width="272"/>
  <unicode hex="0021"/>
  <outline>
    <contour>
      <point x="121" y="181" type="line"/>
      <point x="105" y="464" type="line"/>
      <point x="105" y="698" type="line"/>
      <point x="167" y="698" type="line"/>
      <point x="167" y="464" type="line"/>
      <point x="150" y="181" type="line"/>
    </contour>
    <contour>
      <point x="136" y="-9" type="qcurve" smooth="yes"/>
      <point x="111" y="-9"/>
      <point x="88" y="16"/>
      <point x="88" y="36" type="qcurve" smooth="yes"/>
      <point x="88" y="47" type="line" smooth="yes"/>
      <point x="88" y="67"/>
      <point x="111" y="92"/>
      <point x="136" y="92" type="qcurve" smooth="yes"/>
      <point x="160" y="92"/>
      <point x="184" y="67"/>
      <point x="184" y="47" type="qcurve" smooth="yes"/>
      <point x="184" y="36" type="line" smooth="yes"/>
      <point x="184" y="-9"/>
    </contour>
  </outline>
</glyph>
<glyph name="numbersign" format="2">
  <advance width="713"/>
  <unicode hex="0023"/>
  <outline>
    <contour>
      <point x="379" y="0" type="line"/>
      <point x="416" y="211" type="line"/>
      <point x="250" y="211" type="line"/>
      <point x="213" y="0" type="line"/>
      <point x="166" y="0" type="line"/>
      <point x="202" y="211" type="line"/>
      <point x="66" y="211" type="line"/>
      <point x="66" y="255" type="line"/>
      <point x="210" y="255" type="line"/>
      <point x="242" y="443" type="line"/>
      <point x="105" y="443" type="line"/>
      <point x="105" y="487" type="line"/>
      <point x="250" y="487" type="line"/>
      <point x="286" y="698" type="line"/>
      <point x="333" y="698" type="line"/>
      <point x="297" y="487" type="line"/>
      <point x="463" y="487" type="line"/>
      <point x="499" y="698" type="line"/>
      <point x="547" y="698" type="line"/>
      <point x="510" y="487" type="line"/>
      <point x="647" y="487" type="line"/>
      <point x="647" y="443" type="line"/>
      <point x="502" y="443" type="line"/>
      <point x="471" y="255" type="line"/>
      <point x="608" y="255" type="line"/>
      <point x="608" y="211" type="line"/>
      <point x="463" y="211" type="line"/>
      <point x="427" y="0" type="line"/>
    </contour>
    <contour>
      <point x="455" y="443" type="line"/>
      <point x="289" y="443" type="line"/>
      <point x="257" y="255" type="line"/>
      <point x="423" y="255" type="line"/>
    </contour>
  </outline>
</glyph>
<glyph name="comma" format="2">
  <advance width="300"/>
  <unicode hex="002C"/>
  <outline>
    <contour>
      <point x="64" y="-138" type="line"/>
      <point x="128" y="-72"/>
      <point x="138" y="-7" type="qcurve"/>
      <point x="102" y="-2"/>
      <point x="102" y="34" type="qcurve" smooth="yes"/>
      <point x="102" y="46" type="line" smooth="yes"/>
      <point x="102" y="66"/>
      <point x="125" y="92"/>
      <point x="150" y="92" type="qcurve" smooth="yes"/>
      <point x="175" y="92"/>
      <point x="198" y="66"/>
      <point x="198" y="46" type="qcurve" smooth="yes"/>
      <point x="198" y="33" type="line" smooth="yes"/>
      <point x="198" y="-9"/>
      <point x="152" y="-103"/>
      <point x="112" y="-138" type="qcurve"/>
    </contour>
  </outline>
</glyph>
<glyph name="one" format="2">
  <advance width="600"/>
  <unicode hex="0031"/>
  <outline>
    <contour>
      <point x="374" y="0" type="line"/>
      <point x="314" y="0" type="line"/>
      <point x="314" y="643" type="line"/>
      <point x="164" y="554" type="line"/>
      <point x="164" y="614" type="line"/>
      <point x="309" y="698" type="line"/>
      <point x="374" y="698" type="line"/>
    </contour>
  </outline>
</glyph>
<glyph name="six" format="2">
  <advance width="600"/>
  <unicode hex="0036"/>
  <outline>
    <contour>
      <point x="300" y="40" type="qcurve" smooth="yes"/>
      <point x="376" y="40"/>
      <point x="462" y="127"/>
      <point x="462" y="200" type="qcurve" smooth="yes"/>
      <point x="462" y="217" type="line" smooth="yes"/>
      <point x="462" y="290"/>
      <point x="377" y="376"/>
      <point x="300" y="376" type="qcurve" smooth="yes"/>
      <point x="222" y="376"/>
      <point x="137" y="290"/>
      <point x="137" y="217" type="qcurve" smooth="yes"/>
      <point x="137" y="201" type="line" smooth="yes"/>
      <point x="137" y="127"/>
      <point x="223" y="40"/>
    </contour>
    <contour>
      <point x="301" y="-12" type="qcurve" smooth="yes"/>
      <point x="192" y="-12"/>
      <point x="75" y="130"/>
      <point x="75" y="244" type="qcurve" smooth="yes"/>
      <point x="75" y="395"/>
      <point x="156" y="521" type="qcurve"/>
      <point x="233" y="636"/>
      <point x="333" y="698" type="qcurve"/>
      <point x="412" y="698" type="line"/>
      <point x="297" y="621"/>
      <point x="163" y="446"/>
      <point x="138" y="326" type="qcurve"/>
      <point x="142" y="325" type="line"/>
      <point x="198" y="427"/>
      <point x="316" y="427" type="qcurve" smooth="yes"/>
      <point x="408" y="427"/>
      <point x="467" y="370" type="qcurve"/>
      <point x="524" y="312"/>
      <point x="524" y="214" type="qcurve" smooth="yes"/>
      <point x="524" y="112"/>
      <point x="463" y="51" type="qcurve"/>
      <point x="403" y="-12"/>
    </contour>
  </outline>
</glyph>
<glyph name="colon" format="2">
  <advance width="300"/>
  <unicode hex="003A"/>
  <outline>
    <contour>
      <point x="150" y="-9" type="qcurve" smooth="yes"/>
      <point x="125" y="-9"/>
      <point x="102" y="16"/>
      <point x="102" y="36" type="qcurve" smooth="yes"/>
      <point x="102" y="47" type="line" smooth="yes"/>
      <point x="102" y="67"/>
      <point x="125" y="92"/>
      <point x="150" y="92" type="qcurve" smooth="yes"/>
      <point x="174" y="92"/>
      <point x="198" y="67"/>
      <point x="198" y="47" type="qcurve" smooth="yes"/>
      <point x="198" y="36" type="line" smooth="yes"/>
      <point x="198" y="-9"/>
    </contour>
    <contour>
      <point x="150" y="411" type="qcurve" smooth="yes"/>
      <point x="125" y="411"/>
      <point x="102" y="436"/>
      <point x="102" y="456" type="qcurve" smooth="yes"/>
      <point x="102" y="467" type="line" smooth="yes"/>
      <point x="102" y="487"/>
      <point x="125" y="512"/>
      <point x="150" y="512" type="qcurve" smooth="yes"/>
      <point x="174" y="512"/>
      <point x="198" y="487"/>
      <point x="198" y="467" type="qcurve" smooth="yes"/>
      <point x="198" y="456" type="line" smooth="yes"/>
      <point x="198" y="411"/>
    </contour>
  </outline>
</glyph>
<glyph name="semicolon" format="2">
  <advance width="280"/>
  <unicode hex="003B"/>
  <outline>
    <contour>
      <point x="139" y="411" type="qcurve" smooth="yes"/>
      <point x="114" y="411"/>
      <point x="91" y="436"/>
      <point x="91" y="456" type="qcurve" smooth="yes"/>
      <point x="91" y="467" type="line" smooth="yes"/>
      <point x="91" y="487"/>
      <point x="114" y="512"/>
      <point x="139" y="512" type="qcurve" smooth="yes"/>
      <point x="163" y="512"/>
      <point x="187" y="487"/>
      <point x="187" y="467" type="qcurve" smooth="yes"/>
      <point x="187" y="456" type="line" smooth="yes"/>
      <point x="187" y="411"/>
    </contour>
    <contour>
      <point x="54" y="-138" type="line"/>
      <point x="118" y="-72"/>
      <point x="128" y="-7" type="qcurve"/>
      <point x="92" y="-2"/>
      <point x="92" y="34" type="qcurve" smooth="yes"/>
      <point x="92" y="46" type="line" smooth="yes"/>
      <point x="92" y="66"/>
      <point x="115" y="92"/>
      <point x="140" y="92" type="qcurve" smooth="yes"/>
      <point x="165" y="92"/>
      <point x="188" y="66"/>
      <point x="188" y="46" type="qcurve" smooth="yes"/>
      <point x="188" y="33" type="line" smooth="yes"/>
      <point x="188" y="-9"/>
      <point x="142" y="-103"/>
      <point x="102" y="-138" type="qcurve"/>
    </contour>
  </outline>
</glyph>
<glyph name="less" format="2">
  <advance width="600"/>
  <unicode hex="003C"/>
  <outline>
    <contour>
      <point x="88" y="260" type="line"/>
      <point x="88" y="316" type="line"/>
      <point x="512" y="568" type="line"/>
      <point x="512" y="508" type="line"/>
      <point x="143" y="291" type="line"/>
      <point x="143" y="285" type="line"/>
      <point x="512" y="68" type="line"/>
      <point x="512" y="8" type="line"/>
    </contour>
  </outline>
</glyph>
<glyph name="D" format="2">
  <advance width="666"/>
  <unicode hex="0044"/>
  <outline>
    <contour>
      <point x="322" y="53" type="line" smooth="yes"/>
      <point x="425" y="53"/>
      <point x="539" y="186"/>
      <point x="539" y="303" type="qcurve" smooth="yes"/>
      <point x="539" y="395" type="line" smooth="yes"/>
      <point x="539" y="512"/>
      <point x="425" y="645"/>
      <point x="322" y="645" type="qcurve" smooth="yes"/>
      <point x="159" y="645" type="line"/>
      <point x="159" y="53" type="line"/>
    </contour>
    <contour>
      <point x="99" y="0" type="line"/>
      <point x="99" y="698" type="line"/>
      <point x="321" y="698" type="line" smooth="yes"/>
      <point x="456" y="698"/>
      <point x="603" y="524"/>
      <point x="603" y="349" type="qcurve" smooth="yes"/>
      <point x="603" y="174"/>
      <point x="456" y="0"/>
      <point x="321" y="0" type="qcurve" smooth="yes"/>
    </contour>
  </outline>
</glyph>
<glyph name="L" format="2">
  <advance width="491"/>
  <unicode hex="004C"/>
  <outline>
    <contour>
      <point x="99" y="0" type="line"/>
      <point x="99" y="698" type="line"/>
      <point x="159" y="698" type="line"/>
      <point x="159" y="53" type="line"/>
      <point x="467" y="53" type="line"/>
      <point x="467" y="0" type="line"/>
    </contour>
  </outline>
</glyph>
<glyph name="P" format="2">
  <advance width="601"/>
  <unicode hex="0050"/>
  <outline>
    <contour>
      <point x="99" y="0" type="line"/>
      <point x="99" y="698" type="line"/>
      <point x="373" y="698" type="line" smooth="yes"/>
      <point x="464" y="698"/>
      <point x="560" y="593"/>
      <point x="560" y="503" type="qcurve" smooth="yes"/>
      <point x="560" y="412"/>
      <point x="464" y="307"/>
      <point x="373" y="307" type="qcurve" smooth="yes"/>
      <point x="159" y="307" type="line"/>
      <point x="159" y="0" type="line"/>
    </contour>
    <contour>
      <point x="373" y="360" type="line" smooth="yes"/>
      <point x="433" y="360"/>
      <point x="496" y="427"/>
      <point x="496" y="479" type="qcurve" smooth="yes"/>
      <point x="496" y="527" type="line" smooth="yes"/>
      <point x="496" y="578"/>
      <point x="433" y="645"/>
      <point x="373" y="645" type="qcurve" smooth="yes"/>
      <point x="159" y="645" type="line"/>
      <point x="159" y="360" type="line"/>
    </contour>
  </outline>
</glyph>
<glyph name="Q" format="2">
  <advance width="699"/>
  <unicode hex="0051"/>
  <outline>
    <contour>
      <point x="349" y="42" type="qcurve" smooth="yes"/>
      <point x="443" y="42"/>
      <point x="501" y="102" type="qcurve"/>
      <point x="374" y="220" type="line"/>
      <point x="453" y="220" type="line"/>
      <point x="533" y="145" type="line"/>
      <point x="570" y="208"/>
      <point x="570" y="305" type="qcurve" smooth="yes"/>
      <point x="570" y="393" type="line" smooth="yes"/>
      <point x="570" y="518"/>
      <point x="450" y="656"/>
      <point x="349" y="656" type="qcurve" smooth="yes"/>
      <point x="249" y="656"/>
      <point x="127" y="518"/>
      <point x="127" y="393" type="qcurve" smooth="yes"/>
      <point x="127" y="305" type="line" smooth="yes"/>
      <point x="127" y="181"/>
      <point x="249" y="42"/>
    </contour>
    <contour>
      <point x="349" y="-12" type="qcurve" smooth="yes"/>
      <point x="215" y="-12"/>
      <point x="63" y="171"/>
      <point x="63" y="349" type="qcurve" smooth="yes"/>
      <point x="63" y="527"/>
      <point x="215" y="710"/>
      <point x="349" y="710" type="qcurve" smooth="yes"/>
      <point x="482" y="710"/>
      <point x="634" y="526"/>
      <point x="634" y="349" type="qcurve" smooth="yes"/>
      <point x="634" y="195"/>
      <point x="576" y="105" type="qcurve"/>
      <point x="702" y="-12" type="line"/>
      <point x="623" y="-12" type="line"/>
      <point x="543" y="63" type="line"/>
      <point x="469" y="-12"/>
    </contour>
  </outline>
</glyph>
<glyph name="l" format="2">
  <advance width="264"/>
  <unicode hex="006C"/>
  <outline>
    <contour>
      <point x="156" y="0" type="line" smooth="yes"/>
      <point x="125" y="0"/>
      <point x="93" y="34"/>
      <point x="93" y="62" type="qcurve" smooth="yes"/>
      <point x="93" y="740" type="line"/>
      <point x="150" y="740" type="line"/>
      <point x="150" y="50" type="line"/>
      <point x="229" y="50" type="line"/>
      <point x="229" y="0" type="line"/>
    </contour>
  </outline>
</glyph>
<glyph name="r" format="2">
  <advance width="357"/>
  <unicode hex="0072"/>
  <outline>
    <contour>
      <point x="93" y="0" type="line"/>
      <point x="93" y="512" type="line"/>
      <point x="150" y="512" type="line"/>
      <point x="150" y="420" type="line"/>
      <point x="154" y="420" type="line"/>
      <point x="190" y="512"/>
      <point x="307" y="512" type="qcurve" smooth="yes"/>
      <point x="341" y="512" type="line"/>
      <point x="341" y="456" type="line"/>
      <point x="296" y="456" type="line" smooth="yes"/>
      <point x="232" y="456"/>
      <point x="150" y="400"/>
      <point x="150" y="350" type="qcurve" smooth="yes"/>
      <point x="150" y="0" type="line"/>
    </contour>
  </outline>
</glyph>
<glyph name="z" format="2">
  <advance width="446"/>
  <unicode hex="007A"/>
  <outline>
    <contour>
      <point x="31" y="0" type="line"/>
      <point x="31" y="49" type="line"/>
      <point x="341" y="462" type="line"/>
      <point x="40" y="462" type="line"/>
      <point x="40" y="512" type="line"/>
      <point x="409" y="512" type="line"/>
      <point x="409" y="467" type="line"/>
      <point x="95" y="50" type="line"/>
      <point x="417" y="50" type="line"/>
      <point x="417" y="0" type="line"/>
    </contour>
  </outline>
</glyph>
<glyph name="cent" format="2">
  <advance width="497"/>
  <unicode hex="00A2"/>
  <outline>
    <contour>
      <point x="243" y="471" type="line"/>
      <point x="180" y="461"/>
      <point x="113" y="366"/>
      <point x="113" y="292" type="qcurve" smooth="yes"/>
      <point x="113" y="220" type="line" smooth="yes"/>
      <point x="113" y="147"/>
      <point x="180" y="51"/>
      <point x="243" y="42" type="qcurve"/>
    </contour>
    <contour>
      <point x="242" y="-114" type="line"/>
      <point x="242" y="-10" type="line"/>
      <point x="151" y="0"/>
      <point x="52" y="138"/>
      <point x="52" y="256" type="qcurve" smooth="yes"/>
      <point x="52" y="374"/>
      <point x="151" y="512"/>
      <point x="242" y="522" type="qcurve"/>
      <point x="242" y="626" type="line"/>
      <point x="292" y="626" type="line"/>
      <point x="292" y="523" type="line"/>
      <point x="413" y="512"/>
      <point x="455" y="411" type="qcurve"/>
      <point x="409" y="388" type="line"/>
      <point x="375" y="466"/>
      <point x="291" y="473" type="qcurve"/>
      <point x="291" y="39" type="line"/>
      <point x="382" y="47"/>
      <point x="421" y="127" type="qcurve"/>
      <point x="463" y="99" type="line"/>
      <point x="417" y="-1"/>
      <point x="292" y="-11" type="qcurve"/>
      <point x="292" y="-114" type="line"/>
    </contour>
  </outline>
</glyph>
<glyph name="guillemotleft" format="2">
  <advance width="497"/>
  <unicode hex="00AB"/>
  <outline>
    <contour>
      <point x="233" y="261" type="line"/>
      <point x="233" y="315" type="line"/>
      <point x="428" y="486" type="line"/>
      <point x="446" y="447" type="line"/>
      <point x="290" y="288" type="line"/>
      <point x="446" y="129" type="line"/>
      <point x="428" y="90" type="line"/>
    </contour>
    <contour>
      <point x="35" y="261" type="line"/>
      <point x="35" y="315" type="line"/>
      <point x="230" y="486" type="line"/>
      <point x="248" y="447" type="line"/>
      <point x="92" y="288" type="line"/>
      <point x="248" y="129" type="line"/>
      <point x="230" y="90" type="line"/>
    </contour>
  </outline>
</glyph>
<glyph name="u00AD" format="2">
  <advance width="397"/>
  <unicode hex="00AD"/>
  <outline>
    <contour>
      <point x="74" y="274" type="line"/>
      <point x="74" y="335" type="line"/>
      <point x="323" y="335" type="line"/>
      <point x="323" y="274" type="line"/>
    </contour>
  </outline>
</glyph>
<glyph name="plusminus" format="2">
  <advance width="600"/>
  <unicode hex="00B1"/>
  <outline>
    <contour>
      <point x="273" y="137" type="line"/>
      <point x="273" y="350" type="line"/>
      <point x="65" y="350" type="line"/>
      <point x="65" y="399" type="line"/>
      <point x="273" y="399" type="line"/>
      <point x="273" y="612" type="line"/>
      <point x="327" y="612" type="line"/>
      <point x="327" y="399" type="line"/>
      <point x="535" y="399" type="line"/>
      <point x="535" y="350" type="line"/>
      <point x="327" y="350" type="line"/>
      <point x="327" y="137" type="line"/>
    </contour>
    <contour>
      <point x="65" y="0" type="line"/>
      <point x="65" y="49" type="line"/>
      <point x="535" y="49" type="line"/>
      <point x="535" y="0" type="line"/>
    </contour>
  </outline>
</glyph>
<glyph name="twosuperior" format="2">
  <advance width="346"/>
  <unicode hex="00B2"/>
  <outline>
    <contour>
      <point x="41" y="329" type="line"/>
      <point x="41" y="372" type="line"/>
      <point x="174" y="480" type="line"/>
      <point x="245" y="535"/>
      <point x="245" y="590" type="qcurve" smooth="yes"/>
      <point x="245" y="598" type="line" smooth="yes"/>
      <point x="245" y="628"/>
      <point x="206" y="666"/>
      <point x="168" y="666" type="qcurve" smooth="yes"/>
      <point x="129" y="666"/>
      <point x="87" y="630"/>
      <point x="76" y="600" type="qcurve"/>
      <point x="37" y="614" type="line"/>
      <point x="49" y="651"/>
      <point x="113" y="704"/>
      <point x="171" y="704" type="qcurve" smooth="yes"/>
      <point x="231" y="704"/>
      <point x="294" y="643"/>
      <point x="294" y="597" type="qcurve" smooth="yes"/>
      <point x="294" y="555"/>
      <point x="244" y="488"/>
      <point x="199" y="453" type="qcurve" smooth="yes"/>
      <point x="90" y="366" type="line"/>
      <point x="307" y="366" type="line"/>
      <point x="307" y="329" type="line"/>
    </contour>
  </outline>
</glyph>
<glyph name="u00B3" format="2">
  <advance width="346"/>
  <unicode hex="00B3"/>
  <outline>
    <contour>
      <point x="161" y="323" type="qcurve" smooth="yes"/>
      <point x="74" y="323"/>
      <point x="31" y="385" type="qcurve"/>
      <point x="65" y="410" type="line"/>
      <point x="80" y="388"/>
      <point x="123" y="360"/>
      <point x="161" y="360" type="qcurve" smooth="yes"/>
      <point x="204" y="360"/>
      <point x="249" y="398"/>
      <point x="249" y="431" type="qcurve" smooth="yes"/>
      <point x="249" y="441" type="line" smooth="yes"/>
      <point x="249" y="502"/>
      <point x="162" y="502" type="qcurve" smooth="yes"/>
      <point x="114" y="502" type="line"/>
      <point x="114" y="539" type="line"/>
      <point x="157" y="539" type="line" smooth="yes"/>
      <point x="242" y="539"/>
      <point x="242" y="602" type="qcurve" smooth="yes"/>
      <point x="242" y="667"/>
      <point x="166" y="667" type="qcurve" smooth="yes"/>
      <point x="133" y="667"/>
      <point x="91" y="643"/>
      <point x="76" y="621" type="qcurve"/>
      <point x="44" y="646" type="line"/>
      <point x="83" y="704"/>
      <point x="167" y="704" type="qcurve"/>
      <point x="290" y="699"/>
      <point x="290" y="609" type="qcurve" smooth="yes"/>
      <point x="290" y="573"/>
      <point x="248" y="531"/>
      <point x="215" y="524" type="qcurve"/>
      <point x="215" y="521" type="line"/>
      <point x="252" y="515"/>
      <point x="297" y="470"/>
      <point x="297" y="431" type="qcurve" smooth="yes"/>
      <point x="297" y="382"/>
      <point x="224" y="323"/>
    </contour>
  </outline>
</glyph>
<glyph name="acute" format="2">
  <advance width="600"/>
  <unicode hex="00B4"/>
  <outline>
    <contour>
      <point x="260" y="604" type="line"/>
      <point x="355" y="768" type="line"/>
      <point x="407" y="742" type="line"/>
      <point x="297" y="586" type="line"/>
    </contour>
  </outline>
</glyph>
<glyph name="u00B9" format="2">
  <advance width="334"/>
  <unicode hex="00B9"/>
  <outline>
    <contour>
      <point x="220" y="329" type="line"/>
      <point x="174" y="329" type="line"/>
      <point x="174" y="658" type="line"/>
      <point x="94" y="617" type="line"/>
      <point x="94" y="659" type="line"/>
      <point x="169" y="698" type="line"/>
      <point x="220" y="698" type="line"/>
    </contour>
  </outline>
</glyph>
<glyph name="questiondown" format="2">
  <advance width="463"/>
  <unicode hex="00BF"/>
  <outline>
    <contour>
      <point x="231" y="-198" type="qcurve" smooth="yes"/>
      <point x="140" y="-198"/>
      <point x="36" y="-98"/>
      <point x="36" y="-13" type="qcurve" smooth="yes"/>
      <point x="36" y="79"/>
      <point x="147" y="178"/>
      <point x="227" y="190" type="qcurve"/>
      <point x="227" y="316" type="line"/>
      <point x="282" y="316" type="line"/>
      <point x="282" y="149" type="line"/>
      <point x="194" y="145"/>
      <point x="98" y="66"/>
      <point x="98" y="-1" type="qcurve" smooth="yes"/>
      <point x="98" y="-20" type="line" smooth="yes"/>
      <point x="98" y="-77"/>
      <point x="170" y="-146"/>
      <point x="233" y="-146" type="qcurve" smooth="yes"/>
      <point x="297" y="-146"/>
      <point x="373" y="-79"/>
      <point x="387" y="-21" type="qcurve"/>
      <point x="440" y="-40" type="line"/>
      <point x="422" y="-109"/>
      <point x="320" y="-198"/>
    </contour>
    <contour>
      <point x="256" y="420" type="qcurve" smooth="yes"/>
      <point x="231" y="420"/>
      <point x="208" y="445"/>
      <point x="208" y="465" type="qcurve" smooth="yes"/>
      <point x="208" y="476" type="line" smooth="yes"/>
      <point x="208" y="496"/>
      <point x="231" y="521"/>
      <point x="256" y="521" type="qcurve" smooth="yes"/>
      <point x="280" y="521"/>
      <point x="304" y="496"/>
      <point x="304" y="476" type="qcurve" smooth="yes"/>
      <point x="304" y="465" type="line" smooth="yes"/>
      <point x="304" y="420"/>
    </contour>
  </outline>
</glyph>
<glyph name="Aacute" format="2">
  <advance width="625"/>
  <unicode hex="00C1"/>
  <outline>
    <contour>
      <point x="313" y="641" type="line"/>
      <point x="309" y="641" type="line"/>
      <point x="178" y="269" type="line"/>
      <point x="444" y="269" type="line"/>
    </contour>
    <contour>
      <point x="536" y="0" type="line"/>
      <point x="460" y="217" type="line"/>
      <point x="163" y="217" type="line"/>
      <point x="87" y="0" type="line"/>
      <point x="27" y="0" type="line"/>
      <point x="274" y="698" type="line"/>
      <point x="351" y="698" type="line"/>
      <point x="599" y="0" type="line"/>
    </contour>
    <contour>
      <point x="273" y="778" type="line"/>
      <point x="368" y="942" type="line"/>
      <point x="420" y="916" type="line"/>
      <point x="310" y="760" type="line"/>
    </contour>
  </outline>
</glyph>
<glyph name="Acircumflex" format="2">
  <advance width="625"/>
  <unicode hex="00C2"/>
  <outline>
    <contour>
      <point x="313" y="641" type="line"/>
      <point x="309" y="641" type="line"/>
      <point x="178" y="269" type="line"/>
      <point x="444" y="269" type="line"/>
    </contour>
    <contour>
      <point x="536" y="0" type="line"/>
      <point x="460" y="217" type="line"/>
      <point x="163" y="217" type="line"/>
      <point x="87" y="0" type="line"/>
      <point x="27" y="0" type="line"/>
      <point x="274" y="698" type="line"/>
      <point x="351" y="698" type="line"/>
      <point x="599" y="0" type="line"/>
    </contour>
    <contour>
      <point x="313" y="888" type="line"/>
      <point x="192" y="768" type="line"/>
      <point x="160" y="791" type="line"/>
      <point x="278" y="930" type="line"/>
      <point x="348" y="930" type="line"/>
      <point x="466" y="791" type="line"/>
      <point x="434" y="768" type="line"/>
    </contour>
  </outline>
</glyph>
<glyph name="Atilde" format="2">
  <advance width="625"/>
  <unicode hex="00C3"/>
  <outline>
    <contour>
      <point x="385" y="792" type="qcurve" smooth="yes"/>
      <point x="363" y="792"/>
      <point x="327" y="808"/>
      <point x="306" y="820" type="qcurve"/>
      <point x="267" y="844"/>
      <point x="238" y="844" type="qcurve" smooth="yes"/>
      <point x="204" y="844"/>
      <point x="177" y="815" type="qcurve"/>
      <point x="152" y="844" type="line"/>
      <point x="188" y="892"/>
      <point x="241" y="892" type="qcurve" smooth="yes"/>
      <point x="263" y="892"/>
      <point x="299" y="876"/>
      <point x="320" y="864" type="qcurve" smooth="yes"/>
      <point x="360" y="840"/>
      <point x="388" y="840" type="qcurve" smooth="yes"/>
      <point x="423" y="840"/>
      <point x="449" y="869" type="qcurve"/>
      <point x="474" y="840" type="line"/>
      <point x="438" y="792"/>
    </contour>
    <contour>
      <point x="536" y="0" type="line"/>
      <point x="460" y="217" type="line"/>
      <point x="163" y="217" type="line"/>
      <point x="87" y="0" type="line"/>
      <point x="27" y="0" type="line"/>
      <point x="274" y="698" type="line"/>
      <point x="351" y="698" type="line"/>
      <point x="599" y="0" type="line"/>
    </contour>
    <contour>
      <point x="313" y="641" type="line"/>
      <point x="309" y="641" type="line"/>
      <point x="178" y="269" type="line"/>
      <point x="444" y="269" type="line"/>
    </contour>
  </outline>
</glyph>
<glyph name="adieresis" format="2">
  <advance width="520"/>
  <unicode hex="00E4"/>
  <outline>
    <contour>
      <point x="160" y="627" type="qcurve" smooth="yes"/>
      <point x="121" y="627"/>
      <point x="121" y="663" type="qcurve" smooth="yes"/>
      <point x="121" y="673" type="line" smooth="yes"/>
      <point x="121" y="709"/>
      <point x="160" y="709" type="qcurve" smooth="yes"/>
      <point x="180" y="709"/>
      <point x="199" y="689"/>
      <point x="199" y="673" type="qcurve" smooth="yes"/>
      <point x="199" y="663" type="line" smooth="yes"/>
      <point x="199" y="647"/>
      <point x="180" y="627"/>
    </contour>
    <contour>
      <point x="344" y="627" type="qcurve" smooth="yes"/>
      <point x="324" y="627"/>
      <point x="305" y="647"/>
      <point x="305" y="663" type="qcurve" smooth="yes"/>
      <point x="305" y="673" type="line" smooth="yes"/>
      <point x="305" y="689"/>
      <point x="324" y="709"/>
      <point x="344" y="709" type="qcurve" smooth="yes"/>
      <point x="383" y="709"/>
      <point x="383" y="673" type="qcurve" smooth="yes"/>
      <point x="383" y="663" type="line" smooth="yes"/>
      <point x="383" y="627"/>
    </contour>
    <contour>
      <point x="220" y="-12" type="qcurve" smooth="yes"/>
      <point x="139" y="-12"/>
      <point x="51" y="67"/>
      <point x="51" y="139" type="qcurve" smooth="yes"/>
      <point x="51" y="287"/>
      <point x="259" y="287" type="qcurve" smooth="yes"/>
      <point x="377" y="287" type="line"/>
      <point x="377" y="347" type="line" smooth="yes"/>
      <point x="377" y="474"/>
      <point x="248" y="474" type="qcurve" smooth="yes"/>
      <point x="246" y="474" type="line" smooth="yes"/>
      <point x="150" y="474"/>
      <point x="106" y="391" type="qcurve"/>
      <point x="70" y="421" type="line"/>
      <point x="117" y="524"/>
      <point x="248" y="524" type="qcurve" smooth="yes"/>
      <point x="428" y="524"/>
      <point x="434" y="353" type="qcurve"/>
      <point x="434" y="0" type="line"/>
      <point x="380" y="0" type="line"/>
      <point x="380" y="81" type="line"/>
      <point x="375" y="81" type="line"/>
      <point x="358" y="38"/>
      <point x="280" y="-12"/>
    </contour>
    <contour>
      <point x="228" y="37" type="qcurve" smooth="yes"/>
      <point x="290" y="37"/>
      <point x="377" y="97"/>
      <point x="377" y="149" type="qcurve" smooth="yes"/>
      <point x="377" y="244" type="line"/>
      <point x="257" y="244" type="line" smooth="yes"/>
      <point x="111" y="244"/>
      <point x="111" y="152" type="qcurve" smooth="yes"/>
      <point x="111" y="128" type="line" smooth="yes"/>
      <point x="111" y="83"/>
      <point x="175" y="37"/>
    </contour>
  </outline>
</glyph>
<glyph name="igrave" format="2">
  <advance width="243"/>
  <unicode hex="00EC"/>
  <outline>
    <contour>
      <point x="15" y="742" type="line"/>
      <point x="67" y="768" type="line"/>
      <point x="162" y="604" type="line"/>
      <point x="124" y="586" type="line"/>
    </contour>
    <contour>
      <point x="93" y="0" type="line"/>
      <point x="93" y="512" type="line"/>
      <point x="150" y="512" type="line"/>
      <point x="150" y="0" type="line"/>
    </contour>
  </outline>
</glyph>
<glyph name="ntilde" format="2">
  <advance width="563"/>
  <unicode hex="00F1"/>
  <outline>
    <contour>
      <point x="420" y="0" type="line"/>
      <point x="420" y="319" type="line" smooth="yes"/>
      <point x="420" y="473"/>
      <point x="289" y="473" type="qcurve" smooth="yes"/>
      <point x="235" y="473"/>
      <point x="150" y="416"/>
      <point x="150" y="360" type="qcurve" smooth="yes"/>
      <point x="150" y="0" type="line"/>
      <point x="93" y="0" type="line"/>
      <point x="93" y="512" type="line"/>
      <point x="150" y="512" type="line"/>
      <point x="150" y="431" type="line"/>
      <point x="153" y="431" type="line"/>
      <point x="191" y="524"/>
      <point x="304" y="524" type="qcurve" smooth="yes"/>
      <point x="386" y="524"/>
      <point x="477" y="423"/>
      <point x="477" y="329" type="qcurve" smooth="yes"/>
      <point x="477" y="0" type="line"/>
    </contour>
    <contour>
      <point x="359" y="618" type="qcurve" smooth="yes"/>
      <point x="336" y="618"/>
      <point x="300" y="634"/>
      <point x="257" y="660"/>
      <point x="226" y="671"/>
      <point x="212" y="671" type="qcurve" smooth="yes"/>
      <point x="195" y="671"/>
      <point x="166" y="655"/>
      <point x="151" y="641" type="qcurve"/>
      <point x="126" y="670" type="line"/>
      <point x="162" y="718"/>
      <point x="215" y="718" type="qcurve" smooth="yes"/>
      <point x="238" y="718"/>
      <point x="274" y="702"/>
      <point x="317" y="676"/>
      <point x="348" y="665"/>
      <point x="362" y="665" type="qcurve" smooth="yes"/>
      <point x="379" y="665"/>
      <point x="408" y="681"/>
      <point x="423" y="695" type="qcurve"/>
      <point x="448" y="666" type="line"/>
      <point x="412" y="618"/>
    </contour>
  </outline>
</glyph>
<glyph name="ocircumflex" format="2">
  <advance width="550"/>
  <unicode hex="00F4"/>
  <outline>
    <contour>
      <point x="275" y="39" type="qcurve" smooth="yes"/>
      <point x="350" y="39"/>
      <point x="437" y="133"/>
      <point x="437" y="224" type="qcurve" smooth="yes"/>
      <point x="437" y="288" type="line" smooth="yes"/>
      <point x="437" y="378"/>
      <point x="350" y="473"/>
      <point x="275" y="473" type="qcurve" smooth="yes"/>
      <point x="200" y="473"/>
      <point x="113" y="379"/>
      <point x="113" y="288" type="qcurve" smooth="yes"/>
      <point x="113" y="224" type="line" smooth="yes"/>
      <point x="113" y="134"/>
      <point x="200" y="39"/>
    </contour>
    <contour>
      <point x="275" y="-12" type="qcurve" smooth="yes"/>
      <point x="173" y="-12"/>
      <point x="52" y="130"/>
      <point x="52" y="256" type="qcurve" smooth="yes"/>
      <point x="52" y="382"/>
      <point x="173" y="524"/>
      <point x="275" y="524" type="qcurve" smooth="yes"/>
      <point x="377" y="524"/>
      <point x="498" y="382"/>
      <point x="498" y="256" type="qcurve" smooth="yes"/>
      <point x="498" y="130"/>
      <point x="377" y="-12"/>
    </contour>
    <contour>
      <point x="276" y="715" type="line"/>
      <point x="155" y="594" type="line"/>
      <point x="123" y="617" type="line"/>
      <point x="241" y="756" type="line"/>
      <point x="311" y="756" type="line"/>
      <point x="429" y="617" type="line"/>
      <point x="397" y="594" type="line"/>
    </contour>
  </outline>
</glyph>
<glyph name="otilde" format="2">
  <advance width="550"/>
  <unicode hex="00F5"/>
  <outline>
    <contour>
      <point x="275" y="39" type="qcurve" smooth="yes"/>
      <point x="350" y="39"/>
      <point x="437" y="133"/>
      <point x="437" y="224" type="qcurve" smooth="yes"/>
      <point x="437" y="288" type="line" smooth="yes"/>
      <point x="437" y="378"/>
      <point x="350" y="473"/>
      <point x="275" y="473" type="qcurve" smooth="yes"/>
      <point x="200" y="473"/>
      <point x="113" y="379"/>
      <point x="113" y="288" type="qcurve" smooth="yes"/>
      <point x="113" y="224" type="line" smooth="yes"/>
      <point x="113" y="134"/>
      <point x="200" y="39"/>
    </contour>
    <contour>
      <point x="275" y="-12" type="qcurve" smooth="yes"/>
      <point x="173" y="-12"/>
      <point x="52" y="130"/>
      <point x="52" y="256" type="qcurve" smooth="yes"/>
      <point x="52" y="382"/>
      <point x="173" y="524"/>
      <point x="275" y="524" type="qcurve" smooth="yes"/>
      <point x="377" y="524"/>
      <point x="498" y="382"/>
      <point x="498" y="256" type="qcurve" smooth="yes"/>
      <point x="498" y="130"/>
      <point x="377" y="-12"/>
    </contour>
    <contour>
      <point x="348" y="618" type="qcurve" smooth="yes"/>
      <point x="325" y="618"/>
      <point x="289" y="634"/>
      <point x="246" y="660"/>
      <point x="215" y="671"/>
      <point x="201" y="671" type="qcurve" smooth="yes"/>
      <point x="184" y="671"/>
      <point x="155" y="655"/>
      <point x="140" y="641" type="qcurve"/>
      <point x="115" y="670" type="line"/>
      <point x="151" y="718"/>
      <point x="204" y="718" type="qcurve" smooth="yes"/>
      <point x="227" y="718"/>
      <point x="263" y="702"/>
      <point x="306" y="676"/>
      <point x="337" y="665"/>
      <point x="351" y="665" type="qcurve" smooth="yes"/>
      <point x="368" y="665"/>
      <point x="397" y="681"/>
      <point x="412" y="695" type="qcurve"/>
      <point x="437" y="666" type="line"/>
      <point x="401" y="618"/>
    </contour>
  </outline>
</glyph>
<glyph name="divide" format="2">
  <advance width="600"/>
  <unicode hex="00F7"/>
  <outline>
    <contour>
      <point x="300" y="63" type="qcurve" smooth="yes"/>
      <point x="249" y="63"/>
      <point x="249" y="103" type="qcurve" smooth="yes"/>
      <point x="249" y="120" type="line" smooth="yes"/>
      <point x="249" y="159"/>
      <point x="300" y="159" type="qcurve" smooth="yes"/>
      <point x="351" y="159"/>
      <point x="351" y="120" type="qcurve" smooth="yes"/>
      <point x="351" y="103" type="line" smooth="yes"/>
      <point x="351" y="63"/>
    </contour>
    <contour>
      <point x="300" y="451" type="qcurve" smooth="yes"/>
      <point x="249" y="451"/>
      <point x="249" y="491" type="qcurve" smooth="yes"/>
      <point x="249" y="507" type="line" smooth="yes"/>
      <point x="249" y="547"/>
      <point x="300" y="547" type="qcurve" smooth="yes"/>
      <point x="351" y="547"/>
      <point x="351" y="507" type="qcurve" smooth="yes"/>
      <point x="351" y="491" type="line" smooth="yes"/>
      <point x="351" y="451"/>
    </contour>
    <contour>
      <point x="65" y="281" type="line"/>
      <point x="65" y="330" type="line"/>
      <point x="535" y="330" type="line"/>
      <point x="535" y="281" type="line"/>
    </contour>
  </outline>
</glyph>
<glyph name="oslash" format="2">
  <advance width="556"/>
  <unicode hex="00F8"/>
  <outline>
    <contour>
      <point x="36" y="-10" type="line"/>
      <point x="104" y="74" type="line"/>
      <point x="55" y="142"/>
      <point x="55" y="256" type="qcurve" smooth="yes"/>
      <point x="55" y="382"/>
      <point x="176" y="524"/>
      <point x="278" y="524" type="qcurve" smooth="yes"/>
      <point x="365" y="524"/>
      <point x="424" y="470" type="qcurve"/>
      <point x="489" y="551" type="line"/>
      <point x="521" y="526" type="line"/>
      <point x="451" y="439" type="line"/>
      <point x="501" y="370"/>
      <point x="501" y="256" type="qcurve" smooth="yes"/>
      <point x="501" y="130"/>
      <point x="380" y="-12"/>
      <point x="278" y="-12" type="qcurve" smooth="yes"/>
      <point x="190" y="-12"/>
      <point x="131" y="43" type="qcurve"/>
      <point x="69" y="-35" type="line"/>
    </contour>
    <contour>
      <point x="391" y="430" type="line"/>
      <point x="350" y="473"/>
      <point x="278" y="473" type="qcurve" smooth="yes"/>
      <point x="203" y="473"/>
      <point x="116" y="379"/>
      <point x="116" y="288" type="qcurve" smooth="yes"/>
      <point x="116" y="224" type="line" smooth="yes"/>
      <point x="116" y="161"/>
      <point x="139" y="117" type="qcurve"/>
    </contour>
    <contour>
      <point x="278" y="39" type="qcurve" smooth="yes"/>
      <point x="353" y="39"/>
      <point x="440" y="133"/>
      <point x="440" y="224" type="qcurve" smooth="yes"/>
      <point x="440" y="288" type="line" smooth="yes"/>
      <point x="440" y="354"/>
      <point x="416" y="396" type="qcurve"/>
      <point x="164" y="83" type="line"/>
      <point x="206" y="39"/>
    </contour>
  </outline>
</glyph>
<glyph name="uacute" format="2">
  <advance width="563"/>
  <unicode hex="00FA"/>
  <outline>
    <contour>
      <point x="260" y="-12" type="qcurve" smooth="yes"/>
      <point x="178" y="-12"/>
      <point x="86" y="89"/>
      <point x="86" y="183" type="qcurve" smooth="yes"/>
      <point x="86" y="512" type="line"/>
      <point x="143" y="512" type="line"/>
      <point x="143" y="194" type="line" smooth="yes"/>
      <point x="143" y="39"/>
      <point x="275" y="39" type="qcurve" smooth="yes"/>
      <point x="329" y="39"/>
      <point x="413" y="95"/>
      <point x="413" y="153" type="qcurve" smooth="yes"/>
      <point x="413" y="512" type="line"/>
      <point x="470" y="512" type="line"/>
      <point x="470" y="0" type="line"/>
      <point x="413" y="0" type="line"/>
      <point x="413" y="81" type="line"/>
      <point x="409" y="81" type="line"/>
      <point x="396" y="43"/>
      <point x="360" y="17" type="qcurve" smooth="yes"/>
      <point x="320" y="-12"/>
    </contour>
    <contour>
      <point x="239" y="604" type="line"/>
      <point x="334" y="768" type="line"/>
      <point x="386" y="742" type="line"/>
      <point x="276" y="586" type="line"/>
    </contour>
  </outline>
</glyph>
<glyph name="ucircumflex" format="2">
  <advance width="563"/>
  <unicode hex="00FB"/>
  <outline>
    <contour>
      <point x="279" y="715" type="line"/>
      <point x="158" y="594" type="line"/>
      <point x="126" y="617" type="line"/>
      <point x="244" y="756" type="line"/>
      <point x="314" y="756" type="line"/>
      <point x="432" y="617" type="line"/>
      <point x="400" y="594" type="line"/>
    </contour>
    <contour>
      <point x="260" y="-12" type="qcurve" smooth="yes"/>
      <point x="178" y="-12"/>
      <point x="86" y="89"/>
      <point x="86" y="183" type="qcurve" smooth="yes"/>
      <point x="86" y="512" type="line"/>
      <point x="143" y="512" type="line"/>
      <point x="143" y="194" type="line" smooth="yes"/>
      <point x="143" y="39"/>
      <point x="275" y="39" type="qcurve" smooth="yes"/>
      <point x="329" y="39"/>
      <point x="413" y="95"/>
      <point x="413" y="153" type="qcurve" smooth="yes"/>
      <point x="413" y="512" type="line"/>
      <point x="470" y="512" type="line"/>
      <point x="470" y="0" type="line"/>
      <point x="413" y="0" type="line"/>
      <point x="413" y="81" type="line"/>
      <point x="409" y="81" type="line"/>
      <point x="396" y="43"/>
      <point x="360" y="17" type="qcurve" smooth="yes"/>
      <point x="320" y="-12"/>
    </contour>
  </outline>
</glyph>
<glyph name="ydieresis" format="2">
  <advance width="481"/>
  <unicode hex="00FF"/>
  <outline>
    <contour>
      <point x="150" y="627" type="qcurve" smooth="yes"/>
      <point x="111" y="627"/>
      <point x="111" y="663" type="qcurve" smooth="yes"/>
      <point x="111" y="673" type="line" smooth="yes"/>
      <point x="111" y="709"/>
      <point x="150" y="709" type="qcurve" smooth="yes"/>
      <point x="170" y="709"/>
      <point x="189" y="689"/>
      <point x="189" y="673" type="qcurve" smooth="yes"/>
      <point x="189" y="663" type="line" smooth="yes"/>
      <point x="189" y="647"/>
      <point x="170" y="627"/>
    </contour>
    <contour>
      <point x="334" y="627" type="qcurve" smooth="yes"/>
      <point x="314" y="627"/>
      <point x="295" y="647"/>
      <point x="295" y="663" type="qcurve" smooth="yes"/>
      <point x="295" y="673" type="line" smooth="yes"/>
      <point x="295" y="689"/>
      <point x="314" y="709"/>
      <point x="334" y="709" type="qcurve" smooth="yes"/>
      <point x="373" y="709"/>
      <point x="373" y="673" type="qcurve" smooth="yes"/>
      <point x="373" y="663" type="line" smooth="yes"/>
      <point x="373" y="627"/>
    </contour>
    <contour>
      <point x="77" y="-200" type="line"/>
      <point x="77" y="-150" type="line"/>
      <point x="163" y="-150" type="line"/>
      <point x="212" y="-15" type="line"/>
      <point x="22" y="512" type="line"/>
      <point x="82" y="512" type="line"/>
      <point x="239" y="61" type="line"/>
      <point x="243" y="61" type="line"/>
      <point x="399" y="512" type="line"/>
      <point x="457" y="512" type="line"/>
      <point x="220" y="-144" type="line" smooth="yes"/>
      <point x="209" y="-176"/>
      <point x="174" y="-200"/>
      <point x="135" y="-200" type="qcurve" smooth="yes"/>
    </contour>
  </outline>
</glyph>
<glyph name="Abreve" format="2">
  <advance width="625"/>
  <unicode hex="0102"/>
  <outline>
    <contour>
      <point x="313" y="641" type="line"/>
      <point x="309" y="641" type="line"/>
      <point x="178" y="269" type="line"/>
      <point x="444" y="269" type="line"/>
    </contour>
    <contour>
      <point x="536" y="0" type="line"/>
      <point x="460" y="217" type="line"/>
      <point x="163" y="217" type="line"/>
      <point x="87" y="0" type="line"/>
      <point x="27" y="0" type="line"/>
      <point x="274" y="698" type="line"/>
      <point x="351" y="698" type="line"/>
      <point x="599" y="0" type="line"/>
    </contour>
    <contour>
      <point x="313" y="774" type="qcurve" smooth="yes"/>
      <point x="250" y="774"/>
      <point x="186" y="848"/>
      <point x="169" y="896" type="qcurve"/>
      <point x="202" y="912" type="line"/>
      <point x="221" y="881" type="line"/>
      <point x="239" y="849"/>
      <point x="277" y="820"/>
      <point x="313" y="820" type="qcurve" smooth="yes"/>
      <point x="349" y="820"/>
      <point x="387" y="849"/>
      <point x="405" y="881" type="qcurve"/>
      <point x="424" y="912" type="line"/>
      <point x="457" y="896" type="line"/>
      <point x="426" y="808"/>
      <point x="371" y="784" type="qcurve" smooth="yes"/>
      <point x="347" y="774"/>
    </contour>
  </outline>
</glyph>
<glyph name="Aogonek" format="2">
  <advance width="625"/>
  <unicode hex="0104"/>
  <outline>
    <contour>
      <point x="538" y="-205" type="qcurve" smooth="yes"/>
      <point x="500" y="-205"/>
      <point x="449" y="-169"/>
      <point x="449" y="-132" type="qcurve" smooth="yes"/>
      <point x="449" y="-97"/>
      <point x="503" y="-34"/>
      <point x="553" y="-2" type="qcurve"/>
      <point x="552" y="0" type="line"/>
      <point x="536" y="0" type="line"/>
      <point x="460" y="217" type="line"/>
      <point x="163" y="217" type="line"/>
      <point x="87" y="0" type="line"/>
      <point x="27" y="0" type="line"/>
      <point x="274" y="698" type="line"/>
      <point x="351" y="698" type="line"/>
      <point x="599" y="0" type="line"/>
      <point x="540" y="-48"/>
      <point x="496" y="-103"/>
      <point x="496" y="-127" type="qcurve" smooth="yes"/>
      <point x="496" y="-165"/>
      <point x="538" y="-165" type="qcurve" smooth="yes"/>
      <point x="574" y="-165"/>
      <point x="591" y="-141" type="qcurve"/>
      <point x="621" y="-169" type="line"/>
      <point x="598" y="-205"/>
    </contour>
    <contour>
      <point x="313" y="641" type="line"/>
      <point x="309" y="641" type="line"/>
      <point x="178" y="269" type="line"/>
      <point x="445" y="269" type="line"/>
    </contour>
  </outline>
</glyph>
<glyph name="cdot" format="2">
  <advance width="497"/>
  <unicode hex="010B"/>
  <outline>
    <contour>
      <point x="275" y="626" type="qcurve" smooth="yes"/>
      <point x="255" y="626"/>
      <point x="235" y="646"/>
      <point x="235" y="662" type="qcurve" smooth="yes"/>
      <point x="235" y="672" type="line" smooth="yes"/>
      <point x="235" y="708"/>
      <point x="275" y="708" type="qcurve" smooth="yes"/>
      <point x="295" y="708"/>
      <point x="315" y="688"/>
      <point x="315" y="672" type="qcurve" smooth="yes"/>
      <point x="315" y="660" type="line" smooth="yes"/>
      <point x="315" y="626"/>
    </contour>
    <contour>
      <point x="273" y="-12" type="qcurve" smooth="yes"/>
      <point x="167" y="-12"/>
      <point x="52" y="128"/>
      <point x="52" y="256" type="qcurve" smooth="yes"/>
      <point x="52" y="384"/>
      <point x="167" y="524"/>
      <point x="273" y="524" type="qcurve" smooth="yes"/>
      <point x="405" y="524"/>
      <point x="455" y="411" type="qcurve"/>
      <point x="407" y="387" type="line"/>
      <point x="371" y="473"/>
      <point x="273" y="473" type="qcurve" smooth="yes"/>
      <point x="195" y="473"/>
      <point x="113" y="373"/>
      <point x="113" y="292" type="qcurve" smooth="yes"/>
      <point x="113" y="220" type="line" smooth="yes"/>
      <point x="113" y="139"/>
      <point x="195" y="39"/>
      <point x="273" y="39" type="qcurve" smooth="yes"/>
      <point x="375" y="39"/>
      <point x="420" y="128" type="qcurve"/>
      <point x="462" y="100" type="line"/>
      <point x="409" y="-12"/>
    </contour>
  </outline>
</glyph>
<glyph name="Dcaron" format="2">
  <advance width="666"/>
  <unicode hex="010E"/>
  <outline>
    <contour>
      <point x="322" y="53" type="line" smooth="yes"/>
      <point x="425" y="53"/>
      <point x="539" y="186"/>
      <point x="539" y="303" type="qcurve" smooth="yes"/>
      <point x="539" y="395" type="line" smooth="yes"/>
      <point x="539" y="512"/>
      <point x="425" y="645"/>
      <point x="322" y="645" type="qcurve" smooth="yes"/>
      <point x="159" y="645" type="line"/>
      <point x="159" y="53" type="line"/>
    </contour>
    <contour>
      <point x="99" y="0" type="line"/>
      <point x="99" y="698" type="line"/>
      <point x="321" y="698" type="line" smooth="yes"/>
      <point x="456" y="698"/>
      <point x="603" y="524"/>
      <point x="603" y="349" type="qcurve" smooth="yes"/>
      <point x="603" y="174"/>
      <point x="456" y="0"/>
      <point x="321" y="0" type="qcurve" smooth="yes"/>
    </contour>
    <contour>
      <point x="269" y="774" type="line"/>
      <point x="151" y="914" type="line"/>
      <point x="183" y="937" type="line"/>
      <point x="304" y="816" type="line"/>
      <point x="425" y="937" type="line"/>
      <point x="457" y="914" type="line"/>
      <point x="339" y="774" type="line"/>
    </contour>
  </outline>
</glyph>
<glyph name="Dcroat" format="2">
  <advance width="669"/>
  <unicode hex="0110"/>
  <outline>
    <contour>
      <point x="325" y="53" type="line" smooth="yes"/>
      <point x="428" y="53"/>
      <point x="542" y="186"/>
      <point x="542" y="303" type="qcurve" smooth="yes"/>
      <point x="542" y="395" type="line" smooth="yes"/>
      <point x="542" y="512"/>
      <point x="428" y="645"/>
      <point x="325" y="645" type="qcurve" smooth="yes"/>
      <point x="162" y="645" type="line"/>
      <point x="162" y="392" type="line"/>
      <point x="312" y="392" type="line"/>
      <point x="312" y="346" type="line"/>
      <point x="162" y="346" type="line"/>
      <point x="162" y="53" type="line"/>
    </contour>
    <contour>
      <point x="102" y="0" type="line"/>
      <point x="102" y="346" type="line"/>
      <point x="21" y="346" type="line"/>
      <point x="21" y="392" type="line"/>
      <point x="102" y="392" type="line"/>
      <point x="102" y="698" type="line"/>
      <point x="324" y="698" type="line" smooth="yes"/>
      <point x="459" y="698"/>
      <point x="606" y="524"/>
      <point x="606" y="349" type="qcurve" smooth="yes"/>
      <point x="606" y="174"/>
      <point x="459" y="0"/>
      <point x="324" y="0" type="qcurve" smooth="yes"/>
    </contour>
  </outline>
</glyph>
<glyph name="Ebreve" format="2">
  <advance width="574"/>
  <unicode hex="0114"/>
  <outline>
    <contour>
      <point x="99" y="0" type="line"/>
      <point x="99" y="698" type="line"/>
      <point x="507" y="698" type="line"/>
      <point x="507" y="645" type="line"/>
      <point x="159" y="645" type="line"/>
      <point x="159" y="381" type="line"/>
      <point x="490" y="381" type="line"/>
      <point x="490" y="328" type="line"/>
      <point x="159" y="328" type="line"/>
      <point x="159" y="53" type="line"/>
      <point x="507" y="53" type="line"/>
      <point x="507" y="0" type="line"/>
    </contour>
    <contour>
      <point x="302" y="774" type="qcurve" smooth="yes"/>
      <point x="239" y="774"/>
      <point x="175" y="848"/>
      <point x="158" y="896" type="qcurve"/>
      <point x="191" y="912" type="line"/>
      <point x="210" y="881" type="line"/>
      <point x="228" y="849"/>
      <point x="266" y="820"/>
      <point x="302" y="820" type="qcurve" smooth="yes"/>
      <point x="338" y="820"/>
      <point x="376" y="849"/>
      <point x="394" y="881" type="qcurve"/>
      <point x="413" y="912" type="line"/>
      <point x="446" y="896" type="line"/>
      <point x="415" y="808"/>
      <point x="360" y="784" type="qcurve" smooth="yes"/>
      <point x="336" y="774"/>
    </contour>
  </outline>
</glyph>
<glyph name="Ecaron" format="2">
  <advance width="574"/>
  <unicode hex="011A"/>
  <outline>
    <contour>
      <point x="99" y="0" type="line"/>
      <point x="99" y="698" type="line"/>
      <point x="507" y="698" type="line"/>
      <point x="507" y="645" type="line"/>
      <point x="159" y="645" type="line"/>
      <point x="159" y="381" type="line"/>
      <point x="490" y="381" type="line"/>
      <point x="490" y="328" type="line"/>
      <point x="159" y="328" type="line"/>
      <point x="159" y="53" type="line"/>
      <point x="507" y="53" type="line"/>
      <point x="507" y="0" type="line"/>
    </contour>
    <contour>
      <point x="267" y="774" type="line"/>
      <point x="149" y="914" type="line"/>
      <point x="181" y="937" type="line"/>
      <point x="302" y="816" type="line"/>
      <point x="423" y="937" type="line"/>
      <point x="455" y="914" type="line"/>
      <point x="337" y="774" type="line"/>
    </contour>
  </outline>
</glyph>
<glyph name="Gdot" format="2">
  <advance width="665"/>
  <unicode hex="0120"/>
  <outline>
    <contour>
      <point x="349" y="794" type="qcurve" smooth="yes"/>
      <point x="326" y="794"/>
      <point x="304" y="818"/>
      <point x="304" y="836" type="qcurve" smooth="yes"/>
      <point x="304" y="848" type="line" smooth="yes"/>
      <point x="304" y="867"/>
      <point x="326" y="890"/>
      <point x="349" y="890" type="qcurve" smooth="yes"/>
      <point x="373" y="890"/>
      <point x="394" y="867"/>
      <point x="394" y="848" type="qcurve" smooth="yes"/>
      <point x="394" y="836" type="line" smooth="yes"/>
      <point x="394" y="818"/>
      <point x="373" y="794"/>
    </contour>
    <contour>
      <point x="55" y="349" type="qcurve" smooth="yes"/>
      <point x="55" y="530"/>
      <point x="203" y="710"/>
      <point x="337" y="710" type="qcurve" smooth="yes"/>
      <point x="422" y="710"/>
      <point x="549" y="632"/>
      <point x="581" y="560" type="qcurve"/>
      <point x="530" y="530" type="line"/>
      <point x="506" y="590"/>
      <point x="409" y="655"/>
      <point x="337" y="655" type="qcurve" smooth="yes"/>
      <point x="235" y="655"/>
      <point x="122" y="519"/>
      <point x="122" y="394" type="qcurve" smooth="yes"/>
      <point x="122" y="323" type="line" smooth="yes"/>
      <point x="122" y="261"/>
      <point x="146" y="158"/>
      <point x="198" y="84"/>
      <point x="282" y="43"/>
      <point x="341" y="43" type="qcurve" smooth="yes"/>
      <point x="383" y="43"/>
      <point x="454" y="66"/>
      <point x="506" y="111"/>
      <point x="536" y="179"/>
      <point x="536" y="224" type="qcurve" smooth="yes"/>
      <point x="536" y="293" type="line"/>
      <point x="334" y="293" type="line"/>
      <point x="334" y="349" type="line"/>
      <point x="597" y="349" type="line"/>
      <point x="597" y="261" type="line" smooth="yes"/>
      <point x="597" y="165"/>
      <point x="529" y="37"/>
      <point x="447" y="7" type="qcurve" smooth="yes"/>
      <point x="420" y="-3"/>
      <point x="362" y="-12"/>
      <point x="333" y="-12" type="qcurve" smooth="yes"/>
      <point x="273" y="-12"/>
      <point x="171" y="30"/>
      <point x="97" y="118"/>
      <point x="55" y="254"/>
    </contour>
  </outline>
</glyph>
<glyph name="Hcircumflex" format="2">
  <advance width="701"/>
  <unicode hex="0124"/>
  <outline>
    <contour>
      <point x="351" y="888" type="line"/>
      <point x="230" y="768" type="line"/>
      <point x="198" y="791" type="line"/>
      <point x="316" y="930" type="line"/>
      <point x="386" y="930" type="line"/>
      <point x="504" y="791" type="line"/>
      <point x="472" y="768" type="line"/>
    </contour>
    <contour>
      <point x="542" y="0" type="line"/>
      <point x="542" y="328" type="line"/>
      <point x="159" y="328" type="line"/>
      <point x="159" y="0" type="line"/>
      <point x="99" y="0" type="line"/>
      <point x="99" y="698" type="line"/>
      <point x="159" y="698" type="line"/>
      <point x="159" y="381" type="line"/>
      <point x="542" y="381" type="line"/>
      <point x="542" y="698" type="line"/>
      <point x="602" y="698" type="line"/>
      <point x="602" y="0" type="line"/>
    </contour>
  </outline>
</glyph>
<glyph name="Itilde" format="2">
  <advance width="278"/>
  <unicode hex="0128"/>
  <outline>
    <contour>
      <point x="109" y="0" type="line"/>
      <point x="109" y="698" type="line"/>
      <point x="169" y="698" type="line"/>
      <point x="169" y="0" type="line"/>
    </contour>
    <contour>
      <point x="211" y="792" type="qcurve" smooth="yes"/>
      <point x="189" y="792"/>
      <point x="153" y="808"/>
      <point x="132" y="820" type="qcurve"/>
      <point x="93" y="844"/>
      <point x="64" y="844" type="qcurve" smooth="yes"/>
      <point x="30" y="844"/>
      <point x="3" y="815" type="qcurve"/>
      <point x="-22" y="844" type="line"/>
      <point x="14" y="892"/>
      <point x="67" y="892" type="qcurve" smooth="yes"/>
      <point x="89" y="892"/>
      <point x="125" y="876"/>
      <point x="146" y="864" type="qcurve" smooth="yes"/>
      <point x="186" y="840"/>
      <point x="214" y="840" type="qcurve" smooth="yes"/>
      <point x="249" y="840"/>
      <point x="275" y="869" type="qcurve"/>
      <point x="300" y="840" type="line"/>
      <point x="264" y="792"/>
    </contour>
  </outline>
</glyph>
<glyph name="itilde" format="2">
  <advance width="243"/>
  <unicode hex="0129"/>
  <outline>
    <contour>
      <point x="93" y="0" type="line"/>
      <point x="93" y="512" type="line"/>
      <point x="150" y="512" type="line"/>
      <point x="150" y="0" type="line"/>
    </contour>
    <contour>
      <point x="194" y="618" type="qcurve" smooth="yes"/>
      <point x="171" y="618"/>
      <point x="135" y="634"/>
      <point x="92" y="660"/>
      <point x="61" y="671"/>
      <point x="47" y="671" type="qcurve" smooth="yes"/>
      <point x="30" y="671"/>
      <point x="1" y="655"/>
      <point x="-14" y="641" type="qcurve"/>
      <point x="-39" y="670" type="line"/>
      <point x="-3" y="718"/>
      <point x="50" y="718" type="qcurve" smooth="yes"/>
      <point x="73" y="718"/>
      <point x="109" y="702"/>
      <point x="152" y="676"/>
      <point x="183" y="665"/>
      <point x="197" y="665" type="qcurve" smooth="yes"/>
      <point x="214" y="665"/>
      <point x="243" y="681"/>
      <point x="258" y="695" type="qcurve"/>
      <point x="283" y="666" type="line"/>
      <point x="247" y="618"/>
    </contour>
  </outline>
</glyph>
<glyph name="ibreve" format="2">
  <advance width="243"/>
  <unicode hex="012D"/>
  <outline>
    <contour>
      <point x="122" y="600" type="qcurve" smooth="yes"/>
      <point x="59" y="600"/>
      <point x="-5" y="674"/>
      <point x="-22" y="722" type="qcurve"/>
      <point x="11" y="738" type="line"/>
      <point x="30" y="707" type="line"/>
      <point x="48" y="675"/>
      <point x="86" y="646"/>
      <point x="122" y="646" type="qcurve" smooth="yes"/>
      <point x="158" y="646"/>
      <point x="196" y="675"/>
      <point x="214" y="707" type="qcurve"/>
      <point x="233" y="738" type="line"/>
      <point x="266" y="722" type="line"/>
      <point x="235" y="634"/>
      <point x="180" y="610" type="qcurve" smooth="yes"/>
      <point x="156" y="600"/>
    </contour>
    <contour>
      <point x="93" y="0" type="line"/>
      <point x="93" y="512" type="line"/>
      <point x="150" y="512" type="line"/>
      <point x="150" y="0" type="line"/>
    </contour>
  </outline>
</glyph>
<glyph name="ij" format="2">
  <advance width="486"/>
  <unicode hex="0133"/>
  <outline>
    <contour>
      <point x="251" y="-200" type="line"/>
      <point x="251" y="-150" type="line"/>
      <point x="336" y="-150" type="line"/>
      <point x="336" y="512" type="line"/>
      <point x="393" y="512" type="line"/>
      <point x="393" y="-115" type="line" smooth="yes"/>
      <point x="393" y="-200"/>
      <point x="313" y="-200" type="qcurve" smooth="yes"/>
    </contour>
    <contour>
      <point x="121" y="651" type="qcurve" smooth="yes"/>
      <point x="101" y="651"/>
      <point x="82" y="671"/>
      <point x="82" y="687" type="qcurve" smooth="yes"/>
      <point x="82" y="697" type="line" smooth="yes"/>
      <point x="82" y="713"/>
      <point x="101" y="733"/>
      <point x="121" y="733" type="qcurve" smooth="yes"/>
      <point x="141" y="733"/>
      <point x="160" y="713"/>
      <point x="160" y="697" type="qcurve" smooth="yes"/>
      <point x="160" y="687" type="line" smooth="yes"/>
      <point x="160" y="671"/>
      <point x="141" y="651"/>
    </contour>
    <contour>
      <point x="364" y="651" type="qcurve" smooth="yes"/>
      <point x="344" y="651"/>
      <point x="325" y="671"/>
      <point x="325" y="687" type="qcurve" smooth="yes"/>
      <point x="325" y="697" type="line" smooth="yes"/>
      <point x="325" y="713"/>
      <point x="344" y="733"/>
      <point x="364" y="733" type="qcurve" smooth="yes"/>
      <point x="384" y="733"/>
      <point x="403" y="713"/>
      <point x="403" y="697" type="qcurve" smooth="yes"/>
      <point x="403" y="687" type="line" smooth="yes"/>
      <point x="403" y="671"/>
      <point x="384" y="651"/>
    </contour>
    <contour>
      <point x="93" y="0" type="line"/>
      <point x="93" y="512" type="line"/>
      <point x="150" y="512" type="line"/>
      <point x="150" y="0" type="line"/>
    </contour>
  </outline>
</glyph>
<glyph name="lacute" format="2">
  <advance width="264"/>
  <unicode hex="013A"/>
  <outline>
    <contour>
      <point x="156" y="0" type="line" smooth="yes"/>
      <point x="125" y="0"/>
      <point x="93" y="34"/>
      <point x="93" y="62" type="qcurve" smooth="yes"/>
      <point x="93" y="740" type="line"/>
      <point x="150" y="740" type="line"/>
      <point x="150" y="50" type="line"/>
      <point x="229" y="50" type="line"/>
      <point x="229" y="0" type="line"/>
    </contour>
    <contour>
      <point x="82" y="804" type="line"/>
      <point x="177" y="968" type="line"/>
      <point x="229" y="942" type="line"/>
      <point x="119" y="786" type="line"/>
    </contour>
  </outline>
</glyph>
<glyph name="u013B" format="2">
  <advance width="491"/>
  <unicode hex="013B"/>
  <outline>
    <contour>
      <point x="240" y="-232" type="line"/>
      <point x="279" y="-190"/>
      <point x="288" y="-147" type="qcurve"/>
      <point x="256" y="-140"/>
      <point x="256" y="-112" type="qcurve" smooth="yes"/>
      <point x="256" y="-103" type="line" smooth="yes"/>
      <point x="256" y="-66"/>
      <point x="298" y="-66" type="qcurve" smooth="yes"/>
      <point x="336" y="-66"/>
      <point x="336" y="-103" type="qcurve" smooth="yes"/>
      <point x="336" y="-114" type="line" smooth="yes"/>
      <point x="336" y="-178"/>
      <point x="282" y="-232" type="qcurve"/>
    </contour>
    <contour>
      <point x="99" y="0" type="line"/>
      <point x="99" y="698" type="line"/>
      <point x="159" y="698" type="line"/>
      <point x="159" y="53" type="line"/>
      <point x="467" y="53" type="line"/>
      <point x="467" y="0" type="line"/>
    </contour>
  </outline>
</glyph>
<glyph name="u013C" format="2">
  <advance width="264"/>
  <unicode hex="013C"/>
  <outline>
    <contour>
      <point x="107" y="-232" type="line"/>
      <point x="146" y="-190"/>
      <point x="155" y="-147" type="qcurve"/>
      <point x="123" y="-140"/>
      <point x="123" y="-112" type="qcurve" smooth="yes"/>
      <point x="123" y="-103" type="line" smooth="yes"/>
      <point x="123" y="-66"/>
      <point x="165" y="-66" type="qcurve" smooth="yes"/>
      <point x="203" y="-66"/>
      <point x="203" y="-103" type="qcurve" smooth="yes"/>
      <point x="203" y="-114" type="line" smooth="yes"/>
      <point x="203" y="-178"/>
      <point x="149" y="-232" type="qcurve"/>
    </contour>
    <contour>
      <point x="156" y="0" type="line" smooth="yes"/>
      <point x="125" y="0"/>
      <point x="93" y="34"/>
      <point x="93" y="62" type="qcurve" smooth="yes"/>
      <point x="93" y="740" type="line"/>
      <point x="150" y="740" type="line"/>
      <point x="150" y="50" type="line"/>
      <point x="229" y="50" type="line"/>
      <point x="229" y="0" type="line"/>
    </contour>
  </outline>
</glyph>
<glyph name="Nacute" format="2">
  <advance width="701"/>
  <unicode hex="0143"/>
  <outline>
    <contour>
      <point x="527" y="0" type="line"/>
      <point x="160" y="616" type="line"/>
      <point x="157" y="616" type="line"/>
      <point x="157" y="0" type="line"/>
      <point x="99" y="0" type="line"/>
      <point x="99" y="698" type="line"/>
      <point x="174" y="698" type="line"/>
      <point x="541" y="82" type="line"/>
      <point x="544" y="82" type="line"/>
      <point x="544" y="698" type="line"/>
      <point x="602" y="698" type="line"/>
      <point x="602" y="0" type="line"/>
    </contour>
    <contour>
      <point x="310" y="778" type="line"/>
      <point x="405" y="942" type="line"/>
      <point x="457" y="916" type="line"/>
      <point x="347" y="760" type="line"/>
    </contour>
  </outline>
</glyph>
<glyph name="Ncommaaccent" format="2">
  <advance width="701"/>
  <unicode hex="0145"/>
  <outline>
    <contour>
      <point x="294" y="-232" type="line"/>
      <point x="333" y="-190"/>
      <point x="342" y="-147" type="qcurve"/>
      <point x="310" y="-140"/>
      <point x="310" y="-112" type="qcurve" smooth="yes"/>
      <point x="310" y="-103" type="line" smooth="yes"/>
      <point x="310" y="-66"/>
      <point x="352" y="-66" type="qcurve" smooth="yes"/>
      <point x="390" y="-66"/>
      <point x="390" y="-103" type="qcurve" smooth="yes"/>
      <point x="390" y="-114" type="line" smooth="yes"/>
      <point x="390" y="-178"/>
      <point x="336" y="-232" type="qcurve"/>
    </contour>
    <contour>
      <point x="527" y="0" type="line"/>
      <point x="160" y="616" type="line"/>
      <point x="157" y="616" type="line"/>
      <point x="157" y="0" type="line"/>
      <point x="99" y="0" type="line"/>
      <point x="99" y="698" type="line"/>
      <point x="174" y="698" type="line"/>
      <point x="541" y="82" type="line"/>
      <point x="544" y="82" type="line"/>
      <point x="544" y="698" type="line"/>
      <point x="602" y="698" type="line"/>
      <point x="602" y="0" type="line"/>
    </contour>
  </outline>
</glyph>
<glyph name="ncedilla" format="2">
  <advance width="563"/>
  <unicode hex="0146"/>
  <outline>
    <contour>
      <point x="420" y="0" type="line"/>
      <point x="420" y="319" type="line" smooth="yes"/>
      <point x="420" y="473"/>
      <point x="289" y="473" type="qcurve" smooth="yes"/>
      <point x="235" y="473"/>
      <point x="150" y="416"/>
      <point x="150" y="360" type="qcurve" smooth="yes"/>
      <point x="150" y="0" type="line"/>
      <point x="93" y="0" type="line"/>
      <point x="93" y="512" type="line"/>
      <point x="150" y="512" type="line"/>
      <point x="150" y="431" type="line"/>
      <point x="153" y="431" type="line"/>
      <point x="191" y="524"/>
      <point x="304" y="524" type="qcurve" smooth="yes"/>
      <point x="386" y="524"/>
      <point x="477" y="423"/>
      <point x="477" y="329" type="qcurve" smooth="yes"/>
      <point x="477" y="0" type="line"/>
    </contour>
    <contour>
      <point x="229" y="-232" type="line"/>
      <point x="268" y="-190"/>
      <point x="277" y="-147" type="qcurve"/>
      <point x="245" y="-140"/>
      <point x="245" y="-112" type="qcurve" smooth="yes"/>
      <point x="245" y="-103" type="line" smooth="yes"/>
      <point x="245" y="-66"/>
      <point x="287" y="-66" type="qcurve" smooth="yes"/>
      <point x="325" y="-66"/>
      <point x="325" y="-103" type="qcurve" smooth="yes"/>
      <point x="325" y="-114" type="line" smooth="yes"/>
      <point x="325" y="-178"/>
      <point x="271" y="-232" type="qcurve"/>
    </contour>
  </outline>
</glyph>
<glyph name="Ncaron" format="2">
  <advance width="701"/>
  <unicode hex="0147"/>
  <outline>
    <contour>
      <point x="315" y="774" type="line"/>
      <point x="197" y="914" type="line"/>
      <point x="229" y="937" type="line"/>
      <point x="350" y="816" type="line"/>
      <point x="471" y="937" type="line"/>
      <point x="503" y="914" type="line"/>
      <point x="385" y="774" type="line"/>
    </contour>
    <contour>
      <point x="527" y="0" type="line"/>
      <point x="160" y="616" type="line"/>
      <point x="157" y="616" type="line"/>
      <point x="157" y="0" type="line"/>
      <point x="99" y="0" type="line"/>
      <point x="99" y="698" type="line"/>
      <point x="174" y="698" type="line"/>
      <point x="541" y="82" type="line"/>
      <point x="544" y="82" type="line"/>
      <point x="544" y="698" type="line"/>
      <point x="602" y="698" type="line"/>
      <point x="602" y="0" type="line"/>
    </contour>
  </outline>
</glyph>
<glyph name="ncaron" format="2">
  <advance width="563"/>
  <unicode hex="0148"/>
  <outline>
    <contour>
      <point x="252" y="601" type="line"/>
      <point x="134" y="740" type="line"/>
      <point x="166" y="763" type="line"/>
      <point x="287" y="642" type="line"/>
      <point x="408" y="763" type="line"/>
      <point x="440" y="740" type="line"/>
      <point x="322" y="601" type="line"/>
    </contour>
    <contour>
      <point x="420" y="0" type="line"/>
      <point x="420" y="319" type="line" smooth="yes"/>
      <point x="420" y="473"/>
      <point x="289" y="473" type="qcurve" smooth="yes"/>
      <point x="235" y="473"/>
      <point x="150" y="416"/>
      <point x="150" y="360" type="qcurve" smooth="yes"/>
      <point x="150" y="0" type="line"/>
      <point x="93" y="0" type="line"/>
      <point x="93" y="512" type="line"/>
      <point x="150" y="512" type="line"/>
      <point x="150" y="431" type="line"/>
      <point x="153" y="431" type="line"/>
      <point x="191" y="524"/>
      <point x="304" y="524" type="qcurve" smooth="yes"/>
      <point x="386" y="524"/>
      <point x="477" y="423"/>
      <point x="477" y="329" type="qcurve" smooth="yes"/>
      <point x="477" y="0" type="line"/>
    </contour>
  </outline>
</glyph>
<glyph name="obreve" format="2">
  <advance width="550"/>
  <unicode hex="014F"/>
  <outline>
    <contour>
      <point x="276" y="600" type="qcurve" smooth="yes"/>
      <point x="213" y="600"/>
      <point x="149" y="674"/>
      <point x="132" y="722" type="qcurve"/>
      <point x="165" y="738" type="line"/>
      <point x="184" y="707" type="line"/>
      <point x="202" y="675"/>
      <point x="240" y="646"/>
      <point x="276" y="646" type="qcurve" smooth="yes"/>
      <point x="312" y="646"/>
      <point x="350" y="675"/>
      <point x="368" y="707" type="qcurve"/>
      <point x="387" y="738" type="line"/>
      <point x="420" y="722" type="line"/>
      <point x="389" y="634"/>
      <point x="334" y="610" type="qcurve" smooth="yes"/>
      <point x="310" y="600"/>
    </contour>
    <contour>
      <point x="275" y="-12" type="qcurve" smooth="yes"/>
      <point x="173" y="-12"/>
      <point x="52" y="130"/>
      <point x="52" y="256" type="qcurve" smooth="yes"/>
      <point x="52" y="382"/>
      <point x="173" y="524"/>
      <point x="275" y="524" type="qcurve" smooth="yes"/>
      <point x="377" y="524"/>
      <point x="498" y="382"/>
      <point x="498" y="256" type="qcurve" smooth="yes"/>
      <point x="498" y="130"/>
      <point x="377" y="-12"/>
    </contour>
    <contour>
      <point x="275" y="39" type="qcurve" smooth="yes"/>
      <point x="350" y="39"/>
      <point x="437" y="133"/>
      <point x="437" y="224" type="qcurve" smooth="yes"/>
      <point x="437" y="288" type="line" smooth="yes"/>
      <point x="437" y="378"/>
      <point x="350" y="473"/>
      <point x="275" y="473" type="qcurve" smooth="yes"/>
      <point x="200" y="473"/>
      <point x="113" y="379"/>
      <point x="113" y="288" type="qcurve" smooth="yes"/>
      <point x="113" y="224" type="line" smooth="yes"/>
      <point x="113" y="134"/>
      <point x="200" y="39"/>
    </contour>
  </outline>
</glyph>
<glyph name="Racute" format="2">
  <advance width="636"/>
  <unicode hex="0154"/>
  <outline>
    <contour>
      <point x="266" y="778" type="line"/>
      <point x="361" y="942" type="line"/>
      <point x="413" y="916" type="line"/>
      <point x="303" y="760" type="line"/>
    </contour>
    <contour>
      <point x="511" y="0" type="line"/>
      <point x="344" y="309" type="line"/>
      <point x="159" y="309" type="line"/>
      <point x="159" y="0" type="line"/>
      <point x="99" y="0" type="line"/>
      <point x="99" y="698" type="line"/>
      <point x="373" y="698" type="line" smooth="yes"/>
      <point x="463" y="698"/>
      <point x="560" y="596"/>
      <point x="560" y="504" type="qcurve" smooth="yes"/>
      <point x="560" y="423"/>
      <point x="481" y="323"/>
      <point x="406" y="313" type="qcurve"/>
      <point x="578" y="0" type="line"/>
    </contour>
    <contour>
      <point x="373" y="360" type="line" smooth="yes"/>
      <point x="433" y="360"/>
      <point x="496" y="427"/>
      <point x="496" y="479" type="qcurve" smooth="yes"/>
      <point x="496" y="527" type="line" smooth="yes"/>
      <point x="496" y="578"/>
      <point x="433" y="645"/>
      <point x="373" y="645" type="qcurve" smooth="yes"/>
      <point x="159" y="645" type="line"/>
      <point x="159" y="360" type="line"/>
    </contour>
  </outline>
</glyph>
<glyph name="rcommaaccent" format="2">
  <advance width="357"/>
  <unicode hex="0157"/>
  <outline>
    <contour>
      <point x="67" y="-232" type="line"/>
      <point x="106" y="-190"/>
      <point x="115" y="-147" type="qcurve"/>
      <point x="83" y="-140"/>
      <point x="83" y="-112" type="qcurve" smooth="yes"/>
      <point x="83" y="-103" type="line" smooth="yes"/>
      <point x="83" y="-66"/>
      <point x="125" y="-66" type="qcurve" smooth="yes"/>
      <point x="163" y="-66"/>
      <point x="163" y="-103" type="qcurve" smooth="yes"/>
      <point x="163" y="-114" type="line" smooth="yes"/>
      <point x="163" y="-178"/>
      <point x="109" y="-232" type="qcurve"/>
    </contour>
    <contour>
      <point x="93" y="0" type="line"/>
      <point x="93" y="512" type="line"/>
      <point x="150" y="512" type="line"/>
      <point x="150" y="420" type="line"/>
      <point x="154" y="420" type="line"/>
      <point x="190" y="512"/>
      <point x="307" y="512" type="qcurve" smooth="yes"/>
      <point x="341" y="512" type="line"/>
      <point x="341" y="456" type="line"/>
      <point x="296" y="456" type="line" smooth="yes"/>
      <point x="232" y="456"/>
      <point x="150" y="400"/>
      <point x="150" y="350" type="qcurve" smooth="yes"/>
      <point x="150" y="0" type="line"/>
    </contour>
  </outline>
</glyph>
<glyph name="scaron" format="2">
  <advance width="477"/>
  <unicode hex="0161"/>
  <outline>
    <contour>
      <point x="238" y="-12" type="qcurve" smooth="yes"/>
      <point x="171" y="-12"/>
      <point x="76" y="38"/>
      <point x="41" y="86" type="qcurve"/>
      <point x="83" y="119" type="line"/>
      <point x="140" y="37"/>
      <point x="242" y="37" type="qcurve"/>
      <point x="365" y="40"/>
      <point x="365" y="134" type="qcurve" smooth="yes"/>
      <point x="365" y="217"/>
      <point x="260" y="230" type="qcurve"/>
      <point x="218" y="237" type="line"/>
      <point x="61" y="257"/>
      <point x="61" y="380" type="qcurve" smooth="yes"/>
      <point x="61" y="452"/>
      <point x="162" y="524"/>
      <point x="235" y="524" type="qcurve" smooth="yes"/>
      <point x="299" y="524"/>
      <point x="381" y="481"/>
      <point x="410" y="445" type="qcurve"/>
      <point x="372" y="410" type="line"/>
      <point x="321" y="475"/>
      <point x="232" y="475" type="qcurve"/>
      <point x="116" y="472"/>
      <point x="116" y="383" type="qcurve" smooth="yes"/>
      <point x="116" y="338"/>
      <point x="171" y="297"/>
      <point x="226" y="289" type="qcurve" smooth="yes"/>
      <point x="267" y="283" type="line" smooth="yes"/>
      <point x="345" y="271"/>
      <point x="420" y="202"/>
      <point x="420" y="140" type="qcurve" smooth="yes"/>
      <point x="420" y="68"/>
      <point x="323" y="-12"/>
    </contour>
    <contour>
      <point x="198" y="601" type="line"/>
      <point x="80" y="740" type="line"/>
      <point x="112" y="763" type="line"/>
      <point x="233" y="642" type="line"/>
      <point x="354" y="763" type="line"/>
      <point x="386" y="740" type="line"/>
      <point x="268" y="601" type="line"/>
    </contour>
  </outline>
</glyph>
<glyph name="tcedilla" format="2">
  <advance width="335"/>
  <unicode hex="0163"/>
  <outline>
    <contour>
      <point x="181" y="0" type="line" smooth="yes"/>
      <point x="150" y="0"/>
      <point x="118" y="34"/>
      <point x="118" y="63" type="qcurve" smooth="yes"/>
      <point x="118" y="462" type="line"/>
      <point x="29" y="462" type="line"/>
      <point x="29" y="512" type="line"/>
      <point x="87" y="512" type="line" smooth="yes"/>
      <point x="108" y="512"/>
      <point x="123" y="529"/>
      <point x="123" y="551" type="qcurve" smooth="yes"/>
      <point x="123" y="655" type="line"/>
      <point x="175" y="655" type="line"/>
      <point x="175" y="512" type="line"/>
      <point x="291" y="512" type="line"/>
      <point x="291" y="462" type="line"/>
      <point x="175" y="462" type="line"/>
      <point x="175" y="50" type="line"/>
      <point x="283" y="50" type="line"/>
      <point x="283" y="0" type="line"/>
    </contour>
    <contour>
      <point x="148" y="-232" type="line"/>
      <point x="187" y="-190"/>
      <point x="196" y="-147" type="qcurve"/>
      <point x="164" y="-140"/>
      <point x="164" y="-112" type="qcurve" smooth="yes"/>
      <point x="164" y="-103" type="line" smooth="yes"/>
      <point x="164" y="-66"/>
      <point x="206" y="-66" type="qcurve" smooth="yes"/>
      <point x="244" y="-66"/>
      <point x="244" y="-103" type="qcurve" smooth="yes"/>
      <point x="244" y="-114" type="line" smooth="yes"/>
      <point x="244" y="-178"/>
      <point x="190" y="-232" type="qcurve"/>
    </contour>
  </outline>
</glyph>
<glyph name="Tcaron" format="2">
  <advance width="568"/>
  <unicode hex="0164"/>
  <outline>
    <contour>
      <point x="254" y="0" type="line"/>
      <point x="254" y="645" type="line"/>
      <point x="20" y="645" type="line"/>
      <point x="20" y="698" type="line"/>
      <point x="548" y="698" type="line"/>
      <point x="548" y="645" type="line"/>
      <point x="314" y="645" type="line"/>
      <point x="314" y="0" type="line"/>
    </contour>
    <contour>
      <point x="250" y="774" type="line"/>
      <point x="132" y="914" type="line"/>
      <point x="164" y="937" type="line"/>
      <point x="285" y="816" type="line"/>
      <point x="406" y="937" type="line"/>
      <point x="438" y="914" type="line"/>
      <point x="320" y="774" type="line"/>
    </contour>
  </outline>
</glyph>
<glyph name="tbar" format="2">
  <advance width="341"/>
  <unicode hex="0167"/>
  <outline>
    <contour>
      <point x="184" y="0" type="line" smooth="yes"/>
      <point x="153" y="0"/>
      <point x="121" y="34"/>
      <point x="121" y="63" type="qcurve" smooth="yes"/>
      <point x="121" y="260" type="line"/>
      <point x="55" y="260" type="line"/>
      <point x="55" y="305" type="line"/>
      <point x="121" y="305" type="line"/>
      <point x="121" y="462" type="line"/>
      <point x="32" y="462" type="line"/>
      <point x="32" y="512" type="line"/>
      <point x="90" y="512" type="line" smooth="yes"/>
      <point x="111" y="512"/>
      <point x="126" y="529"/>
      <point x="126" y="551" type="qcurve" smooth="yes"/>
      <point x="126" y="655" type="line"/>
      <point x="178" y="655" type="line"/>
      <point x="178" y="512" type="line"/>
      <point x="294" y="512" type="line"/>
      <point x="294" y="462" type="line"/>
      <point x="178" y="462" type="line"/>
      <point x="178" y="305" type="line"/>
      <point x="273" y="305" type="line"/>
      <point x="273" y="260" type="line"/>
      <point x="178" y="260" type="line"/>
      <point x="178" y="50" type="line"/>
      <point x="286" y="50" type="line"/>
      <point x="286" y="0" type="line"/>
    </contour>
  </outline>
</glyph>
<glyph name="ubreve" format="2">
  <advance width="563"/>
  <unicode hex="016D"/>
  <outline>
    <contour>
      <point x="279" y="600" type="qcurve" smooth="yes"/>
      <point x="216" y="600"/>
      <point x="152" y="674"/>
      <point x="135" y="722" type="qcurve"/>
      <point x="168" y="738" type="line"/>
      <point x="187" y="707" type="line"/>
      <point x="205" y="675"/>
      <point x="243" y="646"/>
      <point x="279" y="646" type="qcurve" smooth="yes"/>
      <point x="315" y="646"/>
      <point x="353" y="675"/>
      <point x="371" y="707" type="qcurve"/>
      <point x="390" y="738" type="line"/>
      <point x="423" y="722" type="line"/>
      <point x="392" y="634"/>
      <point x="337" y="610" type="qcurve" smooth="yes"/>
      <point x="313" y="600"/>
    </contour>
    <contour>
      <point x="260" y="-12" type="qcurve" smooth="yes"/>
      <point x="178" y="-12"/>
      <point x="86" y="89"/>
      <point x="86" y="183" type="qcurve" smooth="yes"/>
      <point x="86" y="512" type="line"/>
      <point x="143" y="512" type="line"/>
      <point x="143" y="194" type="line" smooth="yes"/>
      <point x="143" y="39"/>
      <point x="275" y="39" type="qcurve" smooth="yes"/>
      <point x="329" y="39"/>
      <point x="413" y="95"/>
      <point x="413" y="153" type="qcurve" smooth="yes"/>
      <point x="413" y="512" type="line"/>
      <point x="470" y="512" type="line"/>
      <point x="470" y="0" type="line"/>
      <point x="413" y="0" type="line"/>
      <point x="413" y="81" type="line"/>
      <point x="409" y="81" type="line"/>
      <point x="396" y="43"/>
      <point x="360" y="17" type="qcurve" smooth="yes"/>
      <point x="320" y="-12"/>
    </contour>
  </outline>
</glyph>
<glyph name="uring" format="2">
  <advance width="563"/>
  <unicode hex="016F"/>
  <outline>
    <contour>
      <point x="279" y="618" type="qcurve"/>
      <point x="342" y="623"/>
      <point x="342" y="678" type="qcurve" smooth="yes"/>
      <point x="342" y="695" type="line"/>
      <point x="338" y="755"/>
      <point x="279" y="755" type="qcurve" smooth="yes"/>
      <point x="216" y="754"/>
      <point x="216" y="695" type="qcurve" smooth="yes"/>
      <point x="216" y="678" type="line"/>
      <point x="221" y="618"/>
    </contour>
    <contour>
      <point x="260" y="-12" type="qcurve" smooth="yes"/>
      <point x="178" y="-12"/>
      <point x="86" y="89"/>
      <point x="86" y="183" type="qcurve" smooth="yes"/>
      <point x="86" y="512" type="line"/>
      <point x="143" y="512" type="line"/>
      <point x="143" y="194" type="line" smooth="yes"/>
      <point x="143" y="39"/>
      <point x="275" y="39" type="qcurve" smooth="yes"/>
      <point x="329" y="39"/>
      <point x="413" y="95"/>
      <point x="413" y="153" type="qcurve" smooth="yes"/>
      <point x="413" y="512" type="line"/>
      <point x="470" y="512" type="line"/>
      <point x="470" y="0" type="line"/>
      <point x="413" y="0" type="line"/>
      <point x="413" y="81" type="line"/>
      <point x="409" y="81" type="line"/>
      <point x="396" y="43"/>
      <point x="360" y="17" type="qcurve" smooth="yes"/>
      <point x="320" y="-12"/>
    </contour>
    <contour>
      <point x="279" y="581" type="qcurve" smooth="yes"/>
      <point x="233" y="581"/>
      <point x="173" y="640"/>
      <point x="173" y="687" type="qcurve" smooth="yes"/>
      <point x="173" y="733"/>
      <point x="233" y="792"/>
      <point x="279" y="792" type="qcurve" smooth="yes"/>
      <point x="325" y="792"/>
      <point x="385" y="733"/>
      <point x="385" y="687" type="qcurve" smooth="yes"/>
      <point x="385" y="640"/>
      <point x="325" y="581"/>
    </contour>
  </outline>
</glyph>
<glyph name="ycircumflex" format="2">
  <advance width="481"/>
  <unicode hex="0177"/>
  <outline>
    <contour>
      <point x="77" y="-200" type="line"/>
      <point x="77" y="-150" type="line"/>
      <point x="163" y="-150" type="line"/>
      <point x="212" y="-15" type="line"/>
      <point x="22" y="512" type="line"/>
      <point x="82" y="512" type="line"/>
      <point x="239" y="61" type="line"/>
      <point x="243" y="61" type="line"/>
      <point x="399" y="512" type="line"/>
      <point x="457" y="512" type="line"/>
      <point x="220" y="-144" type="line" smooth="yes"/>
      <point x="209" y="-176"/>
      <point x="174" y="-200"/>
      <point x="135" y="-200" type="qcurve" smooth="yes"/>
    </contour>
    <contour>
      <point x="242" y="715" type="line"/>
      <point x="121" y="594" type="line"/>
      <point x="89" y="617" type="line"/>
      <point x="207" y="756" type="line"/>
      <point x="277" y="756" type="line"/>
      <point x="395" y="617" type="line"/>
      <point x="363" y="594" type="line"/>
    </contour>
  </outline>
</glyph>
<glyph name="Ydieresis" format="2">
  <advance width="575"/>
  <unicode hex="0178"/>
  <outline>
    <contour>
      <point x="257" y="0" type="line"/>
      <point x="257" y="283" type="line"/>
      <point x="16" y="698" type="line"/>
      <point x="84" y="698" type="line"/>
      <point x="286" y="346" type="line"/>
      <point x="289" y="346" type="line"/>
      <point x="491" y="698" type="line"/>
      <point x="559" y="698" type="line"/>
      <point x="317" y="286" type="line"/>
      <point x="317" y="0" type="line"/>
    </contour>
    <contour>
      <point x="196" y="800" type="qcurve" smooth="yes"/>
      <point x="175" y="800"/>
      <point x="156" y="821"/>
      <point x="156" y="837" type="qcurve" smooth="yes"/>
      <point x="156" y="847" type="line" smooth="yes"/>
      <point x="156" y="863"/>
      <point x="175" y="884"/>
      <point x="196" y="884" type="qcurve" smooth="yes"/>
      <point x="216" y="884"/>
      <point x="235" y="863"/>
      <point x="235" y="847" type="qcurve" smooth="yes"/>
      <point x="235" y="837" type="line" smooth="yes"/>
      <point x="235" y="821"/>
      <point x="216" y="800"/>
    </contour>
    <contour>
      <point x="380" y="800" type="qcurve" smooth="yes"/>
      <point x="360" y="800"/>
      <point x="341" y="821"/>
      <point x="341" y="837" type="qcurve" smooth="yes"/>
      <point x="341" y="847" type="line" smooth="yes"/>
      <point x="341" y="863"/>
      <point x="360" y="884"/>
      <point x="380" y="884" type="qcurve" smooth="yes"/>
      <point x="401" y="884"/>
      <point x="420" y="863"/>
      <point x="420" y="847" type="qcurve" smooth="yes"/>
      <point x="420" y="837" type="line" smooth="yes"/>
      <point x="420" y="821"/>
      <point x="401" y="800"/>
    </contour>
  </outline>
</glyph>
<glyph name="zacute" format="2">
  <advance width="446"/>
  <unicode hex="017A"/>
  <outline>
    <contour>
      <point x="184" y="604" type="line"/>
      <point x="279" y="768" type="line"/>
      <point x="331" y="742" type="line"/>
      <point x="221" y="586" type="line"/>
    </contour>
    <contour>
      <point x="31" y="0" type="line"/>
      <point x="31" y="49" type="line"/>
      <point x="341" y="462" type="line"/>
      <point x="40" y="462" type="line"/>
      <point x="40" y="512" type="line"/>
      <point x="409" y="512" type="line"/>
      <point x="409" y="467" type="line"/>
      <point x="95" y="50" type="line"/>
      <point x="417" y="50" type="line"/>
      <point x="417" y="0" type="line"/>
    </contour>
  </outline>
</glyph>
<glyph name="zdot" format="2">
  <advance width="446"/>
  <unicode hex="017C"/>
  <outline>
    <contour>
      <point x="224" y="626" type="qcurve" smooth="yes"/>
      <point x="204" y="626"/>
      <point x="184" y="646"/>
      <point x="184" y="662" type="qcurve" smooth="yes"/>
      <point x="184" y="672" type="line" smooth="yes"/>
      <point x="184" y="708"/>
      <point x="224" y="708" type="qcurve" smooth="yes"/>
      <point x="244" y="708"/>
      <point x="264" y="688"/>
      <point x="264" y="672" type="qcurve" smooth="yes"/>
      <point x="264" y="660" type="line" smooth="yes"/>
      <point x="264" y="626"/>
    </contour>
    <contour>
      <point x="31" y="0" type="line"/>
      <point x="31" y="49" type="line"/>
      <point x="341" y="462" type="line"/>
      <point x="40" y="462" type="line"/>
      <point x="40" y="512" type="line"/>
      <point x="409" y="512" type="line"/>
      <point x="409" y="467" type="line"/>
      <point x="95" y="50" type="line"/>
      <point x="417" y="50" type="line"/>
      <point x="417" y="0" type="line"/>
    </contour>
  </outline>
</glyph>
<glyph name="Zcaron" format="2">
  <advance width="570"/>
  <unicode hex="017D"/>
  <outline>
    <contour>
      <point x="37" y="0" type="line"/>
      <point x="37" y="55" type="line"/>
      <point x="456" y="645" type="line"/>
      <point x="59" y="645" type="line"/>
      <point x="59" y="698" type="line"/>
      <point x="521" y="698" type="line"/>
      <point x="521" y="643" type="line"/>
      <point x="101" y="53" type="line"/>
      <point x="537" y="53" type="line"/>
      <point x="537" y="0" type="line"/>
    </contour>
    <contour>
      <point x="257" y="774" type="line"/>
      <point x="139" y="914" type="line"/>
      <point x="171" y="937" type="line"/>
      <point x="292" y="816" type="line"/>
      <point x="413" y="937" type="line"/>
      <point x="445" y="914" type="line"/>
      <point x="327" y="774" type="line"/>
    </contour>
  </outline>
</glyph>
<glyph name="Schwa" format="2">
  <advance width="697"/>
  <unicode hex="018F"/>
  <outline>
    <contour>
      <point x="348" y="-12" type="qcurve" smooth="yes"/>
      <point x="212" y="-12"/>
      <point x="63" y="168"/>
      <point x="63" y="349" type="qcurve" smooth="yes"/>
      <point x="63" y="363" type="line"/>
      <point x="571" y="363" type="line"/>
      <point x="571" y="389" type="line" smooth="yes"/>
      <point x="571" y="518"/>
      <point x="453" y="656"/>
      <point x="352" y="656" type="qcurve" smooth="yes"/>
      <point x="202" y="656"/>
      <point x="141" y="504" type="qcurve"/>
      <point x="91" y="529" type="line"/>
      <point x="121" y="613"/>
      <point x="256" y="710"/>
      <point x="352" y="710" type="qcurve" smooth="yes"/>
      <point x="488" y="710"/>
      <point x="634" y="523"/>
      <point x="634" y="349" type="qcurve" smooth="yes"/>
      <point x="634" y="175"/>
      <point x="484" y="-12"/>
    </contour>
    <contour>
      <point x="348" y="42" type="qcurve" smooth="yes"/>
      <point x="446" y="42"/>
      <point x="571" y="183"/>
      <point x="571" y="313" type="qcurve"/>
      <point x="125" y="313" type="line"/>
      <point x="125" y="183"/>
      <point x="251" y="42"/>
    </contour>
  </outline>
</glyph>
<glyph name="Ohorn" format="2">
  <advance width="697"/>
  <unicode hex="01A0"/>
  <outline>
    <contour>
      <point x="349" y="42" type="qcurve" smooth="yes"/>
      <point x="450" y="42"/>
      <point x="570" y="181"/>
      <point x="570" y="305" type="qcurve" smooth="yes"/>
      <point x="570" y="393" type="line" smooth="yes"/>
      <point x="570" y="518"/>
      <point x="450" y="656"/>
      <point x="349" y="656" type="qcurve" smooth="yes"/>
      <point x="249" y="656"/>
      <point x="127" y="518"/>
      <point x="127" y="393" type="qcurve" smooth="yes"/>
      <point x="127" y="305" type="line" smooth="yes"/>
      <point x="127" y="181"/>
      <point x="249" y="42"/>
    </contour>
    <contour>
      <point x="349" y="-12" type="qcurve" smooth="yes"/>
      <point x="215" y="-12"/>
      <point x="63" y="171"/>
      <point x="63" y="349" type="qcurve" smooth="yes"/>
      <point x="63" y="527"/>
      <point x="215" y="710"/>
      <point x="349" y="710" type="qcurve" smooth="yes"/>
      <point x="399" y="710"/>
      <point x="441" y="698" type="qcurve"/>
      <point x="587" y="698" type="line"/>
      <point x="587" y="811" type="line"/>
      <point x="638" y="811" type="line"/>
      <point x="638" y="709" type="line" smooth="yes"/>
      <point x="638" y="687"/>
      <point x="617" y="660"/>
      <point x="588" y="660" type="qcurve" smooth="yes"/>
      <point x="514" y="660" type="line"/>
      <point x="634" y="567"/>
      <point x="634" y="349" type="qcurve" smooth="yes"/>
      <point x="634" y="172"/>
      <point x="482" y="-12"/>
    </contour>
  </outline>
</glyph>
<glyph name="aringacute" format="2">
  <advance width="520"/>
  <unicode hex="01FB"/>
  <outline>
    <contour>
      <point x="228" y="37" type="qcurve" smooth="yes"/>
      <point x="290" y="37"/>
      <point x="377" y="97"/>
      <point x="377" y="149" type="qcurve" smooth="yes"/>
      <point x="377" y="244" type="line"/>
      <point x="257" y="244" type="line" smooth="yes"/>
      <point x="111" y="244"/>
      <point x="111" y="152" type="qcurve" smooth="yes"/>
      <point x="111" y="128" type="line" smooth="yes"/>
      <point x="111" y="83"/>
      <point x="175" y="37"/>
    </contour>
    <contour>
      <point x="252" y="612" type="qcurve"/>
      <point x="315" y="617"/>
      <point x="315" y="672" type="qcurve" smooth="yes"/>
      <point x="315" y="689" type="line"/>
      <point x="311" y="749"/>
      <point x="252" y="749" type="qcurve" smooth="yes"/>
      <point x="189" y="748"/>
      <point x="189" y="689" type="qcurve" smooth="yes"/>
      <point x="189" y="672" type="line"/>
      <point x="194" y="612"/>
    </contour>
    <contour>
      <point x="220" y="-12" type="qcurve" smooth="yes"/>
      <point x="139" y="-12"/>
      <point x="51" y="67"/>
      <point x="51" y="139" type="qcurve" smooth="yes"/>
      <point x="51" y="287"/>
      <point x="259" y="287" type="qcurve" smooth="yes"/>
      <point x="377" y="287" type="line"/>
      <point x="377" y="347" type="line" smooth="yes"/>
      <point x="377" y="474"/>
      <point x="248" y="474" type="qcurve" smooth="yes"/>
      <point x="246" y="474" type="line" smooth="yes"/>
      <point x="150" y="474"/>
      <point x="106" y="391" type="qcurve"/>
      <point x="70" y="421" type="line"/>
      <point x="117" y="524"/>
      <point x="248" y="524" type="qcurve" smooth="yes"/>
      <point x="428" y="524"/>
      <point x="434" y="353" type="qcurve"/>
      <point x="434" y="0" type="line"/>
      <point x="380" y="0" type="line"/>
      <point x="380" y="81" type="line"/>
      <point x="375" y="81" type="line"/>
      <point x="358" y="38"/>
      <point x="280" y="-12"/>
    </contour>
    <contour>
      <point x="259" y="808" type="line"/>
      <point x="228" y="828" type="line"/>
      <point x="305" y="938" type="line"/>
      <point x="349" y="911" type="line"/>
    </contour>
    <contour>
      <point x="252" y="575" type="qcurve" smooth="yes"/>
      <point x="206" y="575"/>
      <point x="146" y="634"/>
      <point x="146" y="681" type="qcurve" smooth="yes"/>
      <point x="146" y="727"/>
      <point x="206" y="786"/>
      <point x="252" y="786" type="qcurve" smooth="yes"/>
      <point x="298" y="786"/>
      <point x="358" y="727"/>
      <point x="358" y="681" type="qcurve" smooth="yes"/>
      <point x="358" y="634"/>
      <point x="298" y="575"/>
    </contour>
  </outline>
</glyph>
<glyph name="AEacute" format="2">
  <advance width="889"/>
  <unicode hex="01FC"/>
  <outline>
    <contour>
      <point x="413" y="645" type="line"/>
      <point x="401" y="645" type="line"/>
      <point x="203" y="269" type="line"/>
      <point x="413" y="269" type="line"/>
    </contour>
    <contour>
      <point x="413" y="0" type="line"/>
      <point x="413" y="216" type="line"/>
      <point x="178" y="216" type="line"/>
      <point x="65" y="0" type="line"/>
      <point x="3" y="0" type="line"/>
      <point x="370" y="698" type="line"/>
      <point x="822" y="698" type="line"/>
      <point x="822" y="645" type="line"/>
      <point x="473" y="645" type="line"/>
      <point x="473" y="381" type="line"/>
      <point x="805" y="381" type="line"/>
      <point x="805" y="328" type="line"/>
      <point x="473" y="328" type="line"/>
      <point x="473" y="53" type="line"/>
      <point x="822" y="53" type="line"/>
      <point x="822" y="0" type="line"/>
    </contour>
    <contour>
      <point x="555" y="778" type="line"/>
      <point x="650" y="942" type="line"/>
      <point x="702" y="916" type="line"/>
      <point x="592" y="760" type="line"/>
    </contour>
  </outline>
</glyph>
<glyph name="Oslashacute" format="2">
  <advance width="697"/>
  <unicode hex="01FE"/>
  <outline>
    <contour>
      <point x="309" y="778" type="line"/>
      <point x="404" y="942" type="line"/>
      <point x="456" y="916" type="line"/>
      <point x="346" y="760" type="line"/>
    </contour>
    <contour>
      <point x="66" y="-13" type="line"/>
      <point x="135" y="85" type="line"/>
      <point x="63" y="178"/>
      <point x="63" y="349" type="qcurve" smooth="yes"/>
      <point x="63" y="527"/>
      <point x="215" y="710"/>
      <point x="349" y="710" type="qcurve" smooth="yes"/>
      <point x="456" y="710"/>
      <point x="527" y="649" type="qcurve"/>
      <point x="589" y="738" type="line"/>
      <point x="631" y="711" type="line"/>
      <point x="562" y="613" type="line"/>
      <point x="634" y="520"/>
      <point x="634" y="349" type="qcurve" smooth="yes"/>
      <point x="634" y="172"/>
      <point x="482" y="-12"/>
      <point x="349" y="-12" type="qcurve" smooth="yes"/>
      <point x="240" y="-12"/>
      <point x="170" y="50" type="qcurve"/>
      <point x="108" y="-40" type="line"/>
    </contour>
    <contour>
      <point x="494" y="602" type="line"/>
      <point x="438" y="656"/>
      <point x="349" y="656" type="qcurve" smooth="yes"/>
      <point x="249" y="656"/>
      <point x="127" y="518"/>
      <point x="127" y="393" type="qcurve" smooth="yes"/>
      <point x="127" y="305" type="line" smooth="yes"/>
      <point x="127" y="202"/>
      <point x="169" y="136" type="qcurve"/>
    </contour>
    <contour>
      <point x="349" y="42" type="qcurve" smooth="yes"/>
      <point x="450" y="42"/>
      <point x="570" y="181"/>
      <point x="570" y="305" type="qcurve" smooth="yes"/>
      <point x="570" y="393" type="line" smooth="yes"/>
      <point x="570" y="497"/>
      <point x="528" y="562" type="qcurve"/>
      <point x="203" y="96" type="line"/>
      <point x="258" y="42"/>
    </contour>
  </outline>
</glyph>
<glyph name="dotlessj" format="2">
  <advance width="243"/>
  <unicode hex="0237"/>
  <outline>
    <contour>
      <point x="8" y="-200" type="line"/>
      <point x="8" y="-150" type="line"/>
      <point x="93" y="-150" type="line"/>
      <point x="93" y="512" type="line"/>
      <point x="150" y="512" type="line"/>
      <point x="150" y="-115" type="line" smooth="yes"/>
      <point x="150" y="-200"/>
      <point x="70" y="-200" type="qcurve" smooth="yes"/>
    </contour>
  </outline>
</glyph>
<glyph name="schwa" format="2">
  <advance width="543"/>
  <unicode hex="0259"/>
  <outline>
    <contour>
      <point x="268" y="-12" type="qcurve" smooth="yes"/>
      <point x="171" y="-12"/>
      <point x="52" y="128"/>
      <point x="52" y="240" type="qcurve" smooth="yes"/>
      <point x="52" y="267" type="line"/>
      <point x="430" y="267" type="line"/>
      <point x="430" y="292" type="line" smooth="yes"/>
      <point x="430" y="372"/>
      <point x="343" y="474"/>
      <point x="263" y="474" type="qcurve" smooth="yes"/>
      <point x="155" y="474"/>
      <point x="108" y="371" type="qcurve"/>
      <point x="67" y="399" type="line"/>
      <point x="91" y="457"/>
      <point x="193" y="524"/>
      <point x="266" y="524" type="qcurve" smooth="yes"/>
      <point x="368" y="524"/>
      <point x="491" y="382"/>
      <point x="491" y="256" type="qcurve" smooth="yes"/>
      <point x="491" y="130"/>
      <point x="370" y="-12"/>
    </contour>
    <contour>
      <point x="268" y="36" type="qcurve" smooth="yes"/>
      <point x="342" y="36"/>
      <point x="430" y="136"/>
      <point x="430" y="223" type="qcurve"/>
      <point x="114" y="223" type="line"/>
      <point x="114" y="215" type="line" smooth="yes"/>
      <point x="114" y="133"/>
      <point x="157" y="85" type="qcurve"/>
      <point x="198" y="36"/>
    </contour>
  </outline>
</glyph>
<glyph name="u02BC" format="2">
  <advance width="600"/>
  <unicode hex="02BC"/>
  <outline>
    <contour>
      <point x="275" y="559" type="line"/>
      <point x="289" y="740" type="line"/>
      <point x="355" y="740" type="line"/>
      <point x="314" y="559" type="line"/>
    </contour>
  </outline>
</glyph>
<glyph name="dotaccent" format="2">
  <advance width="600"/>
  <unicode hex="02D9"/>
  <outline>
    <contour>
      <point x="300" y="626" type="qcurve" smooth="yes"/>
      <point x="280" y="626"/>
      <point x="260" y="646"/>
      <point x="260" y="662" type="qcurve" smooth="yes"/>
      <point x="260" y="672" type="line" smooth="yes"/>
      <point x="260" y="708"/>
      <point x="300" y="708" type="qcurve" smooth="yes"/>
      <point x="320" y="708"/>
      <point x="340" y="688"/>
      <point x="340" y="672" type="qcurve" smooth="yes"/>
      <point x="340" y="660" type="line" smooth="yes"/>
      <point x="340" y="626"/>
    </contour>
  </outline>
</glyph>
<glyph name="acutecmb" format="2">
  <unicode hex="0301"/>
  <outline>
    <contour>
      <point x="-39" y="604" type="line"/>
      <point x="56" y="768" type="line"/>
      <point x="108" y="742" type="line"/>
      <point x="-2" y="586" type="line"/>
    </contour>
  </outline>
</glyph>
<glyph name="tildecmb" format="2">
  <unicode hex="0303"/>
  <outline>
    <contour>
      <point x="73" y="618" type="qcurve" smooth="yes"/>
      <point x="50" y="618"/>
      <point x="14" y="634"/>
      <point x="-29" y="660"/>
      <point x="-60" y="671"/>
      <point x="-74" y="671" type="qcurve" smooth="yes"/>
      <point x="-91" y="671"/>
      <point x="-120" y="655"/>
      <point x="-135" y="641" type="qcurve"/>
      <point x="-160" y="670" type="line"/>
      <point x="-124" y="718"/>
      <point x="-71" y="718" type="qcurve" smooth="yes"/>
      <point x="-48" y="718"/>
      <point x="-12" y="702"/>
      <point x="31" y="676"/>
      <point x="62" y="665"/>
      <point x="76" y="665" type="qcurve" smooth="yes"/>
      <point x="93" y="665"/>
      <point x="122" y="681"/>
      <point x="137" y="695" type="qcurve"/>
      <point x="162" y="666" type="line"/>
      <point x="126" y="618"/>
    </contour>
  </outline>
</glyph>
<glyph name="u0307" format="2">
  <unicode hex="0307"/>
  <outline>
    <contour>
      <point x="1" y="626" type="qcurve" smooth="yes"/>
      <point x="-19" y="626"/>
      <point x="-39" y="646"/>
      <point x="-39" y="662" type="qcurve" smooth="yes"/>
      <point x="-39" y="672" type="line" smooth="yes"/>
      <point x="-39" y="708"/>
      <point x="1" y="708" type="qcurve" smooth="yes"/>
      <point x="21" y="708"/>
      <point x="41" y="688"/>
      <point x="41" y="672" type="qcurve" smooth="yes"/>
      <point x="41" y="660" type="line" smooth="yes"/>
      <point x="41" y="626"/>
    </contour>
  </outline>
</glyph>
<glyph name="dieresiscomb" format="2">
  <unicode hex="0308"/>
  <outline>
    <contour>
      <point x="93" y="627" type="qcurve" smooth="yes"/>
      <point x="73" y="627"/>
      <point x="54" y="647"/>
      <point x="54" y="663" type="qcurve" smooth="yes"/>
      <point x="54" y="673" type="line" smooth="yes"/>
      <point x="54" y="689"/>
      <point x="73" y="709"/>
      <point x="93" y="709" type="qcurve" smooth="yes"/>
      <point x="132" y="709"/>
      <point x="132" y="673" type="qcurve" smooth="yes"/>
      <point x="132" y="663" type="line" smooth="yes"/>
      <point x="132" y="627"/>
    </contour>
    <contour>
      <point x="-91" y="627" type="qcurve" smooth="yes"/>
      <point x="-130" y="627"/>
      <point x="-130" y="663" type="qcurve" smooth="yes"/>
      <point x="-130" y="673" type="line" smooth="yes"/>
      <point x="-130" y="709"/>
      <point x="-91" y="709" type="qcurve" smooth="yes"/>
      <point x="-71" y="709"/>
      <point x="-52" y="689"/>
      <point x="-52" y="673" type="qcurve" smooth="yes"/>
      <point x="-52" y="663" type="line" smooth="yes"/>
      <point x="-52" y="647"/>
      <point x="-71" y="627"/>
    </contour>
  </outline>
</glyph>
<glyph name="hookabovecomb" format="2">
  <advance width="0"/>
  <unicode hex="0309"/>
  <outline>
    <contour>
      <point x="-19" y="597" type="line"/>
      <point x="47" y="710" type="line"/>
      <point x="-80" y="710" type="line"/>
      <point x="-80" y="754" type="line"/>
      <point x="40" y="754" type="line" smooth="yes"/>
      <point x="91" y="754"/>
      <point x="91" y="714" type="qcurve" smooth="yes"/>
      <point x="91" y="683"/>
      <point x="50" y="628" type="qcurve"/>
      <point x="16" y="580" type="line"/>
    </contour>
  </outline>
</glyph>
<glyph name="caroncmb" format="2">
  <unicode hex="030C"/>
  <outline>
    <contour>
      <point x="-34" y="601" type="line"/>
      <point x="-152" y="740" type="line"/>
      <point x="-120" y="763" type="line"/>
      <point x="1" y="642" type="line"/>
      <point x="122" y="763" type="line"/>
      <point x="154" y="740" type="line"/>
      <point x="36" y="601" type="line"/>
    </contour>
  </outline>
</glyph>
<glyph name="u0312" format="2">
  <unicode hex="0312"/>
  <outline>
    <contour>
      <point x="1" y="597" type="qcurve" smooth="yes"/>
      <point x="-38" y="597"/>
      <point x="-38" y="634" type="qcurve" smooth="yes"/>
      <point x="-38" y="645" type="line" smooth="yes"/>
      <point x="-38" y="710"/>
      <point x="16" y="763" type="qcurve"/>
      <point x="58" y="763" type="line"/>
      <point x="18" y="718"/>
      <point x="9" y="678" type="qcurve"/>
      <point x="42" y="672"/>
      <point x="42" y="643" type="qcurve" smooth="yes"/>
      <point x="42" y="634" type="line" smooth="yes"/>
      <point x="42" y="597"/>
    </contour>
  </outline>
</glyph>
<glyph name="dotbelowcomb" format="2">
  <unicode hex="0323"/>
  <outline>
    <contour>
      <point x="0" y="-155" type="qcurve"/>
      <point x="-40" y="-152"/>
      <point x="-40" y="-118" type="qcurve" smooth="yes"/>
      <point x="-40" y="-110" type="line" smooth="yes"/>
      <point x="-40" y="-73"/>
      <point x="0" y="-73" type="qcurve"/>
      <point x="40" y="-75"/>
      <point x="40" y="-110" type="qcurve" smooth="yes"/>
      <point x="40" y="-120" type="line" smooth="yes"/>
      <point x="40" y="-155"/>
    </contour>
  </outline>
</glyph>
<glyph name="u0327" format="2">
  <advance width="0"/>
  <unicode hex="0327"/>
  <outline>
    <contour>
      <point x="12" y="-205" type="qcurve" smooth="yes"/>
      <point x="-24" y="-205"/>
      <point x="-70" y="-183"/>
      <point x="-80" y="-168" type="qcurve"/>
      <point x="-52" y="-137" type="line"/>
      <point x="-30" y="-165"/>
      <point x="12" y="-165" type="qcurve" smooth="yes"/>
      <point x="34" y="-165"/>
      <point x="62" y="-146"/>
      <point x="62" y="-126" type="qcurve" smooth="yes"/>
      <point x="62" y="-109"/>
      <point x="36" y="-88"/>
      <point x="-3" y="-83" type="qcurve"/>
      <point x="-34" y="-80" type="line"/>
      <point x="-15" y="13" type="line"/>
      <point x="23" y="13" type="line"/>
      <point x="6" y="-66" type="line"/>
      <point x="8" y="-68" type="line"/>
      <point x="28" y="-63"/>
      <point x="44" y="-63" type="qcurve" smooth="yes"/>
      <point x="73" y="-63"/>
      <point x="112" y="-96"/>
      <point x="112" y="-127" type="qcurve" smooth="yes"/>
      <point x="112" y="-164"/>
      <point x="54" y="-205"/>
    </contour>
  </outline>
</glyph>
<glyph name="u0328" format="2">
  <advance width="0"/>
  <unicode hex="0328"/>
  <outline>
    <contour>
      <point x="-64" y="-205" type="qcurve" smooth="yes"/>
      <point x="-101" y="-205"/>
      <point x="-153" y="-170"/>
      <point x="-153" y="-133" type="qcurve" smooth="yes"/>
      <point x="-153" y="-97"/>
      <point x="-98" y="-32"/>
      <point x="-42" y="3" type="qcurve"/>
      <point x="-47" y="18" type="line"/>
      <point x="-7" y="20" type="line"/>
      <point x="1" y="0" type="line"/>
      <point x="-60" y="-48"/>
      <point x="-105" y="-103"/>
      <point x="-105" y="-127" type="qcurve" smooth="yes"/>
      <point x="-105" y="-165"/>
      <point x="-64" y="-165" type="qcurve" smooth="yes"/>
      <point x="-28" y="-165"/>
      <point x="-11" y="-141" type="qcurve"/>
      <point x="19" y="-169" type="line"/>
      <point x="10" y="-184"/>
      <point x="-32" y="-205"/>
    </contour>
  </outline>
</glyph>
<glyph name="questiongreek" format="2">
  <advance width="280"/>
  <unicode hex="037E"/>
  <outline>
    <contour>
      <point x="139" y="411" type="qcurve" smooth="yes"/>
      <point x="114" y="411"/>
      <point x="91" y="436"/>
      <point x="91" y="456" type="qcurve" smooth="yes"/>
      <point x="91" y="467" type="line" smooth="yes"/>
      <point x="91" y="487"/>
      <point x="114" y="512"/>
      <point x="139" y="512" type="qcurve" smooth="yes"/>
      <point x="163" y="512"/>
      <point x="187" y="487"/>
      <point x="187" y="467" type="qcurve" smooth="yes"/>
      <point x="187" y="456" type="line" smooth="yes"/>
      <point x="187" y="436"/>
      <point x="163" y="411"/>
    </contour>
    <contour>
      <point x="140" y="92" type="qcurve" smooth="yes"/>
      <point x="165" y="92"/>
      <point x="188" y="66"/>
      <point x="188" y="46" type="qcurve" smooth="yes"/>
      <point x="188" y="33" type="line" smooth="yes"/>
      <point x="188" y="-9"/>
      <point x="141" y="-104"/>
      <point x="102" y="-138" type="qcurve"/>
      <point x="54" y="-138" type="line"/>
      <point x="87" y="-104"/>
      <point x="122" y="-40"/>
      <point x="128" y="-7" type="qcurve"/>
      <point x="108" y="-5"/>
      <point x="92" y="18"/>
      <point x="92" y="34" type="qcurve" smooth="yes"/>
      <point x="92" y="46" type="line" smooth="yes"/>
      <point x="92" y="66"/>
      <point x="115" y="92"/>
    </contour>
  </outline>
</glyph>
<glyph name="anoteleia" format="2">
  <advance width="280"/>
  <unicode hex="0387"/>
  <outline>
    <contour>
      <point x="140" y="411" type="qcurve" smooth="yes"/>
      <point x="115" y="411"/>
      <point x="92" y="436"/>
      <point x="92" y="456" type="qcurve" smooth="yes"/>
      <point x="92" y="467" type="line" smooth="yes"/>
      <point x="92" y="487"/>
      <point x="115" y="512"/>
      <point x="140" y="512" type="qcurve" smooth="yes"/>
      <point x="164" y="512"/>
      <point x="188" y="487"/>
      <point x="188" y="467" type="qcurve" smooth="yes"/>
      <point x="188" y="456" type="line" smooth="yes"/>
      <point x="188" y="436"/>
      <point x="164" y="411"/>
    </contour>
  </outline>
</glyph>
<glyph name="iotadieresistonos" format="2">
  <advance width="285"/>
  <unicode hex="0390"/>
  <outline>
    <contour>
      <point x="258" y="0" type="line"/>
      <point x="156" y="0" type="line" smooth="yes"/>
      <point x="125" y="0"/>
      <point x="93" y="34"/>
      <point x="93" y="63" type="qcurve" smooth="yes"/>
      <point x="93" y="512" type="line"/>
      <point x="150" y="512" type="line"/>
      <point x="150" y="50" type="line"/>
      <point x="258" y="50" type="line"/>
    </contour>
    <contour>
      <point x="129" y="586" type="line"/>
      <point x="92" y="592" type="line"/>
      <point x="137" y="769" type="line"/>
      <point x="189" y="759" type="line"/>
    </contour>
    <contour>
      <point x="29" y="627" type="qcurve" smooth="yes"/>
      <point x="10" y="627"/>
      <point x="-7" y="647"/>
      <point x="-7" y="664" type="qcurve" smooth="yes"/>
      <point x="-7" y="673" type="line" smooth="yes"/>
      <point x="-7" y="689"/>
      <point x="10" y="709"/>
      <point x="29" y="709" type="qcurve" smooth="yes"/>
      <point x="48" y="709"/>
      <point x="66" y="689"/>
      <point x="66" y="673" type="qcurve" smooth="yes"/>
      <point x="66" y="664" type="line" smooth="yes"/>
      <point x="66" y="647"/>
      <point x="48" y="627"/>
    </contour>
    <contour>
      <point x="243" y="627" type="qcurve" smooth="yes"/>
      <point x="224" y="627"/>
      <point x="206" y="647"/>
      <point x="206" y="664" type="qcurve" smooth="yes"/>
      <point x="206" y="673" type="line" smooth="yes"/>
      <point x="206" y="689"/>
      <point x="224" y="709"/>
      <point x="243" y="709" type="qcurve" smooth="yes"/>
      <point x="262" y="709"/>
      <point x="279" y="689"/>
      <point x="279" y="673" type="qcurve" smooth="yes"/>
      <point x="279" y="664" type="line" smooth="yes"/>
      <point x="279" y="647"/>
      <point x="262" y="627"/>
    </contour>
  </outline>
</glyph>
<glyph name="Deltagreek" format="2">
  <advance width="626"/>
  <unicode hex="0394"/>
  <outline>
    <contour>
      <point x="46" y="53" type="line"/>
      <point x="278" y="698" type="line"/>
      <point x="356" y="698" type="line"/>
      <point x="588" y="53" type="line"/>
      <point x="588" y="0" type="line"/>
      <point x="46" y="0" type="line"/>
    </contour>
    <contour>
      <point x="318" y="641" type="line"/>
      <point x="314" y="641" type="line"/>
      <point x="107" y="53" type="line"/>
      <point x="525" y="53" type="line"/>
    </contour>
  </outline>
</glyph>
<glyph name="Sigma" format="2">
  <advance width="570"/>
  <unicode hex="03A3"/>
  <outline>
    <contour>
      <point x="44" y="0" type="line"/>
      <point x="44" y="55" type="line"/>
      <point x="303" y="353" type="line"/>
      <point x="51" y="643" type="line"/>
      <point x="51" y="698" type="line"/>
      <point x="507" y="698" type="line"/>
      <point x="507" y="645" type="line"/>
      <point x="119" y="645" type="line"/>
      <point x="372" y="354" type="line"/>
      <point x="110" y="53" type="line"/>
      <point x="507" y="53" type="line"/>
      <point x="507" y="0" type="line"/>
    </contour>
  </outline>
</glyph>
<glyph name="Omega" format="2">
  <advance width="703"/>
  <unicode hex="03A9"/>
  <outline>
    <contour>
      <point x="67" y="53" type="line"/>
      <point x="233" y="53" type="line"/>
      <point x="233" y="66" type="line"/>
      <point x="155" y="110"/>
      <point x="67" y="261"/>
      <point x="67" y="378" type="qcurve" smooth="yes"/>
      <point x="67" y="447"/>
      <point x="102" y="568"/>
      <point x="174" y="658"/>
      <point x="282" y="710"/>
      <point x="355" y="710" type="qcurve" smooth="yes"/>
      <point x="427" y="710"/>
      <point x="535" y="658"/>
      <point x="607" y="568"/>
      <point x="642" y="447"/>
      <point x="642" y="378" type="qcurve" smooth="yes"/>
      <point x="642" y="261"/>
      <point x="554" y="110"/>
      <point x="476" y="66" type="qcurve"/>
      <point x="476" y="53" type="line"/>
      <point x="642" y="53" type="line"/>
      <point x="642" y="0" type="line"/>
      <point x="425" y="0" type="line"/>
      <point x="425" y="87" type="line"/>
      <point x="450" y="98"/>
      <point x="505" y="144"/>
      <point x="549" y="210"/>
      <point x="578" y="294"/>
      <point x="578" y="343" type="qcurve" smooth="yes"/>
      <point x="578" y="423" type="line" smooth="yes"/>
      <point x="578" y="470"/>
      <point x="547" y="555"/>
      <point x="489" y="619"/>
      <point x="406" y="656"/>
      <point x="355" y="656" type="qcurve" smooth="yes"/>
      <point x="303" y="656"/>
      <point x="220" y="619"/>
      <point x="162" y="555"/>
      <point x="131" y="470"/>
      <point x="131" y="423" type="qcurve" smooth="yes"/>
      <point x="131" y="343" type="line" smooth="yes"/>
      <point x="131" y="294"/>
      <point x="160" y="210"/>
      <point x="204" y="144"/>
      <point x="258" y="98"/>
      <point x="284" y="87" type="qcurve"/>
      <point x="284" y="0" type="line"/>
      <point x="67" y="0" type="line"/>
    </contour>
  </outline>
</glyph>
<glyph name="Iotadieresis" format="2">
  <advance width="278"/>
  <unicode hex="03AA"/>
  <outline>
    <contour>
      <point x="104" y="0" type="line"/>
      <point x="104" y="698" type="line"/>
      <point x="164" y="698" type="line"/>
      <point x="164" y="0" type="line"/>
    </contour>
    <contour>
      <point x="47" y="800" type="qcurve" smooth="yes"/>
      <point x="26" y="800"/>
      <point x="7" y="821"/>
      <point x="7" y="837" type="qcurve" smooth="yes"/>
      <point x="7" y="847" type="line" smooth="yes"/>
      <point x="7" y="863"/>
      <point x="26" y="884"/>
      <point x="47" y="884" type="qcurve" smooth="yes"/>
      <point x="67" y="884"/>
      <point x="86" y="863"/>
      <point x="86" y="847" type="qcurve" smooth="yes"/>
      <point x="86" y="837" type="line" smooth="yes"/>
      <point x="86" y="821"/>
      <point x="67" y="800"/>
    </contour>
    <contour>
      <point x="231" y="800" type="qcurve" smooth="yes"/>
      <point x="211" y="800"/>
      <point x="192" y="821"/>
      <point x="192" y="837" type="qcurve" smooth="yes"/>
      <point x="192" y="847" type="line" smooth="yes"/>
      <point x="192" y="863"/>
      <point x="211" y="884"/>
      <point x="231" y="884" type="qcurve" smooth="yes"/>
      <point x="252" y="884"/>
      <point x="271" y="863"/>
      <point x="271" y="847" type="qcurve" smooth="yes"/>
      <point x="271" y="837" type="line" smooth="yes"/>
      <point x="271" y="821"/>
      <point x="252" y="800"/>
    </contour>
  </outline>
</glyph>
<glyph name="upsilondieresistonos" format="2">
  <advance width="560"/>
  <unicode hex="03B0"/>
  <outline>
    <contour>
      <point x="143" y="227" type="line" smooth="yes"/>
      <point x="143" y="126"/>
      <point x="209" y="39"/>
      <point x="280" y="39" type="qcurve" smooth="yes"/>
      <point x="350" y="39"/>
      <point x="417" y="126"/>
      <point x="417" y="227" type="qcurve" smooth="yes"/>
      <point x="417" y="512" type="line"/>
      <point x="474" y="512" type="line"/>
      <point x="474" y="239" type="line" smooth="yes"/>
      <point x="474" y="106"/>
      <point x="377" y="-12"/>
      <point x="280" y="-12" type="qcurve" smooth="yes"/>
      <point x="182" y="-12"/>
      <point x="86" y="106"/>
      <point x="86" y="239" type="qcurve" smooth="yes"/>
      <point x="86" y="512" type="line"/>
      <point x="143" y="512" type="line"/>
    </contour>
    <contour>
      <point x="280" y="586" type="line"/>
      <point x="243" y="592" type="line"/>
      <point x="288" y="769" type="line"/>
      <point x="340" y="759" type="line"/>
    </contour>
    <contour>
      <point x="180" y="627" type="qcurve" smooth="yes"/>
      <point x="161" y="627"/>
      <point x="144" y="647"/>
      <point x="144" y="664" type="qcurve" smooth="yes"/>
      <point x="144" y="673" type="line" smooth="yes"/>
      <point x="144" y="689"/>
      <point x="161" y="709"/>
      <point x="180" y="709" type="qcurve" smooth="yes"/>
      <point x="199" y="709"/>
      <point x="217" y="689"/>
      <point x="217" y="673" type="qcurve" smooth="yes"/>
      <point x="217" y="664" type="line" smooth="yes"/>
      <point x="217" y="647"/>
      <point x="199" y="627"/>
    </contour>
    <contour>
      <point x="394" y="627" type="qcurve" smooth="yes"/>
      <point x="375" y="627"/>
      <point x="357" y="647"/>
      <point x="357" y="664" type="qcurve" smooth="yes"/>
      <point x="357" y="673" type="line" smooth="yes"/>
      <point x="357" y="689"/>
      <point x="375" y="709"/>
      <point x="394" y="709" type="qcurve" smooth="yes"/>
      <point x="413" y="709"/>
      <point x="430" y="689"/>
      <point x="430" y="673" type="qcurve" smooth="yes"/>
      <point x="430" y="664" type="line" smooth="yes"/>
      <point x="430" y="647"/>
      <point x="413" y="627"/>
    </contour>
  </outline>
</glyph>
<glyph name="alpha" format="2">
  <advance width="640"/>
  <unicode hex="03B1"/>
  <outline>
    <contour>
      <point x="253" y="39" type="qcurve" smooth="yes"/>
      <point x="280" y="39"/>
      <point x="323" y="53"/>
      <point x="358" y="87"/>
      <point x="388" y="144"/>
      <point x="402" y="186" type="qcurve" smooth="yes"/>
      <point x="427" y="256" type="line"/>
      <point x="402" y="331" type="line" smooth="yes"/>
      <point x="389" y="373"/>
      <point x="359" y="427"/>
      <point x="323" y="460"/>
      <point x="280" y="473"/>
      <point x="253" y="473" type="qcurve" smooth="yes"/>
      <point x="225" y="473"/>
      <point x="175" y="449"/>
      <point x="137" y="401"/>
      <point x="115" y="332"/>
      <point x="115" y="287" type="qcurve" smooth="yes"/>
      <point x="115" y="225" type="line" smooth="yes"/>
      <point x="115" y="180"/>
      <point x="137" y="111"/>
      <point x="175" y="63"/>
      <point x="225" y="39"/>
    </contour>
    <contour>
      <point x="602" y="0" type="line"/>
      <point x="552" y="0" type="line" smooth="yes"/>
      <point x="522" y="0"/>
      <point x="490" y="28"/>
      <point x="483" y="64" type="qcurve" smooth="yes"/>
      <point x="456" y="201" type="line"/>
      <point x="452" y="201" type="line"/>
      <point x="425" y="87"/>
      <point x="332" y="-12"/>
      <point x="253" y="-12" type="qcurve" smooth="yes"/>
      <point x="209" y="-12"/>
      <point x="136" y="24"/>
      <point x="83" y="93"/>
      <point x="54" y="193"/>
      <point x="54" y="256" type="qcurve" smooth="yes"/>
      <point x="54" y="319"/>
      <point x="83" y="418"/>
      <point x="136" y="487"/>
      <point x="209" y="524"/>
      <point x="253" y="524" type="qcurve" smooth="yes"/>
      <point x="332" y="524"/>
      <point x="430" y="427"/>
      <point x="454" y="311" type="qcurve"/>
      <point x="457" y="311" type="line"/>
      <point x="483" y="405" type="line"/>
      <point x="521" y="512" type="line"/>
      <point x="583" y="512" type="line"/>
      <point x="483" y="259" type="line"/>
      <point x="544" y="50" type="line"/>
      <point x="602" y="50" type="line"/>
    </contour>
  </outline>
</glyph>
<glyph name="delta" format="2">
  <advance width="550"/>
  <unicode hex="03B4"/>
  <outline>
    <contour>
      <point x="437" y="243" type="line" smooth="yes"/>
      <point x="437" y="277"/>
      <point x="428" y="335"/>
      <point x="401" y="392"/>
      <point x="354" y="453"/>
      <point x="317" y="490" type="qcurve"/>
      <point x="222" y="484"/>
      <point x="113" y="367"/>
      <point x="113" y="273" type="qcurve" smooth="yes"/>
      <point x="113" y="221" type="line" smooth="yes"/>
      <point x="113" y="134"/>
      <point x="200" y="39"/>
      <point x="275" y="39" type="qcurve" smooth="yes"/>
      <point x="350" y="39"/>
      <point x="437" y="133"/>
      <point x="437" y="218" type="qcurve" smooth="yes"/>
    </contour>
    <contour>
      <point x="229" y="690" type="line"/>
      <point x="165" y="694" type="line"/>
      <point x="165" y="691" type="line"/>
      <point x="309" y="569" type="line" smooth="yes"/>
      <point x="365" y="521"/>
      <point x="438" y="440"/>
      <point x="481" y="365"/>
      <point x="498" y="290"/>
      <point x="498" y="248" type="qcurve" smooth="yes"/>
      <point x="498" y="187"/>
      <point x="467" y="91"/>
      <point x="408" y="24"/>
      <point x="326" y="-12"/>
      <point x="275" y="-12" type="qcurve" smooth="yes"/>
      <point x="224" y="-12"/>
      <point x="142" y="24"/>
      <point x="83" y="92"/>
      <point x="52" y="188"/>
      <point x="52" y="247" type="qcurve" smooth="yes"/>
      <point x="52" y="311"/>
      <point x="88" y="409"/>
      <point x="151" y="477"/>
      <point x="237" y="512"/>
      <point x="287" y="512" type="qcurve"/>
      <point x="287" y="519" type="line"/>
      <point x="113" y="675" type="line"/>
      <point x="113" y="740" type="line"/>
      <point x="455" y="740" type="line"/>
      <point x="455" y="690" type="line"/>
    </contour>
  </outline>
</glyph>
<glyph name="theta" format="2">
  <advance width="557"/>
  <unicode hex="03B8"/>
  <outline>
    <contour>
      <point x="278" y="38" type="qcurve" smooth="yes"/>
      <point x="315" y="38"/>
      <point x="373" y="65"/>
      <point x="413" y="127"/>
      <point x="434" y="228"/>
      <point x="434" y="301" type="qcurve" smooth="yes"/>
      <point x="434" y="345" type="line"/>
      <point x="122" y="345" type="line"/>
      <point x="122" y="301" type="line" smooth="yes"/>
      <point x="122" y="228"/>
      <point x="143" y="127"/>
      <point x="183" y="65"/>
      <point x="241" y="38"/>
    </contour>
    <contour>
      <point x="122" y="395" type="line"/>
      <point x="434" y="395" type="line"/>
      <point x="434" y="439" type="line" smooth="yes"/>
      <point x="434" y="512"/>
      <point x="413" y="613"/>
      <point x="373" y="675"/>
      <point x="315" y="702"/>
      <point x="278" y="702" type="qcurve" smooth="yes"/>
      <point x="241" y="702"/>
      <point x="183" y="675"/>
      <point x="143" y="613"/>
      <point x="122" y="512"/>
      <point x="122" y="439" type="qcurve" smooth="yes"/>
    </contour>
    <contour>
      <point x="278" y="752" type="qcurve" smooth="yes"/>
      <point x="329" y="752"/>
      <point x="410" y="714"/>
      <point x="465" y="625"/>
      <point x="495" y="479"/>
      <point x="495" y="370" type="qcurve" smooth="yes"/>
      <point x="495" y="261"/>
      <point x="465" y="115"/>
      <point x="410" y="26"/>
      <point x="329" y="-12"/>
      <point x="278" y="-12" type="qcurve" smooth="yes"/>
      <point x="227" y="-12"/>
      <point x="146" y="26"/>
      <point x="91" y="115"/>
      <point x="61" y="261"/>
      <point x="61" y="370" type="qcurve" smooth="yes"/>
      <point x="61" y="479"/>
      <point x="91" y="625"/>
      <point x="146" y="714"/>
      <point x="227" y="752"/>
    </contour>
  </outline>
</glyph>
<glyph name="sigma" format="2">
  <advance width="570"/>
  <unicode hex="03C3"/>
  <outline>
    <contour>
      <point x="285" y="462" type="line" smooth="yes"/>
      <point x="204" y="462"/>
      <point x="113" y="366"/>
      <point x="113" y="278" type="qcurve" smooth="yes"/>
      <point x="113" y="222" type="line" smooth="yes"/>
      <point x="113" y="134"/>
      <point x="200" y="39"/>
      <point x="275" y="39" type="qcurve" smooth="yes"/>
      <point x="350" y="39"/>
      <point x="437" y="134"/>
      <point x="437" y="222" type="qcurve" smooth="yes"/>
      <point x="437" y="278" type="line" smooth="yes"/>
      <point x="437" y="338"/>
      <point x="396" y="427"/>
      <point x="351" y="462" type="qcurve"/>
    </contour>
    <contour>
      <point x="397" y="462" type="line"/>
      <point x="397" y="457" type="line"/>
      <point x="449" y="429"/>
      <point x="498" y="330"/>
      <point x="498" y="250" type="qcurve" smooth="yes"/>
      <point x="498" y="189"/>
      <point x="467" y="92"/>
      <point x="408" y="24"/>
      <point x="326" y="-12"/>
      <point x="275" y="-12" type="qcurve" smooth="yes"/>
      <point x="224" y="-12"/>
      <point x="142" y="24"/>
      <point x="83" y="92"/>
      <point x="52" y="189"/>
      <point x="52" y="250" type="qcurve" smooth="yes"/>
      <point x="52" y="371"/>
      <point x="173" y="512"/>
      <point x="285" y="512" type="qcurve" smooth="yes"/>
      <point x="544" y="512" type="line"/>
      <point x="544" y="462" type="line"/>
    </contour>
  </outline>
</glyph>
<glyph name="iotadieresis" format="2">
  <advance width="285"/>
  <unicode hex="03CA"/>
  <outline>
    <contour>
      <point x="258" y="0" type="line"/>
      <point x="156" y="0" type="line" smooth="yes"/>
      <point x="125" y="0"/>
      <point x="93" y="34"/>
      <point x="93" y="63" type="qcurve" smooth="yes"/>
      <point x="93" y="512" type="line"/>
      <point x="150" y="512" type="line"/>
      <point x="150" y="50" type="line"/>
      <point x="258" y="50" type="line"/>
    </contour>
    <contour>
      <point x="38" y="627" type="qcurve" smooth="yes"/>
      <point x="17" y="627"/>
      <point x="-1" y="647"/>
      <point x="-1" y="663" type="qcurve" smooth="yes"/>
      <point x="-1" y="673" type="line" smooth="yes"/>
      <point x="-1" y="689"/>
      <point x="17" y="709"/>
      <point x="38" y="709" type="qcurve" smooth="yes"/>
      <point x="58" y="709"/>
      <point x="77" y="689"/>
      <point x="77" y="673" type="qcurve" smooth="yes"/>
      <point x="77" y="663" type="line" smooth="yes"/>
      <point x="77" y="647"/>
      <point x="58" y="627"/>
    </contour>
    <contour>
      <point x="222" y="627" type="qcurve" smooth="yes"/>
      <point x="202" y="627"/>
      <point x="183" y="647"/>
      <point x="183" y="663" type="qcurve" smooth="yes"/>
      <point x="183" y="673" type="line" smooth="yes"/>
      <point x="183" y="689"/>
      <point x="202" y="709"/>
      <point x="222" y="709" type="qcurve" smooth="yes"/>
      <point x="243" y="709"/>
      <point x="261" y="689"/>
      <point x="261" y="673" type="qcurve" smooth="yes"/>
      <point x="261" y="663" type="line" smooth="yes"/>
      <point x="261" y="647"/>
      <point x="243" y="627"/>
    </contour>
  </outline>
</glyph>
<glyph name="upsilontonos" format="2">
  <advance width="560"/>
  <unicode hex="03CD"/>
  <outline>
    <contour>
      <point x="296" y="586" type="line"/>
      <point x="255" y="592" type="line"/>
      <point x="299" y="769" type="line"/>
      <point x="356" y="759" type="line"/>
    </contour>
    <contour>
      <point x="143" y="227" type="line" smooth="yes"/>
      <point x="143" y="126"/>
      <point x="209" y="39"/>
      <point x="280" y="39" type="qcurve" smooth="yes"/>
      <point x="350" y="39"/>
      <point x="417" y="126"/>
      <point x="417" y="227" type="qcurve" smooth="yes"/>
      <point x="417" y="512" type="line"/>
      <point x="474" y="512" type="line"/>
      <point x="474" y="239" type="line" smooth="yes"/>
      <point x="474" y="106"/>
      <point x="377" y="-12"/>
      <point x="280" y="-12" type="qcurve" smooth="yes"/>
      <point x="182" y="-12"/>
      <point x="86" y="106"/>
      <point x="86" y="239" type="qcurve" smooth="yes"/>
      <point x="86" y="512" type="line"/>
      <point x="143" y="512" type="line"/>
    </contour>
  </outline>
</glyph>
<glyph name="uni0400" format="2">
  <advance width="574"/>
  <unicode hex="0400"/>
  <outline>
    <contour>
      <point x="195" y="916" type="line"/>
      <point x="247" y="942" type="line"/>
      <point x="342" y="778" type="line"/>
      <point x="304" y="760" type="line"/>
    </contour>
    <contour>
      <point x="99" y="0" type="line"/>
      <point x="99" y="698" type="line"/>
      <point x="507" y="698" type="line"/>
      <point x="507" y="645" type="line"/>
      <point x="159" y="645" type="line"/>
      <point x="159" y="381" type="line"/>
      <point x="490" y="381" type="line"/>
      <point x="490" y="328" type="line"/>
      <point x="159" y="328" type="line"/>
      <point x="159" y="53" type="line"/>
      <point x="507" y="53" type="line"/>
      <point x="507" y="0" type="line"/>
    </contour>
  </outline>
</glyph>
<glyph name="afii10054" format="2">
  <advance width="568"/>
  <unicode hex="0405"/>
  <outline>
    <contour>
      <point x="284" y="-12" type="qcurve" smooth="yes"/>
      <point x="198" y="-12"/>
      <point x="82" y="52"/>
      <point x="42" y="107" type="qcurve"/>
      <point x="87" y="144" type="line"/>
      <point x="123" y="95"/>
      <point x="217" y="41"/>
      <point x="286" y="41" type="qcurve" smooth="yes"/>
      <point x="367" y="41"/>
      <point x="454" y="118"/>
      <point x="454" y="187" type="qcurve" smooth="yes"/>
      <point x="454" y="251"/>
      <point x="380" y="312"/>
      <point x="313" y="325" type="qcurve" smooth="yes"/>
      <point x="251" y="338" type="line" smooth="yes"/>
      <point x="152" y="358"/>
      <point x="61" y="452"/>
      <point x="61" y="525" type="qcurve" smooth="yes"/>
      <point x="61" y="617"/>
      <point x="185" y="710"/>
      <point x="285" y="710" type="qcurve" smooth="yes"/>
      <point x="433" y="710"/>
      <point x="506" y="603" type="qcurve"/>
      <point x="461" y="570" type="line"/>
      <point x="401" y="657"/>
      <point x="282" y="657" type="qcurve" smooth="yes"/>
      <point x="207" y="657"/>
      <point x="120" y="592"/>
      <point x="120" y="527" type="qcurve" smooth="yes"/>
      <point x="120" y="465"/>
      <point x="197" y="406"/>
      <point x="263" y="394" type="qcurve"/>
      <point x="325" y="381" type="line" smooth="yes"/>
      <point x="428" y="358"/>
      <point x="513" y="262"/>
      <point x="513" y="190" type="qcurve" smooth="yes"/>
      <point x="513" y="94"/>
      <point x="391" y="-12"/>
    </contour>
  </outline>
</glyph>
<glyph name="afii10059" format="2">
  <advance width="1036"/>
  <unicode hex="040A"/>
  <outline>
    <contour>
      <point x="521" y="0" type="line"/>
      <point x="521" y="322" type="line"/>
      <point x="159" y="322" type="line"/>
      <point x="159" y="0" type="line"/>
      <point x="99" y="0" type="line"/>
      <point x="99" y="698" type="line"/>
      <point x="159" y="698" type="line"/>
      <point x="159" y="375" type="line"/>
      <point x="521" y="375" type="line"/>
      <point x="521" y="698" type="line"/>
      <point x="581" y="698" type="line"/>
      <point x="581" y="402" type="line"/>
      <point x="801" y="402" type="line" smooth="yes"/>
      <point x="892" y="402"/>
      <point x="988" y="296"/>
      <point x="988" y="201" type="qcurve" smooth="yes"/>
      <point x="988" y="107"/>
      <point x="892" y="0"/>
      <point x="801" y="0" type="qcurve" smooth="yes"/>
    </contour>
    <contour>
      <point x="801" y="53" type="line" smooth="yes"/>
      <point x="861" y="53"/>
      <point x="923" y="121"/>
      <point x="923" y="177" type="qcurve" smooth="yes"/>
      <point x="923" y="225" type="line" smooth="yes"/>
      <point x="923" y="282"/>
      <point x="861" y="349"/>
      <point x="801" y="349" type="qcurve" smooth="yes"/>
      <point x="581" y="349" type="line"/>
      <point x="581" y="53" type="line"/>
    </contour>
  </outline>
</glyph>
<glyph name="u040C" format="2">
  <advance width="644"/>
  <unicode hex="040C"/>
  <outline>
    <contour>
      <point x="544" y="0" type="line" smooth="yes"/>
      <point x="502" y="0"/>
      <point x="474" y="50" type="qcurve"/>
      <point x="304" y="329" type="line"/>
      <point x="159" y="329" type="line"/>
      <point x="159" y="0" type="line"/>
      <point x="99" y="0" type="line"/>
      <point x="99" y="698" type="line"/>
      <point x="159" y="698" type="line"/>
      <point x="159" y="381" type="line"/>
      <point x="304" y="381" type="line"/>
      <point x="461" y="646" type="line"/>
      <point x="488" y="698"/>
      <point x="536" y="698" type="qcurve" smooth="yes"/>
      <point x="582" y="698" type="line"/>
      <point x="582" y="645" type="line"/>
      <point x="522" y="645" type="line"/>
      <point x="378" y="402" type="line" smooth="yes"/>
      <point x="364" y="379"/>
      <point x="343" y="360"/>
      <point x="329" y="357" type="qcurve"/>
      <point x="329" y="353" type="line"/>
      <point x="346" y="351"/>
      <point x="373" y="330"/>
      <point x="388" y="304" type="qcurve" smooth="yes"/>
      <point x="541" y="53" type="line"/>
      <point x="601" y="53" type="line"/>
      <point x="601" y="0" type="line"/>
    </contour>
    <contour>
      <point x="275" y="778" type="line"/>
      <point x="370" y="942" type="line"/>
      <point x="422" y="916" type="line"/>
      <point x="312" y="760" type="line"/>
    </contour>
  </outline>
</glyph>
<glyph name="u0413" format="2">
  <advance width="502"/>
  <unicode hex="0413"/>
  <outline>
    <contour>
      <point x="99" y="0" type="line"/>
      <point x="99" y="698" type="line"/>
      <point x="469" y="698" type="line"/>
      <point x="469" y="645" type="line"/>
      <point x="159" y="645" type="line"/>
      <point x="159" y="0" type="line"/>
    </contour>
  </outline>
</glyph>
<glyph name="afii10022" format="2">
  <advance width="574"/>
  <unicode hex="0415"/>
  <outline>
    <contour>
      <point x="99" y="0" type="line"/>
      <point x="99" y="698" type="line"/>
      <point x="507" y="698" type="line"/>
      <point x="507" y="645" type="line"/>
      <point x="159" y="645" type="line"/>
      <point x="159" y="381" type="line"/>
      <point x="490" y="381" type="line"/>
      <point x="490" y="328" type="line"/>
      <point x="159" y="328" type="line"/>
      <point x="159" y="53" type="line"/>
      <point x="507" y="53" type="line"/>
      <point x="507" y="0" type="line"/>
    </contour>
  </outline>
</glyph>
<glyph name="u0416" format="2">
  <advance width="945"/>
  <unicode hex="0416"/>
  <outline>
    <contour>
      <point x="845" y="0" type="line" smooth="yes"/>
      <point x="822" y="0"/>
      <point x="791" y="22"/>
      <point x="776" y="51" type="qcurve" smooth="yes"/>
      <point x="630" y="329" type="line"/>
      <point x="502" y="329" type="line"/>
      <point x="502" y="0" type="line"/>
      <point x="443" y="0" type="line"/>
      <point x="443" y="329" type="line"/>
      <point x="315" y="329" type="line"/>
      <point x="169" y="51" type="line" smooth="yes"/>
      <point x="154" y="22"/>
      <point x="123" y="0"/>
      <point x="100" y="0" type="qcurve" smooth="yes"/>
      <point x="43" y="0" type="line"/>
      <point x="43" y="53" type="line"/>
      <point x="103" y="53" type="line"/>
      <point x="232" y="299" type="line" smooth="yes"/>
      <point x="246" y="325"/>
      <point x="274" y="348"/>
      <point x="291" y="353" type="qcurve"/>
      <point x="291" y="357" type="line"/>
      <point x="262" y="365"/>
      <point x="239" y="408" type="qcurve"/>
      <point x="120" y="645" type="line"/>
      <point x="60" y="645" type="line"/>
      <point x="60" y="698" type="line"/>
      <point x="109" y="698" type="line" smooth="yes"/>
      <point x="157" y="698"/>
      <point x="182" y="646" type="qcurve" smooth="yes"/>
      <point x="315" y="381" type="line"/>
      <point x="443" y="381" type="line"/>
      <point x="443" y="698" type="line"/>
      <point x="502" y="698" type="line"/>
      <point x="502" y="381" type="line"/>
      <point x="630" y="381" type="line"/>
      <point x="763" y="646" type="line" smooth="yes"/>
      <point x="788" y="698"/>
      <point x="836" y="698" type="qcurve" smooth="yes"/>
      <point x="885" y="698" type="line"/>
      <point x="885" y="645" type="line"/>
      <point x="825" y="645" type="line"/>
      <point x="706" y="408" type="line"/>
      <point x="683" y="365"/>
      <point x="654" y="357" type="qcurve"/>
      <point x="654" y="353" type="line"/>
      <point x="671" y="348"/>
      <point x="699" y="325"/>
      <point x="713" y="299" type="qcurve" smooth="yes"/>
      <point x="842" y="53" type="line"/>
      <point x="902" y="53" type="line"/>
      <point x="902" y="0" type="line"/>
    </contour>
  </outline>
</glyph>
<glyph name="afii10025" format="2">
  <advance width="586"/>
  <unicode hex="0417"/>
  <outline>
    <contour>
      <point x="282" y="-12" type="qcurve" smooth="yes"/>
      <point x="124" y="-12"/>
      <point x="46" y="105" type="qcurve"/>
      <point x="90" y="140" type="line"/>
      <point x="122" y="91"/>
      <point x="215" y="42"/>
      <point x="282" y="42" type="qcurve" smooth="yes"/>
      <point x="363" y="42"/>
      <point x="458" y="113"/>
      <point x="458" y="181" type="qcurve" smooth="yes"/>
      <point x="458" y="200" type="line" smooth="yes"/>
      <point x="458" y="259"/>
      <point x="374" y="330"/>
      <point x="291" y="330" type="qcurve" smooth="yes"/>
      <point x="181" y="330" type="line"/>
      <point x="181" y="383" type="line"/>
      <point x="286" y="383" type="line" smooth="yes"/>
      <point x="363" y="383"/>
      <point x="442" y="453"/>
      <point x="442" y="517" type="qcurve" smooth="yes"/>
      <point x="442" y="535" type="line"/>
      <point x="437" y="656"/>
      <point x="288" y="656" type="qcurve" smooth="yes"/>
      <point x="220" y="656"/>
      <point x="138" y="609"/>
      <point x="115" y="569" type="qcurve"/>
      <point x="69" y="598" type="line"/>
      <point x="99" y="650"/>
      <point x="204" y="710"/>
      <point x="288" y="710" type="qcurve" smooth="yes"/>
      <point x="394" y="710"/>
      <point x="507" y="612"/>
      <point x="507" y="531" type="qcurve" smooth="yes"/>
      <point x="507" y="456"/>
      <point x="434" y="372"/>
      <point x="371" y="360" type="qcurve"/>
      <point x="371" y="356" type="line"/>
      <point x="438" y="349"/>
      <point x="522" y="268"/>
      <point x="522" y="191" type="qcurve" smooth="yes"/>
      <point x="522" y="100"/>
      <point x="395" y="-12"/>
    </contour>
  </outline>
</glyph>
<glyph name="afii10027" format="2">
  <advance width="701"/>
  <unicode hex="0419"/>
  <outline>
    <contour>
      <point x="348" y="774" type="qcurve" smooth="yes"/>
      <point x="296" y="774"/>
      <point x="235" y="821"/>
      <point x="218" y="857" type="qcurve"/>
      <point x="201" y="890" type="line"/>
      <point x="251" y="912" type="line"/>
      <point x="286" y="836" type="line"/>
      <point x="314" y="817"/>
      <point x="348" y="817" type="qcurve" smooth="yes"/>
      <point x="383" y="817"/>
      <point x="410" y="836" type="qcurve"/>
      <point x="445" y="912" type="line"/>
      <point x="495" y="890" type="line"/>
      <point x="478" y="857" type="line"/>
      <point x="461" y="821"/>
      <point x="400" y="774"/>
    </contour>
    <contour>
      <point x="544" y="0" type="line"/>
      <point x="544" y="500" type="line"/>
      <point x="551" y="616" type="line"/>
      <point x="548" y="616" type="line"/>
      <point x="489" y="511" type="line"/>
      <point x="153" y="0" type="line"/>
      <point x="99" y="0" type="line"/>
      <point x="99" y="698" type="line"/>
      <point x="157" y="698" type="line"/>
      <point x="157" y="198" type="line"/>
      <point x="151" y="82" type="line"/>
      <point x="154" y="82" type="line"/>
      <point x="212" y="187" type="line"/>
      <point x="549" y="698" type="line"/>
      <point x="602" y="698" type="line"/>
      <point x="602" y="0" type="line"/>
    </contour>
  </outline>
</glyph>
<glyph name="Elcyr" format="2">
  <advance width="666"/>
  <unicode hex="041B"/>
  <outline>
    <contour>
      <point x="508" y="0" type="line"/>
      <point x="508" y="645" type="line"/>
      <point x="233" y="645" type="line"/>
      <point x="233" y="504" type="line" smooth="yes"/>
      <point x="233" y="293"/>
      <point x="178" y="75"/>
      <point x="133" y="33" type="qcurve"/>
      <point x="103" y="0"/>
      <point x="47" y="0" type="qcurve" smooth="yes"/>
      <point x="9" y="0" type="line"/>
      <point x="9" y="53" type="line"/>
      <point x="78" y="53" type="line"/>
      <point x="125" y="96"/>
      <point x="150" y="200" type="qcurve" smooth="yes"/>
      <point x="175" y="300"/>
      <point x="175" y="508" type="qcurve" smooth="yes"/>
      <point x="175" y="698" type="line"/>
      <point x="568" y="698" type="line"/>
      <point x="568" y="0" type="line"/>
    </contour>
  </outline>
</glyph>
<glyph name="Pecyr" format="2">
  <advance width="686"/>
  <unicode hex="041F"/>
  <outline>
    <contour>
      <point x="527" y="0" type="line"/>
      <point x="527" y="645" type="line"/>
      <point x="159" y="645" type="line"/>
      <point x="159" y="0" type="line"/>
      <point x="99" y="0" type="line"/>
      <point x="99" y="698" type="line"/>
      <point x="587" y="698" type="line"/>
      <point x="587" y="0" type="line"/>
    </contour>
  </outline>
</glyph>
<glyph name="afii10035" format="2">
  <advance width="617"/>
  <unicode hex="0421"/>
  <outline>
    <contour>
      <point x="335" y="-12" type="qcurve" smooth="yes"/>
      <point x="205" y="-12"/>
      <point x="63" y="169"/>
      <point x="63" y="347" type="qcurve" smooth="yes"/>
      <point x="63" y="524"/>
      <point x="205" y="710"/>
      <point x="335" y="710" type="qcurve" smooth="yes"/>
      <point x="419" y="710"/>
      <point x="534" y="631"/>
      <point x="566" y="561" type="qcurve"/>
      <point x="517" y="532" type="line"/>
      <point x="494" y="590"/>
      <point x="401" y="656"/>
      <point x="335" y="656" type="qcurve" smooth="yes"/>
      <point x="237" y="656"/>
      <point x="127" y="516"/>
      <point x="127" y="386" type="qcurve" smooth="yes"/>
      <point x="127" y="307" type="line" smooth="yes"/>
      <point x="127" y="178"/>
      <point x="237" y="42"/>
      <point x="335" y="42" type="qcurve" smooth="yes"/>
      <point x="405" y="42"/>
      <point x="499" y="112"/>
      <point x="522" y="173" type="qcurve"/>
      <point x="571" y="144" type="line"/>
      <point x="540" y="71"/>
      <point x="420" y="-12"/>
    </contour>
  </outline>
</glyph>
<glyph name="u0423" format="2">
  <advance width="587"/>
  <unicode hex="0423"/>
  <outline>
    <contour>
      <point x="149" y="0" type="line"/>
      <point x="149" y="53" type="line"/>
      <point x="247" y="53" type="line"/>
      <point x="287" y="153" type="line"/>
      <point x="24" y="698" type="line"/>
      <point x="89" y="698" type="line"/>
      <point x="266" y="330" type="line"/>
      <point x="312" y="227" type="line"/>
      <point x="316" y="227" type="line"/>
      <point x="355" y="332" type="line"/>
      <point x="501" y="698" type="line"/>
      <point x="563" y="698" type="line"/>
      <point x="308" y="62" type="line" smooth="yes"/>
      <point x="294" y="26"/>
      <point x="253" y="0"/>
      <point x="214" y="0" type="qcurve" smooth="yes"/>
    </contour>
  </outline>
</glyph>
<glyph name="afii10038" format="2">
  <advance width="832"/>
  <unicode hex="0424"/>
  <outline>
    <contour>
      <point x="386" y="-29" type="line"/>
      <point x="386" y="61" type="line"/>
      <point x="345" y="61" type="line" smooth="yes"/>
      <point x="211" y="61"/>
      <point x="54" y="224"/>
      <point x="54" y="348" type="qcurve" smooth="yes"/>
      <point x="54" y="470"/>
      <point x="132" y="553" type="qcurve"/>
      <point x="212" y="635"/>
      <point x="346" y="635" type="qcurve" smooth="yes"/>
      <point x="386" y="635" type="line"/>
      <point x="386" y="725" type="line"/>
      <point x="446" y="725" type="line"/>
      <point x="446" y="635" type="line"/>
      <point x="486" y="635" type="line" smooth="yes"/>
      <point x="621" y="635"/>
      <point x="701" y="553" type="qcurve"/>
      <point x="778" y="470"/>
      <point x="778" y="348" type="qcurve" smooth="yes"/>
      <point x="778" y="224"/>
      <point x="621" y="61"/>
      <point x="486" y="61" type="qcurve" smooth="yes"/>
      <point x="446" y="61" type="line"/>
      <point x="446" y="-29" type="line"/>
    </contour>
    <contour>
      <point x="387" y="585" type="line"/>
      <point x="346" y="585" type="line" smooth="yes"/>
      <point x="243" y="585"/>
      <point x="180" y="523" type="qcurve"/>
      <point x="118" y="459"/>
      <point x="118" y="379" type="qcurve" smooth="yes"/>
      <point x="118" y="317" type="line" smooth="yes"/>
      <point x="118" y="238"/>
      <point x="243" y="112"/>
      <point x="345" y="112" type="qcurve" smooth="yes"/>
      <point x="387" y="112" type="line"/>
    </contour>
    <contour>
      <point x="486" y="112" type="line" smooth="yes"/>
      <point x="587" y="112"/>
      <point x="653" y="175" type="qcurve"/>
      <point x="714" y="238"/>
      <point x="714" y="317" type="qcurve" smooth="yes"/>
      <point x="714" y="379" type="line" smooth="yes"/>
      <point x="714" y="459"/>
      <point x="653" y="523" type="qcurve"/>
      <point x="590" y="585"/>
      <point x="486" y="585" type="qcurve" smooth="yes"/>
      <point x="445" y="585" type="line"/>
      <point x="445" y="112" type="line"/>
    </contour>
  </outline>
</glyph>
<glyph name="afii10039" format="2">
  <advance width="592"/>
  <unicode hex="0425"/>
  <outline>
    <contour>
      <point x="494" y="0" type="line"/>
      <point x="296" y="309" type="line"/>
      <point x="294" y="309" type="line"/>
      <point x="95" y="0" type="line"/>
      <point x="26" y="0" type="line"/>
      <point x="257" y="355" type="line"/>
      <point x="33" y="698" type="line"/>
      <point x="104" y="698" type="line"/>
      <point x="295" y="403" type="line"/>
      <point x="297" y="403" type="line"/>
      <point x="490" y="698" type="line"/>
      <point x="559" y="698" type="line"/>
      <point x="333" y="358" type="line"/>
      <point x="566" y="0" type="line"/>
    </contour>
  </outline>
</glyph>
<glyph name="Checyr" format="2">
  <advance width="636"/>
  <unicode hex="0427"/>
  <outline>
    <contour>
      <point x="477" y="0" type="line"/>
      <point x="477" y="287" type="line"/>
      <point x="472" y="287" type="line"/>
      <point x="409" y="262"/>
      <point x="307" y="262" type="qcurve" smooth="yes"/>
      <point x="180" y="262"/>
      <point x="62" y="379"/>
      <point x="62" y="503" type="qcurve" smooth="yes"/>
      <point x="62" y="698" type="line"/>
      <point x="122" y="698" type="line"/>
      <point x="122" y="503" type="line" smooth="yes"/>
      <point x="122" y="404"/>
      <point x="217" y="315"/>
      <point x="309" y="315" type="qcurve" smooth="yes"/>
      <point x="416" y="315"/>
      <point x="477" y="340" type="qcurve"/>
      <point x="477" y="698" type="line"/>
      <point x="537" y="698" type="line"/>
      <point x="537" y="0" type="line"/>
    </contour>
  </outline>
</glyph>
<glyph name="afii10044" format="2">
  <advance width="735"/>
  <unicode hex="042A"/>
  <outline>
    <contour>
      <point x="212" y="0" type="line"/>
      <point x="212" y="645" type="line"/>
      <point x="20" y="645" type="line"/>
      <point x="20" y="698" type="line"/>
      <point x="272" y="698" type="line"/>
      <point x="272" y="410" type="line"/>
      <point x="501" y="410" type="line" smooth="yes"/>
      <point x="592" y="410"/>
      <point x="687" y="302"/>
      <point x="687" y="205" type="qcurve" smooth="yes"/>
      <point x="687" y="108"/>
      <point x="592" y="0"/>
      <point x="501" y="0" type="qcurve" smooth="yes"/>
    </contour>
    <contour>
      <point x="501" y="53" type="line" smooth="yes"/>
      <point x="561" y="53"/>
      <point x="623" y="124"/>
      <point x="623" y="181" type="qcurve" smooth="yes"/>
      <point x="623" y="229" type="line" smooth="yes"/>
      <point x="623" y="287"/>
      <point x="561" y="357"/>
      <point x="501" y="357" type="qcurve" smooth="yes"/>
      <point x="272" y="357" type="line"/>
      <point x="272" y="53" type="line"/>
    </contour>
  </outline>
</glyph>
<glyph name="u042B" format="2">
  <advance width="854"/>
  <unicode hex="042B"/>
  <outline>
    <contour>
      <point x="378" y="53" type="line" smooth="yes"/>
      <point x="438" y="53"/>
      <point x="500" y="124"/>
      <point x="500" y="181" type="qcurve" smooth="yes"/>
      <point x="500" y="229" type="line" smooth="yes"/>
      <point x="500" y="287"/>
      <point x="438" y="357"/>
      <point x="378" y="357" type="qcurve" smooth="yes"/>
      <point x="159" y="357" type="line"/>
      <point x="159" y="53" type="line"/>
    </contour>
    <contour>
      <point x="695" y="0" type="line"/>
      <point x="695" y="698" type="line"/>
      <point x="755" y="698" type="line"/>
      <point x="755" y="0" type="line"/>
    </contour>
    <contour>
      <point x="99" y="0" type="line"/>
      <point x="99" y="698" type="line"/>
      <point x="159" y="698" type="line"/>
      <point x="159" y="410" type="line"/>
      <point x="378" y="410" type="line" smooth="yes"/>
      <point x="469" y="410"/>
      <point x="564" y="302"/>
      <point x="564" y="205" type="qcurve" smooth="yes"/>
      <point x="564" y="108"/>
      <point x="469" y="0"/>
      <point x="378" y="0" type="qcurve" smooth="yes"/>
    </contour>
  </outline>
</glyph>
<glyph name="afii10046" format="2">
  <advance width="622"/>
  <unicode hex="042C"/>
  <outline>
    <contour>
      <point x="99" y="0" type="line"/>
      <point x="99" y="698" type="line"/>
      <point x="159" y="698" type="line"/>
      <point x="159" y="410" type="line"/>
      <point x="388" y="410" type="line" smooth="yes"/>
      <point x="479" y="410"/>
      <point x="574" y="302"/>
      <point x="574" y="205" type="qcurve" smooth="yes"/>
      <point x="574" y="108"/>
      <point x="479" y="0"/>
      <point x="388" y="0" type="qcurve" smooth="yes"/>
    </contour>
    <contour>
      <point x="388" y="53" type="line" smooth="yes"/>
      <point x="448" y="53"/>
      <point x="510" y="124"/>
      <point x="510" y="181" type="qcurve" smooth="yes"/>
      <point x="510" y="229" type="line" smooth="yes"/>
      <point x="510" y="287"/>
      <point x="448" y="357"/>
      <point x="388" y="357" type="qcurve" smooth="yes"/>
      <point x="159" y="357" type="line"/>
      <point x="159" y="53" type="line"/>
    </contour>
  </outline>
</glyph>
<glyph name="afii10048" format="2">
  <advance width="939"/>
  <unicode hex="042E"/>
  <outline>
    <contour>
      <point x="598" y="-12" type="qcurve" smooth="yes"/>
      <point x="467" y="-12"/>
      <point x="325" y="159"/>
      <point x="319" y="328" type="qcurve"/>
      <point x="159" y="328" type="line"/>
      <point x="159" y="0" type="line"/>
      <point x="99" y="0" type="line"/>
      <point x="99" y="698" type="line"/>
      <point x="159" y="698" type="line"/>
      <point x="159" y="381" type="line"/>
      <point x="321" y="381" type="line"/>
      <point x="327" y="543"/>
      <point x="468" y="710"/>
      <point x="598" y="710" type="qcurve" smooth="yes"/>
      <point x="731" y="710"/>
      <point x="876" y="530"/>
      <point x="876" y="349" type="qcurve" smooth="yes"/>
      <point x="876" y="168"/>
      <point x="731" y="-12"/>
    </contour>
    <contour>
      <point x="598" y="42" type="qcurve" smooth="yes"/>
      <point x="698" y="42"/>
      <point x="812" y="177"/>
      <point x="812" y="305" type="qcurve" smooth="yes"/>
      <point x="812" y="393" type="line" smooth="yes"/>
      <point x="812" y="521"/>
      <point x="698" y="656"/>
      <point x="598" y="656" type="qcurve" smooth="yes"/>
      <point x="498" y="656"/>
      <point x="384" y="521"/>
      <point x="384" y="393" type="qcurve" smooth="yes"/>
      <point x="384" y="305" type="line" smooth="yes"/>
      <point x="384" y="177"/>
      <point x="498" y="42"/>
    </contour>
  </outline>
</glyph>
<glyph name="afii10066" format="2">
  <advance width="556"/>
  <unicode hex="0431"/>
  <outline>
    <contour>
      <point x="280" y="-12" type="qcurve" smooth="yes"/>
      <point x="56" y="-12"/>
      <point x="56" y="293" type="qcurve" smooth="yes"/>
      <point x="56" y="529"/>
      <point x="172" y="727"/>
      <point x="314" y="735" type="qcurve"/>
      <point x="465" y="747" type="line"/>
      <point x="465" y="690" type="line"/>
      <point x="308" y="677" type="line" smooth="yes"/>
      <point x="203" y="669"/>
      <point x="125" y="543"/>
      <point x="117" y="399" type="qcurve"/>
      <point x="120" y="399" type="line"/>
      <point x="144" y="459"/>
      <point x="227" y="512"/>
      <point x="287" y="512" type="qcurve" smooth="yes"/>
      <point x="387" y="512"/>
      <point x="504" y="376"/>
      <point x="504" y="249" type="qcurve" smooth="yes"/>
      <point x="504" y="129"/>
      <point x="382" y="-12"/>
    </contour>
    <contour>
      <point x="283" y="39" type="qcurve" smooth="yes"/>
      <point x="355" y="39"/>
      <point x="443" y="131"/>
      <point x="443" y="219" type="qcurve" smooth="yes"/>
      <point x="443" y="275" type="line" smooth="yes"/>
      <point x="443" y="366"/>
      <point x="354" y="461"/>
      <point x="278" y="461" type="qcurve" smooth="yes"/>
      <point x="200" y="461"/>
      <point x="118" y="374"/>
      <point x="118" y="299" type="qcurve" smooth="yes"/>
      <point x="118" y="225" type="line" smooth="yes"/>
      <point x="118" y="134"/>
      <point x="207" y="39"/>
    </contour>
  </outline>
</glyph>
<glyph name="afii10067" format="2">
  <advance width="555"/>
  <unicode hex="0432"/>
  <outline>
    <contour>
      <point x="93" y="0" type="line"/>
      <point x="93" y="512" type="line"/>
      <point x="340" y="512" type="line" smooth="yes"/>
      <point x="399" y="512"/>
      <point x="466" y="444"/>
      <point x="466" y="384" type="qcurve" smooth="yes"/>
      <point x="466" y="287"/>
      <point x="373" y="271" type="qcurve"/>
      <point x="373" y="267" type="line"/>
      <point x="430" y="261"/>
      <point x="486" y="198"/>
      <point x="486" y="147" type="qcurve" smooth="yes"/>
      <point x="486" y="86"/>
      <point x="413" y="0"/>
      <point x="352" y="0" type="qcurve" smooth="yes"/>
    </contour>
    <contour>
      <point x="323" y="288" type="line" smooth="yes"/>
      <point x="364" y="288"/>
      <point x="405" y="331"/>
      <point x="405" y="365" type="qcurve" smooth="yes"/>
      <point x="405" y="390" type="line" smooth="yes"/>
      <point x="405" y="423"/>
      <point x="365" y="464"/>
      <point x="327" y="464" type="qcurve" smooth="yes"/>
      <point x="150" y="464" type="line"/>
      <point x="150" y="288" type="line"/>
    </contour>
    <contour>
      <point x="337" y="48" type="line" smooth="yes"/>
      <point x="380" y="48"/>
      <point x="425" y="95"/>
      <point x="425" y="132" type="qcurve" smooth="yes"/>
      <point x="425" y="158" type="line" smooth="yes"/>
      <point x="425" y="194"/>
      <point x="377" y="241"/>
      <point x="331" y="241" type="qcurve" smooth="yes"/>
      <point x="150" y="241" type="line"/>
      <point x="150" y="48" type="line"/>
    </contour>
  </outline>
</glyph>
<glyph name="afii10074" format="2">
  <advance width="584"/>
  <unicode hex="0438"/>
  <outline>
    <contour>
      <point x="435" y="0" type="line"/>
      <point x="435" y="332" type="line"/>
      <point x="441" y="435" type="line"/>
      <point x="437" y="435" type="line"/>
      <point x="383" y="344" type="line"/>
      <point x="145" y="0" type="line"/>
      <point x="93" y="0" type="line"/>
      <point x="93" y="512" type="line"/>
      <point x="149" y="512" type="line"/>
      <point x="149" y="180" type="line"/>
      <point x="143" y="77" type="line"/>
      <point x="147" y="77" type="line"/>
      <point x="200" y="168" type="line"/>
      <point x="438" y="512" type="line"/>
      <point x="491" y="512" type="line"/>
      <point x="491" y="0" type="line"/>
    </contour>
  </outline>
</glyph>
<glyph name="afii10076" format="2">
  <advance width="538"/>
  <unicode hex="043A"/>
  <outline>
    <contour>
      <point x="441" y="0" type="line" smooth="yes"/>
      <point x="422" y="0"/>
      <point x="392" y="18"/>
      <point x="377" y="44" type="qcurve" smooth="yes"/>
      <point x="260" y="242" type="line"/>
      <point x="150" y="242" type="line"/>
      <point x="150" y="0" type="line"/>
      <point x="93" y="0" type="line"/>
      <point x="93" y="512" type="line"/>
      <point x="150" y="512" type="line"/>
      <point x="150" y="291" type="line"/>
      <point x="260" y="291" type="line"/>
      <point x="377" y="470" type="line" smooth="yes"/>
      <point x="394" y="496"/>
      <point x="421" y="512"/>
      <point x="442" y="512" type="qcurve" smooth="yes"/>
      <point x="489" y="512" type="line"/>
      <point x="489" y="462" type="line"/>
      <point x="430" y="462" type="line"/>
      <point x="332" y="312" type="line" smooth="yes"/>
      <point x="318" y="291"/>
      <point x="298" y="274"/>
      <point x="283" y="269" type="qcurve"/>
      <point x="283" y="265" type="line"/>
      <point x="300" y="263"/>
      <point x="326" y="242"/>
      <point x="341" y="216" type="qcurve" smooth="yes"/>
      <point x="439" y="50" type="line"/>
      <point x="498" y="50" type="line"/>
      <point x="498" y="0" type="line"/>
    </contour>
  </outline>
</glyph>
<glyph name="afii10077" format="2">
  <advance width="555"/>
  <unicode hex="043B"/>
  <outline>
    <contour>
      <point x="405" y="0" type="line"/>
      <point x="405" y="462" type="line"/>
      <point x="192" y="462" type="line"/>
      <point x="192" y="362" type="line" smooth="yes"/>
      <point x="192" y="214"/>
      <point x="147" y="56"/>
      <point x="115" y="26" type="qcurve"/>
      <point x="89" y="0"/>
      <point x="42" y="0" type="qcurve" smooth="yes"/>
      <point x="6" y="0" type="line"/>
      <point x="6" y="50" type="line"/>
      <point x="70" y="50" type="line"/>
      <point x="137" y="128"/>
      <point x="137" y="364" type="qcurve" smooth="yes"/>
      <point x="137" y="512" type="line"/>
      <point x="462" y="512" type="line"/>
      <point x="462" y="0" type="line"/>
    </contour>
  </outline>
</glyph>
<glyph name="afii10078" format="2">
  <advance width="690"/>
  <unicode hex="043C"/>
  <outline>
    <contour>
      <point x="541" y="0" type="line"/>
      <point x="541" y="443" type="line"/>
      <point x="536" y="443" type="line"/>
      <point x="504" y="386"/>
      <point x="345" y="120" type="qcurve"/>
      <point x="186" y="386"/>
      <point x="154" y="443" type="qcurve"/>
      <point x="149" y="443" type="line"/>
      <point x="149" y="0" type="line"/>
      <point x="93" y="0" type="line"/>
      <point x="93" y="512" type="line"/>
      <point x="170" y="512" type="line"/>
      <point x="344" y="219" type="line"/>
      <point x="348" y="219" type="line"/>
      <point x="521" y="512" type="line"/>
      <point x="597" y="512" type="line"/>
      <point x="597" y="0" type="line"/>
    </contour>
  </outline>
</glyph>
<glyph name="u043D" format="2">
  <advance width="583"/>
  <unicode hex="043D"/>
  <outline>
    <contour>
      <point x="434" y="0" type="line"/>
      <point x="434" y="241" type="line"/>
      <point x="150" y="241" type="line"/>
      <point x="150" y="0" type="line"/>
      <point x="93" y="0" type="line"/>
      <point x="93" y="512" type="line"/>
      <point x="150" y="512" type="line"/>
      <point x="150" y="291" type="line"/>
      <point x="434" y="291" type="line"/>
      <point x="434" y="512" type="line"/>
      <point x="491" y="512" type="line"/>
      <point x="491" y="0" type="line"/>
    </contour>
  </outline>
</glyph>
<glyph name="afii10082" format="2">
  <advance width="574"/>
  <unicode hex="0440"/>
  <outline>
    <contour>
      <point x="93" y="-200" type="line"/>
      <point x="93" y="512" type="line"/>
      <point x="150" y="512" type="line"/>
      <point x="150" y="430" type="line"/>
      <point x="153" y="430" type="line"/>
      <point x="172" y="473"/>
      <point x="250" y="524"/>
      <point x="309" y="524" type="qcurve" smooth="yes"/>
      <point x="408" y="524"/>
      <point x="520" y="384"/>
      <point x="520" y="256" type="qcurve" smooth="yes"/>
      <point x="520" y="128"/>
      <point x="408" y="-12"/>
      <point x="309" y="-12" type="qcurve" smooth="yes"/>
      <point x="198" y="-12"/>
      <point x="153" y="82" type="qcurve"/>
      <point x="150" y="82" type="line"/>
      <point x="150" y="-200" type="line"/>
    </contour>
    <contour>
      <point x="296" y="39" type="qcurve" smooth="yes"/>
      <point x="373" y="39"/>
      <point x="459" y="137"/>
      <point x="459" y="220" type="qcurve" smooth="yes"/>
      <point x="459" y="292" type="line" smooth="yes"/>
      <point x="459" y="375"/>
      <point x="373" y="473"/>
      <point x="296" y="473" type="qcurve" smooth="yes"/>
      <point x="236" y="473"/>
      <point x="150" y="409"/>
      <point x="150" y="359" type="qcurve" smooth="yes"/>
      <point x="150" y="156" type="line" smooth="yes"/>
      <point x="150" y="102"/>
      <point x="236" y="39"/>
    </contour>
  </outline>
</glyph>
<glyph name="u0442" format="2">
  <advance width="475"/>
  <unicode hex="0442"/>
  <outline>
    <contour>
      <point x="209" y="0" type="line"/>
      <point x="209" y="462" type="line"/>
      <point x="26" y="462" type="line"/>
      <point x="26" y="512" type="line"/>
      <point x="449" y="512" type="line"/>
      <point x="449" y="462" type="line"/>
      <point x="266" y="462" type="line"/>
      <point x="266" y="0" type="line"/>
    </contour>
  </outline>
</glyph>
<glyph name="afii10087" format="2">
  <advance width="493"/>
  <unicode hex="0445"/>
  <outline>
    <contour>
      <point x="400" y="0" type="line"/>
      <point x="249" y="216" type="line"/>
      <point x="247" y="216" type="line"/>
      <point x="90" y="0" type="line"/>
      <point x="26" y="0" type="line"/>
      <point x="216" y="258" type="line"/>
      <point x="33" y="512" type="line"/>
      <point x="100" y="512" type="line"/>
      <point x="246" y="303" type="line"/>
      <point x="249" y="303" type="line"/>
      <point x="398" y="512" type="line"/>
      <point x="462" y="512" type="line"/>
      <point x="280" y="262" type="line"/>
      <point x="467" y="0" type="line"/>
    </contour>
  </outline>
</glyph>
<glyph name="shchacyr" format="2">
  <advance width="813"/>
  <unicode hex="0449"/>
  <outline>
    <contour>
      <point x="727" y="-140" type="line"/>
      <point x="727" y="0" type="line"/>
      <point x="93" y="0" type="line"/>
      <point x="93" y="512" type="line"/>
      <point x="150" y="512" type="line"/>
      <point x="150" y="50" type="line"/>
      <point x="367" y="50" type="line"/>
      <point x="367" y="512" type="line"/>
      <point x="424" y="512" type="line"/>
      <point x="424" y="50" type="line"/>
      <point x="641" y="50" type="line"/>
      <point x="641" y="512" type="line"/>
      <point x="698" y="512" type="line"/>
      <point x="698" y="50" type="line"/>
      <point x="780" y="50" type="line"/>
      <point x="780" y="-140" type="line"/>
    </contour>
  </outline>
</glyph>
<glyph name="yacyr" format="2">
  <advance width="528"/>
  <unicode hex="044F"/>
  <outline>
    <contour>
      <point x="379" y="462" type="line"/>
      <point x="230" y="462" type="line" smooth="yes"/>
      <point x="176" y="462"/>
      <point x="120" y="414"/>
      <point x="120" y="372" type="qcurve" smooth="yes"/>
      <point x="120" y="342" type="line"/>
      <point x="122" y="253"/>
      <point x="230" y="253" type="qcurve" smooth="yes"/>
      <point x="379" y="253" type="line"/>
    </contour>
    <contour>
      <point x="379" y="0" type="line"/>
      <point x="379" y="204" type="line"/>
      <point x="231" y="204" type="line"/>
      <point x="157" y="50" type="line"/>
      <point x="144" y="21"/>
      <point x="113" y="0"/>
      <point x="93" y="0" type="qcurve" smooth="yes"/>
      <point x="39" y="0" type="line"/>
      <point x="39" y="50" type="line"/>
      <point x="96" y="50" type="line"/>
      <point x="150" y="162" type="line"/>
      <point x="167" y="200"/>
      <point x="198" y="206" type="qcurve"/>
      <point x="198" y="209" type="line"/>
      <point x="129" y="215"/>
      <point x="58" y="293"/>
      <point x="58" y="357" type="qcurve" smooth="yes"/>
      <point x="58" y="429"/>
      <point x="144" y="512"/>
      <point x="222" y="512" type="qcurve" smooth="yes"/>
      <point x="436" y="512" type="line"/>
      <point x="436" y="0" type="line"/>
    </contour>
  </outline>
</glyph>
<glyph name="afii10099" format="2">
  <advance width="564"/>
  <unicode hex="0452"/>
  <outline>
    <contour>
      <point x="335" y="-200" type="line"/>
      <point x="335" y="-150" type="line"/>
      <point x="420" y="-150" type="line"/>
      <point x="420" y="319" type="line" smooth="yes"/>
      <point x="420" y="473"/>
      <point x="289" y="473" type="qcurve" smooth="yes"/>
      <point x="235" y="473"/>
      <point x="150" y="416"/>
      <point x="150" y="360" type="qcurve" smooth="yes"/>
      <point x="150" y="0" type="line"/>
      <point x="93" y="0" type="line"/>
      <point x="93" y="616" type="line"/>
      <point x="28" y="616" type="line"/>
      <point x="28" y="661" type="line"/>
      <point x="93" y="661" type="line"/>
      <point x="93" y="740" type="line"/>
      <point x="150" y="740" type="line"/>
      <point x="150" y="661" type="line"/>
      <point x="305" y="661" type="line"/>
      <point x="305" y="616" type="line"/>
      <point x="150" y="616" type="line"/>
      <point x="150" y="431" type="line"/>
      <point x="153" y="431" type="line"/>
      <point x="190" y="524"/>
      <point x="304" y="524" type="qcurve" smooth="yes"/>
      <point x="386" y="524"/>
      <point x="477" y="423"/>
      <point x="477" y="329" type="qcurve" smooth="yes"/>
      <point x="477" y="-117" type="line" smooth="yes"/>
      <point x="477" y="-200"/>
      <point x="398" y="-200" type="qcurve" smooth="yes"/>
    </contour>
  </outline>
</glyph>
<glyph name="afii10101" format="2">
  <advance width="506"/>
  <unicode hex="0454"/>
  <outline>
    <contour>
      <point x="277" y="-12" type="qcurve" smooth="yes"/>
      <point x="168" y="-12"/>
      <point x="52" y="128"/>
      <point x="52" y="256" type="qcurve" smooth="yes"/>
      <point x="52" y="384"/>
      <point x="168" y="524"/>
      <point x="277" y="524" type="qcurve" smooth="yes"/>
      <point x="411" y="524"/>
      <point x="461" y="411" type="qcurve"/>
      <point x="413" y="387" type="line"/>
      <point x="377" y="473"/>
      <point x="277" y="473" type="qcurve" smooth="yes"/>
      <point x="195" y="473"/>
      <point x="114" y="373"/>
      <point x="114" y="292" type="qcurve" smooth="yes"/>
      <point x="114" y="283" type="line"/>
      <point x="354" y="283" type="line"/>
      <point x="354" y="234" type="line"/>
      <point x="114" y="234" type="line"/>
      <point x="114" y="220" type="line" smooth="yes"/>
      <point x="114" y="139"/>
      <point x="195" y="39"/>
      <point x="277" y="39" type="qcurve" smooth="yes"/>
      <point x="381" y="39"/>
      <point x="426" y="128" type="qcurve"/>
      <point x="468" y="100" type="line"/>
      <point x="415" y="-12"/>
    </contour>
  </outline>
</glyph>
<glyph name="ljecyr" format="2">
  <advance width="790"/>
  <unicode hex="0459"/>
  <outline>
    <contour>
      <point x="573" y="50" type="line" smooth="yes"/>
      <point x="627" y="50"/>
      <point x="683" y="98"/>
      <point x="683" y="140" type="qcurve" smooth="yes"/>
      <point x="683" y="176" type="line"/>
      <point x="681" y="265"/>
      <point x="573" y="265" type="qcurve" smooth="yes"/>
      <point x="437" y="265" type="line"/>
      <point x="437" y="50" type="line"/>
    </contour>
    <contour>
      <point x="380" y="0" type="line"/>
      <point x="380" y="462" type="line"/>
      <point x="192" y="462" type="line"/>
      <point x="192" y="362" type="line" smooth="yes"/>
      <point x="192" y="214"/>
      <point x="147" y="56"/>
      <point x="115" y="26" type="qcurve"/>
      <point x="89" y="0"/>
      <point x="42" y="0" type="qcurve" smooth="yes"/>
      <point x="6" y="0" type="line"/>
      <point x="6" y="50" type="line"/>
      <point x="70" y="50" type="line"/>
      <point x="137" y="128"/>
      <point x="137" y="364" type="qcurve" smooth="yes"/>
      <point x="137" y="512" type="line"/>
      <point x="437" y="512" type="line"/>
      <point x="437" y="315" type="line"/>
      <point x="579" y="315" type="line" smooth="yes"/>
      <point x="657" y="315"/>
      <point x="744" y="230"/>
      <point x="744" y="157" type="qcurve" smooth="yes"/>
      <point x="744" y="84"/>
      <point x="658" y="0"/>
      <point x="580" y="0" type="qcurve" smooth="yes"/>
    </contour>
  </outline>
</glyph>
<glyph name="afii10107" format="2">
  <advance width="822"/>
  <unicode hex="045A"/>
  <outline>
    <contour>
      <point x="412" y="0" type="line"/>
      <point x="412" y="234" type="line"/>
      <point x="150" y="234" type="line"/>
      <point x="150" y="0" type="line"/>
      <point x="93" y="0" type="line"/>
      <point x="93" y="512" type="line"/>
      <point x="150" y="512" type="line"/>
      <point x="150" y="284" type="line"/>
      <point x="412" y="284" type="line"/>
      <point x="412" y="512" type="line"/>
      <point x="469" y="512" type="line"/>
      <point x="469" y="311" type="line"/>
      <point x="612" y="311" type="line" smooth="yes"/>
      <point x="690" y="311"/>
      <point x="776" y="228"/>
      <point x="776" y="155" type="qcurve" smooth="yes"/>
      <point x="776" y="82"/>
      <point x="690" y="0"/>
      <point x="612" y="0" type="qcurve" smooth="yes"/>
    </contour>
    <contour>
      <point x="605" y="50" type="line"/>
      <point x="715" y="54"/>
      <point x="715" y="138" type="qcurve" smooth="yes"/>
      <point x="715" y="174" type="line"/>
      <point x="713" y="261"/>
      <point x="605" y="261" type="qcurve" smooth="yes"/>
      <point x="469" y="261" type="line"/>
      <point x="469" y="50" type="line"/>
    </contour>
  </outline>
</glyph>
<glyph name="u045C" format="2">
  <advance width="538"/>
  <unicode hex="045C"/>
  <outline>
    <contour>
      <point x="441" y="0" type="line" smooth="yes"/>
      <point x="422" y="0"/>
      <point x="392" y="18"/>
      <point x="377" y="44" type="qcurve" smooth="yes"/>
      <point x="260" y="242" type="line"/>
      <point x="150" y="242" type="line"/>
      <point x="150" y="0" type="line"/>
      <point x="93" y="0" type="line"/>
      <point x="93" y="512" type="line"/>
      <point x="150" y="512" type="line"/>
      <point x="150" y="291" type="line"/>
      <point x="260" y="291" type="line"/>
      <point x="377" y="470" type="line" smooth="yes"/>
      <point x="394" y="496"/>
      <point x="421" y="512"/>
      <point x="442" y="512" type="qcurve" smooth="yes"/>
      <point x="489" y="512" type="line"/>
      <point x="489" y="462" type="line"/>
      <point x="430" y="462" type="line"/>
      <point x="332" y="312" type="line" smooth="yes"/>
      <point x="318" y="291"/>
      <point x="298" y="274"/>
      <point x="283" y="269" type="qcurve"/>
      <point x="283" y="265" type="line"/>
      <point x="300" y="263"/>
      <point x="326" y="242"/>
      <point x="341" y="216" type="qcurve" smooth="yes"/>
      <point x="439" y="50" type="line"/>
      <point x="498" y="50" type="line"/>
      <point x="498" y="0" type="line"/>
    </contour>
    <contour>
      <point x="236" y="604" type="line"/>
      <point x="331" y="768" type="line"/>
      <point x="383" y="742" type="line"/>
      <point x="273" y="586" type="line"/>
    </contour>
  </outline>
</glyph>
<glyph name="afii10147" format="2">
  <advance width="697"/>
  <unicode hex="0472"/>
  <outline>
    <contour>
      <point x="349" y="-12" type="qcurve" smooth="yes"/>
      <point x="215" y="-12"/>
      <point x="63" y="171"/>
      <point x="63" y="349" type="qcurve" smooth="yes"/>
      <point x="63" y="527"/>
      <point x="215" y="710"/>
      <point x="349" y="710" type="qcurve" smooth="yes"/>
      <point x="482" y="710"/>
      <point x="634" y="526"/>
      <point x="634" y="349" type="qcurve" smooth="yes"/>
      <point x="634" y="172"/>
      <point x="482" y="-12"/>
    </contour>
    <contour>
      <point x="570" y="393" type="line" smooth="yes"/>
      <point x="570" y="518"/>
      <point x="450" y="656"/>
      <point x="349" y="656" type="qcurve" smooth="yes"/>
      <point x="249" y="656"/>
      <point x="127" y="518"/>
      <point x="127" y="393" type="qcurve" smooth="yes"/>
      <point x="127" y="380" type="line"/>
      <point x="570" y="380" type="line"/>
    </contour>
    <contour>
      <point x="349" y="42" type="qcurve" smooth="yes"/>
      <point x="450" y="42"/>
      <point x="570" y="181"/>
      <point x="570" y="305" type="qcurve" smooth="yes"/>
      <point x="570" y="327" type="line"/>
      <point x="127" y="327" type="line"/>
      <point x="127" y="305" type="line" smooth="yes"/>
      <point x="127" y="181"/>
      <point x="249" y="42"/>
    </contour>
  </outline>
</glyph>
<glyph name="u0473" format="2">
  <advance width="552"/>
  <unicode hex="0473"/>
  <outline>
    <contour>
      <point x="276" y="39" type="qcurve" smooth="yes"/>
      <point x="351" y="39"/>
      <point x="439" y="134"/>
      <point x="439" y="224" type="qcurve" smooth="yes"/>
      <point x="439" y="238" type="line"/>
      <point x="114" y="238" type="line"/>
      <point x="114" y="224" type="line" smooth="yes"/>
      <point x="114" y="134"/>
      <point x="201" y="39"/>
    </contour>
    <contour>
      <point x="439" y="283" type="line"/>
      <point x="439" y="379"/>
      <point x="351" y="473"/>
      <point x="276" y="473" type="qcurve" smooth="yes"/>
      <point x="201" y="473"/>
      <point x="114" y="379"/>
      <point x="114" y="288" type="qcurve" smooth="yes"/>
      <point x="114" y="283" type="line"/>
    </contour>
    <contour>
      <point x="276" y="-12" type="qcurve" smooth="yes"/>
      <point x="174" y="-12"/>
      <point x="52" y="130"/>
      <point x="52" y="256" type="qcurve" smooth="yes"/>
      <point x="52" y="382"/>
      <point x="174" y="524"/>
      <point x="276" y="524" type="qcurve" smooth="yes"/>
      <point x="378" y="524"/>
      <point x="500" y="382"/>
      <point x="500" y="256" type="qcurve" smooth="yes"/>
      <point x="500" y="130"/>
      <point x="378" y="-12"/>
    </contour>
  </outline>
</glyph>
<glyph name="u0491" format="2">
  <advance width="438"/>
  <unicode hex="0491"/>
  <outline>
    <contour>
      <point x="93" y="0" type="line"/>
      <point x="93" y="512" type="line"/>
      <point x="355" y="512" type="line"/>
      <point x="355" y="652" type="line"/>
      <point x="407" y="652" type="line"/>
      <point x="407" y="462" type="line"/>
      <point x="150" y="462" type="line"/>
      <point x="150" y="0" type="line"/>
    </contour>
  </outline>
</glyph>
<glyph name="Ghestrokecyrillic" format="2">
  <advance width="522"/>
  <unicode hex="0492"/>
  <outline>
    <contour>
      <point x="119" y="0" type="line"/>
      <point x="119" y="348" type="line"/>
      <point x="19" y="348" type="line"/>
      <point x="19" y="395" type="line"/>
      <point x="119" y="395" type="line"/>
      <point x="119" y="698" type="line"/>
      <point x="489" y="698" type="line"/>
      <point x="489" y="645" type="line"/>
      <point x="179" y="645" type="line"/>
      <point x="179" y="395" type="line"/>
      <point x="385" y="395" type="line"/>
      <point x="385" y="348" type="line"/>
      <point x="179" y="348" type="line"/>
      <point x="179" y="0" type="line"/>
    </contour>
  </outline>
</glyph>
<glyph name="ghestrokecyrillic" format="2">
  <advance width="452"/>
  <unicode hex="0493"/>
  <outline>
    <contour>
      <point x="107" y="0" type="line"/>
      <point x="107" y="241" type="line"/>
      <point x="29" y="241" type="line"/>
      <point x="29" y="285" type="line"/>
      <point x="107" y="285" type="line"/>
      <point x="107" y="512" type="line"/>
      <point x="422" y="512" type="line"/>
      <point x="422" y="462" type="line"/>
      <point x="164" y="462" type="line"/>
      <point x="164" y="285" type="line"/>
      <point x="337" y="285" type="line"/>
      <point x="337" y="241" type="line"/>
      <point x="164" y="241" type="line"/>
      <point x="164" y="0" type="line"/>
    </contour>
  </outline>
</glyph>
<glyph name="u0494" format="2">
  <advance width="626"/>
  <unicode hex="0494"/>
  <outline>
    <contour>
      <point x="346" y="-164" type="line"/>
      <point x="346" y="-111" type="line"/>
      <point x="430" y="-111" type="line"/>
      <point x="504" y="-74"/>
      <point x="504" y="68" type="qcurve" smooth="yes"/>
      <point x="504" y="155" type="line" smooth="yes"/>
      <point x="504" y="254"/>
      <point x="410" y="342"/>
      <point x="316" y="342" type="qcurve" smooth="yes"/>
      <point x="225" y="342"/>
      <point x="159" y="318" type="qcurve"/>
      <point x="159" y="0" type="line"/>
      <point x="99" y="0" type="line"/>
      <point x="99" y="698" type="line"/>
      <point x="461" y="698" type="line"/>
      <point x="461" y="645" type="line"/>
      <point x="159" y="645" type="line"/>
      <point x="159" y="372" type="line"/>
      <point x="164" y="372" type="line"/>
      <point x="229" y="395"/>
      <point x="329" y="395" type="qcurve" smooth="yes"/>
      <point x="564" y="395"/>
      <point x="564" y="155" type="qcurve" smooth="yes"/>
      <point x="564" y="68" type="line" smooth="yes"/>
      <point x="564" y="-50"/>
      <point x="472" y="-164"/>
      <point x="398" y="-164" type="qcurve" smooth="yes"/>
    </contour>
  </outline>
</glyph>
<glyph name="u0499" format="2">
  <advance width="498"/>
  <unicode hex="0499"/>
  <outline>
    <contour>
      <point x="206" y="-140" type="line"/>
      <point x="206" y="-11" type="line"/>
      <point x="143" y="-5"/>
      <point x="64" y="46"/>
      <point x="38" y="89" type="qcurve"/>
      <point x="81" y="122" type="line"/>
      <point x="126" y="39"/>
      <point x="232" y="39" type="qcurve" smooth="yes"/>
      <point x="298" y="39"/>
      <point x="369" y="91"/>
      <point x="369" y="133" type="qcurve" smooth="yes"/>
      <point x="369" y="149" type="line" smooth="yes"/>
      <point x="369" y="193"/>
      <point x="307" y="240"/>
      <point x="252" y="240" type="qcurve" smooth="yes"/>
      <point x="146" y="240" type="line"/>
      <point x="146" y="288" type="line"/>
      <point x="246" y="288" type="line" smooth="yes"/>
      <point x="298" y="288"/>
      <point x="358" y="336"/>
      <point x="358" y="375" type="qcurve" smooth="yes"/>
      <point x="358" y="389" type="line" smooth="yes"/>
      <point x="358" y="427"/>
      <point x="297" y="473"/>
      <point x="234" y="473" type="qcurve" smooth="yes"/>
      <point x="131" y="473"/>
      <point x="88" y="392" type="qcurve"/>
      <point x="48" y="423" type="line"/>
      <point x="100" y="524"/>
      <point x="236" y="524" type="qcurve" smooth="yes"/>
      <point x="327" y="524"/>
      <point x="419" y="452"/>
      <point x="419" y="389" type="qcurve" smooth="yes"/>
      <point x="419" y="290"/>
      <point x="318" y="270" type="qcurve"/>
      <point x="318" y="266" type="line"/>
      <point x="430" y="250"/>
      <point x="430" y="143" type="qcurve" smooth="yes"/>
      <point x="430" y="77"/>
      <point x="340" y="-4"/>
      <point x="259" y="-11" type="qcurve"/>
      <point x="259" y="-140" type="line"/>
    </contour>
  </outline>
</glyph>
<glyph name="Katailcyr" format="2">
  <advance width="653"/>
  <unicode hex="049A"/>
  <outline>
    <contour>
      <point x="573" y="-150" type="line"/>
      <point x="573" y="0" type="line"/>
      <point x="544" y="0" type="line" smooth="yes"/>
      <point x="502" y="0"/>
      <point x="474" y="50" type="qcurve"/>
      <point x="304" y="329" type="line"/>
      <point x="159" y="329" type="line"/>
      <point x="159" y="0" type="line"/>
      <point x="99" y="0" type="line"/>
      <point x="99" y="698" type="line"/>
      <point x="159" y="698" type="line"/>
      <point x="159" y="381" type="line"/>
      <point x="304" y="381" type="line"/>
      <point x="461" y="646" type="line"/>
      <point x="488" y="698"/>
      <point x="536" y="698" type="qcurve" smooth="yes"/>
      <point x="582" y="698" type="line"/>
      <point x="582" y="645" type="line"/>
      <point x="522" y="645" type="line"/>
      <point x="378" y="402" type="line" smooth="yes"/>
      <point x="364" y="379"/>
      <point x="343" y="360"/>
      <point x="329" y="357" type="qcurve"/>
      <point x="329" y="353" type="line"/>
      <point x="346" y="351"/>
      <point x="373" y="330"/>
      <point x="388" y="304" type="qcurve" smooth="yes"/>
      <point x="541" y="53" type="line"/>
      <point x="629" y="53" type="line"/>
      <point x="629" y="-150" type="line"/>
    </contour>
  </outline>
</glyph>
<glyph name="Kabashkircyrillic" format="2">
  <advance width="757"/>
  <unicode hex="04A0"/>
  <outline>
    <contour>
      <point x="657" y="0" type="line" smooth="yes"/>
      <point x="615" y="0"/>
      <point x="587" y="50" type="qcurve"/>
      <point x="417" y="329" type="line"/>
      <point x="272" y="329" type="line"/>
      <point x="272" y="0" type="line"/>
      <point x="212" y="0" type="line"/>
      <point x="212" y="645" type="line"/>
      <point x="20" y="645" type="line"/>
      <point x="20" y="698" type="line"/>
      <point x="272" y="698" type="line"/>
      <point x="272" y="381" type="line"/>
      <point x="417" y="381" type="line"/>
      <point x="574" y="646" type="line"/>
      <point x="601" y="698"/>
      <point x="649" y="698" type="qcurve" smooth="yes"/>
      <point x="695" y="698" type="line"/>
      <point x="695" y="645" type="line"/>
      <point x="635" y="645" type="line"/>
      <point x="491" y="402" type="line" smooth="yes"/>
      <point x="477" y="379"/>
      <point x="456" y="360"/>
      <point x="442" y="357" type="qcurve"/>
      <point x="442" y="353" type="line"/>
      <point x="459" y="351"/>
      <point x="486" y="330"/>
      <point x="501" y="304" type="qcurve" smooth="yes"/>
      <point x="654" y="53" type="line"/>
      <point x="714" y="53" type="line"/>
      <point x="714" y="0" type="line"/>
    </contour>
  </outline>
</glyph>
<glyph name="kabashkircyrillic" format="2">
  <advance width="612"/>
  <unicode hex="04A1"/>
  <outline>
    <contour>
      <point x="514" y="0" type="line" smooth="yes"/>
      <point x="495" y="0"/>
      <point x="465" y="18"/>
      <point x="450" y="44" type="qcurve" smooth="yes"/>
      <point x="333" y="242" type="line"/>
      <point x="223" y="242" type="line"/>
      <point x="223" y="0" type="line"/>
      <point x="166" y="0" type="line"/>
      <point x="166" y="462" type="line"/>
      <point x="26" y="462" type="line"/>
      <point x="26" y="512" type="line"/>
      <point x="223" y="512" type="line"/>
      <point x="223" y="291" type="line"/>
      <point x="333" y="291" type="line"/>
      <point x="450" y="470" type="line" smooth="yes"/>
      <point x="467" y="496"/>
      <point x="494" y="512"/>
      <point x="515" y="512" type="qcurve" smooth="yes"/>
      <point x="562" y="512" type="line"/>
      <point x="562" y="462" type="line"/>
      <point x="503" y="462" type="line"/>
      <point x="405" y="312" type="line" smooth="yes"/>
      <point x="391" y="291"/>
      <point x="371" y="274"/>
      <point x="356" y="269" type="qcurve"/>
      <point x="356" y="265" type="line"/>
      <point x="373" y="263"/>
      <point x="399" y="242"/>
      <point x="414" y="216" type="qcurve" smooth="yes"/>
      <point x="512" y="50" type="line"/>
      <point x="571" y="50" type="line"/>
      <point x="571" y="0" type="line"/>
    </contour>
  </outline>
</glyph>
<glyph name="endescendercyrillic" format="2">
  <advance width="606"/>
  <unicode hex="04A3"/>
  <outline>
    <contour>
      <point x="519" y="-140" type="line"/>
      <point x="519" y="0" type="line"/>
      <point x="434" y="0" type="line"/>
      <point x="434" y="241" type="line"/>
      <point x="150" y="241" type="line"/>
      <point x="150" y="0" type="line"/>
      <point x="93" y="0" type="line"/>
      <point x="93" y="512" type="line"/>
      <point x="150" y="512" type="line"/>
      <point x="150" y="291" type="line"/>
      <point x="434" y="291" type="line"/>
      <point x="434" y="512" type="line"/>
      <point x="491" y="512" type="line"/>
      <point x="491" y="50" type="line"/>
      <point x="572" y="50" type="line"/>
      <point x="572" y="-140" type="line"/>
    </contour>
  </outline>
</glyph>
<glyph name="Engecyr" format="2">
  <advance width="923"/>
  <unicode hex="04A4"/>
  <outline>
    <contour>
      <point x="520" y="0" type="line"/>
      <point x="520" y="327" type="line"/>
      <point x="159" y="327" type="line"/>
      <point x="159" y="0" type="line"/>
      <point x="99" y="0" type="line"/>
      <point x="99" y="698" type="line"/>
      <point x="159" y="698" type="line"/>
      <point x="159" y="380" type="line"/>
      <point x="520" y="380" type="line"/>
      <point x="520" y="698" type="line"/>
      <point x="890" y="698" type="line"/>
      <point x="890" y="645" type="line"/>
      <point x="580" y="645" type="line"/>
      <point x="580" y="0" type="line"/>
    </contour>
  </outline>
</glyph>
<glyph name="engecyr" format="2">
  <advance width="759"/>
  <unicode hex="04A5"/>
  <outline>
    <contour>
      <point x="412" y="0" type="line"/>
      <point x="412" y="241" type="line"/>
      <point x="150" y="241" type="line"/>
      <point x="150" y="0" type="line"/>
      <point x="93" y="0" type="line"/>
      <point x="93" y="512" type="line"/>
      <point x="150" y="512" type="line"/>
      <point x="150" y="291" type="line"/>
      <point x="412" y="291" type="line"/>
      <point x="412" y="512" type="line"/>
      <point x="727" y="512" type="line"/>
      <point x="727" y="462" type="line"/>
      <point x="469" y="462" type="line"/>
      <point x="469" y="0" type="line"/>
    </contour>
  </outline>
</glyph>
<glyph name="esdescendercyrillic" format="2">
  <advance width="497"/>
  <unicode hex="04AB"/>
  <outline>
    <contour>
      <point x="249" y="-140" type="line"/>
      <point x="249" y="-11" type="line"/>
      <point x="155" y="-2"/>
      <point x="52" y="136"/>
      <point x="52" y="256" type="qcurve" smooth="yes"/>
      <point x="52" y="384"/>
      <point x="167" y="524"/>
      <point x="273" y="524" type="qcurve" smooth="yes"/>
      <point x="405" y="524"/>
      <point x="455" y="411" type="qcurve"/>
      <point x="407" y="387" type="line"/>
      <point x="371" y="473"/>
      <point x="273" y="473" type="qcurve" smooth="yes"/>
      <point x="195" y="473"/>
      <point x="113" y="373"/>
      <point x="113" y="292" type="qcurve" smooth="yes"/>
      <point x="113" y="220" type="line" smooth="yes"/>
      <point x="113" y="139"/>
      <point x="195" y="39"/>
      <point x="273" y="39" type="qcurve" smooth="yes"/>
      <point x="375" y="39"/>
      <point x="420" y="128" type="qcurve"/>
      <point x="462" y="100" type="line"/>
      <point x="420" y="6"/>
      <point x="302" y="-11" type="qcurve"/>
      <point x="302" y="-140" type="line"/>
    </contour>
  </outline>
</glyph>
<glyph name="Xatailcyr" format="2">
  <advance width="623"/>
  <unicode hex="04B2"/>
  <outline>
    <contour>
      <point x="564" y="-150" type="line"/>
      <point x="564" y="0" type="line"/>
      <point x="494" y="0" type="line"/>
      <point x="296" y="309" type="line"/>
      <point x="294" y="309" type="line"/>
      <point x="95" y="0" type="line"/>
      <point x="26" y="0" type="line"/>
      <point x="257" y="355" type="line"/>
      <point x="33" y="698" type="line"/>
      <point x="104" y="698" type="line"/>
      <point x="295" y="403" type="line"/>
      <point x="297" y="403" type="line"/>
      <point x="490" y="698" type="line"/>
      <point x="559" y="698" type="line"/>
      <point x="333" y="358" type="line"/>
      <point x="532" y="53" type="line"/>
      <point x="619" y="53" type="line"/>
      <point x="619" y="-150" type="line"/>
    </contour>
  </outline>
</glyph>
<glyph name="u04B3" format="2">
  <advance width="515"/>
  <unicode hex="04B3"/>
  <outline>
    <contour>
      <point x="457" y="-140" type="line"/>
      <point x="457" y="0" type="line"/>
      <point x="400" y="0" type="line"/>
      <point x="249" y="216" type="line"/>
      <point x="247" y="216" type="line"/>
      <point x="90" y="0" type="line"/>
      <point x="26" y="0" type="line"/>
      <point x="216" y="258" type="line"/>
      <point x="33" y="512" type="line"/>
      <point x="100" y="512" type="line"/>
      <point x="246" y="303" type="line"/>
      <point x="249" y="303" type="line"/>
      <point x="398" y="512" type="line"/>
      <point x="462" y="512" type="line"/>
      <point x="280" y="262" type="line"/>
      <point x="431" y="50" type="line"/>
      <point x="510" y="50" type="line"/>
      <point x="510" y="-140" type="line"/>
    </contour>
  </outline>
</glyph>
<glyph name="Chetailcyr" format="2">
  <advance width="670"/>
  <unicode hex="04B6"/>
  <outline>
    <contour>
      <point x="575" y="-150" type="line"/>
      <point x="575" y="0" type="line"/>
      <point x="477" y="0" type="line"/>
      <point x="477" y="287" type="line"/>
      <point x="472" y="287" type="line"/>
      <point x="409" y="262"/>
      <point x="307" y="262" type="qcurve" smooth="yes"/>
      <point x="180" y="262"/>
      <point x="62" y="379"/>
      <point x="62" y="503" type="qcurve" smooth="yes"/>
      <point x="62" y="698" type="line"/>
      <point x="122" y="698" type="line"/>
      <point x="122" y="503" type="line" smooth="yes"/>
      <point x="122" y="404"/>
      <point x="217" y="315"/>
      <point x="309" y="315" type="qcurve" smooth="yes"/>
      <point x="416" y="315"/>
      <point x="477" y="340" type="qcurve"/>
      <point x="477" y="698" type="line"/>
      <point x="537" y="698" type="line"/>
      <point x="537" y="53" type="line"/>
      <point x="631" y="53" type="line"/>
      <point x="631" y="-150" type="line"/>
    </contour>
  </outline>
</glyph>
<glyph name="cheverticalstrokecyrillic" format="2">
  <advance width="532"/>
  <unicode hex="04B9"/>
  <outline>
    <contour>
      <point x="382" y="0" type="line"/>
      <point x="382" y="253" type="line"/>
      <point x="377" y="253" type="line"/>
      <point x="347" y="202"/>
      <point x="268" y="187" type="qcurve"/>
      <point x="268" y="91" type="line"/>
      <point x="224" y="91" type="line"/>
      <point x="224" y="183" type="line"/>
      <point x="143" y="183"/>
      <point x="54" y="262"/>
      <point x="54" y="343" type="qcurve" smooth="yes"/>
      <point x="54" y="512" type="line"/>
      <point x="111" y="512" type="line"/>
      <point x="111" y="348" type="line" smooth="yes"/>
      <point x="111" y="239"/>
      <point x="224" y="234" type="qcurve"/>
      <point x="224" y="385" type="line"/>
      <point x="268" y="385" type="line"/>
      <point x="268" y="235" type="line"/>
      <point x="319" y="240"/>
      <point x="382" y="286"/>
      <point x="382" y="324" type="qcurve" smooth="yes"/>
      <point x="382" y="512" type="line"/>
      <point x="439" y="512" type="line"/>
      <point x="439" y="0" type="line"/>
    </contour>
  </outline>
</glyph>
<glyph name="zhebrevecyr" format="2">
  <advance width="759"/>
  <unicode hex="04C2"/>
  <outline>
    <contour>
      <point x="662" y="0" type="line" smooth="yes"/>
      <point x="642" y="0"/>
      <point x="611" y="22"/>
      <point x="598" y="49" type="qcurve" smooth="yes"/>
      <point x="508" y="242" type="line"/>
      <point x="408" y="242" type="line"/>
      <point x="408" y="0" type="line"/>
      <point x="351" y="0" type="line"/>
      <point x="351" y="242" type="line"/>
      <point x="251" y="242" type="line"/>
      <point x="161" y="49" type="line" smooth="yes"/>
      <point x="148" y="22"/>
      <point x="117" y="0"/>
      <point x="97" y="0" type="qcurve" smooth="yes"/>
      <point x="41" y="0" type="line"/>
      <point x="41" y="50" type="line"/>
      <point x="100" y="50" type="line"/>
      <point x="178" y="217" type="line"/>
      <point x="200" y="262"/>
      <point x="230" y="265" type="qcurve"/>
      <point x="230" y="269" type="line"/>
      <point x="215" y="274"/>
      <point x="191" y="295"/>
      <point x="180" y="316" type="qcurve" smooth="yes"/>
      <point x="107" y="462" type="line"/>
      <point x="48" y="462" type="line"/>
      <point x="48" y="512" type="line"/>
      <point x="96" y="512" type="line" smooth="yes"/>
      <point x="141" y="512"/>
      <point x="164" y="465" type="qcurve" smooth="yes"/>
      <point x="251" y="291" type="line"/>
      <point x="351" y="291" type="line"/>
      <point x="351" y="512" type="line"/>
      <point x="408" y="512" type="line"/>
      <point x="408" y="291" type="line"/>
      <point x="508" y="291" type="line"/>
      <point x="595" y="465" type="line" smooth="yes"/>
      <point x="618" y="512"/>
      <point x="663" y="512" type="qcurve" smooth="yes"/>
      <point x="711" y="512" type="line"/>
      <point x="711" y="462" type="line"/>
      <point x="652" y="462" type="line"/>
      <point x="579" y="316" type="line" smooth="yes"/>
      <point x="568" y="295"/>
      <point x="545" y="274"/>
      <point x="529" y="269" type="qcurve"/>
      <point x="529" y="265" type="line"/>
      <point x="560" y="262"/>
      <point x="581" y="217" type="qcurve" smooth="yes"/>
      <point x="659" y="50" type="line"/>
      <point x="718" y="50" type="line"/>
      <point x="718" y="0" type="line"/>
    </contour>
    <contour>
      <point x="378" y="600" type="qcurve" smooth="yes"/>
      <point x="326" y="600"/>
      <point x="265" y="647"/>
      <point x="248" y="683" type="qcurve"/>
      <point x="231" y="716" type="line"/>
      <point x="281" y="738" type="line"/>
      <point x="316" y="662" type="line"/>
      <point x="344" y="643"/>
      <point x="378" y="643" type="qcurve" smooth="yes"/>
      <point x="413" y="643"/>
      <point x="440" y="662" type="qcurve"/>
      <point x="475" y="738" type="line"/>
      <point x="525" y="716" type="line"/>
      <point x="508" y="683" type="line"/>
      <point x="491" y="647"/>
      <point x="430" y="600"/>
    </contour>
  </outline>
</glyph>
<glyph name="Abrevecyrillic" format="2">
  <advance width="625"/>
  <unicode hex="04D0"/>
  <outline>
    <contour>
      <point x="312" y="774" type="qcurve" smooth="yes"/>
      <point x="260" y="774"/>
      <point x="199" y="821"/>
      <point x="182" y="857" type="qcurve"/>
      <point x="165" y="890" type="line"/>
      <point x="215" y="912" type="line"/>
      <point x="250" y="836" type="line"/>
      <point x="278" y="817"/>
      <point x="312" y="817" type="qcurve" smooth="yes"/>
      <point x="347" y="817"/>
      <point x="374" y="836" type="qcurve"/>
      <point x="409" y="912" type="line"/>
      <point x="459" y="890" type="line"/>
      <point x="442" y="857" type="line"/>
      <point x="425" y="821"/>
      <point x="364" y="774"/>
    </contour>
    <contour>
      <point x="536" y="0" type="line"/>
      <point x="460" y="217" type="line"/>
      <point x="163" y="217" type="line"/>
      <point x="87" y="0" type="line"/>
      <point x="27" y="0" type="line"/>
      <point x="274" y="698" type="line"/>
      <point x="351" y="698" type="line"/>
      <point x="599" y="0" type="line"/>
    </contour>
    <contour>
      <point x="313" y="641" type="line"/>
      <point x="309" y="641" type="line"/>
      <point x="178" y="269" type="line"/>
      <point x="444" y="269" type="line"/>
    </contour>
  </outline>
</glyph>
